<svg viewBox="5.54054054054054 18.349999999999998 88.91891891891892 63.18000000000001" version="1.1" xmlns="http://www.w3.org/2000/svg" style="max-height: 500px" width="88.91891891891892" height="63.18000000000001">
 <path d="m22.988 35.211h0.019531c1.8086 0 3.5117-0.85156 4.7891-2.3594 1.3086-1.5508 2.0195-3.6094 2.0117-5.8008-0.011719-2.1797-0.73828-4.2305-2.0586-5.7695-1.2891-1.5-2.9883-2.3281-4.7891-2.3281h-0.019532c-3.7695 0.019531-6.8281 3.6797-6.8086 8.1602 0.015626 4.4883 3.0859 8.0977 6.8555 8.0977z"/>
 <path d="m38.828 51.871c-0.85156-2.1914-2.1797-4.2188-3.8594-5.8789-3.2188-3.1992-7.5-4.9492-12.039-4.9102-9.3086 0.066407-16.852 7.8164-16.809 17.277 0.011718 1.3711 1.1289 2.4805 2.5 2.4805l24.012-0.10156c1.1367-3.5586 3.3281-6.6289 6.1953-8.8672z"/>
 <path d="m49.75 43.371h0.019531c1.8086-0.011719 3.5117-0.85156 4.8008-2.3711 1.3008-1.5508 2.0117-3.6016 2-5.7891-0.011718-2.1914-0.73828-4.2383-2.0586-5.7695-1.2812-1.5117-2.9805-2.3281-4.7812-2.3281l-0.03125-0.003906c-3.7695 0.019531-6.8203 3.6797-6.8008 8.1602 0.011718 4.4688 3.0898 8.1016 6.8516 8.1016z"/>
 <path d="m88.871 46.02c-3.2188-3.1992-7.4805-4.9492-12.039-4.9102-6.9102 0.050781-13.148 4.4492-15.648 10.988 0.46875 0.37891 0.92969 0.78906 1.3711 1.2188 2.1211 2.1016 3.6914 4.6914 4.5508 7.5391l24.301-0.10938c0.67188 0 1.2891-0.26953 1.7617-0.73828 0.46875-0.46875 0.73047-1.1016 0.71875-1.7695v-0.28125c-0.015625-4.5156-1.7969-8.7578-5.0156-11.938z"/>
 <path d="m76.891 35.25h0.019531c1.8086-0.011719 3.5117-0.85156 4.8008-2.3711 1.3008-1.5508 2.0117-3.6094 2-5.7891-0.011719-2.1914-0.73828-4.2383-2.0586-5.7812-1.2812-1.5-2.9805-2.3203-4.7812-2.3203h-0.03125c-3.7695 0.011719-6.8203 3.6719-6.8008 8.1602 0.011719 4.4727 3.0898 8.1016 6.8516 8.1016z"/>
 <path d="m66.121 61.602c0-0.011718-0.011719-0.019531-0.011719-0.039062-0.78906-2.7891-2.3008-5.3594-4.3789-7.4102-0.48828-0.48828-1.0312-0.96094-1.5703-1.3789-0.019531-0.011719-0.039062-0.019532-0.050781-0.039063-3.0117-2.3086-6.6211-3.5117-10.422-3.4883-3.6602 0.03125-7.0391 1.2383-9.8008 3.2812 0 0-0.011719 0.011718-0.019531 0.019531-2.9414 2.1719-5.1602 5.2812-6.25 8.8906-0.011719 0.050781-0.019532 0.089844-0.039063 0.12891-0.44922 1.5703-0.69922 3.2383-0.69141 4.9609 0 1.3711 1.1211 2.4883 2.4883 2.4883h0.23047c0.050781 0.39062 0.12891 0.76953 0.21875 1.1484 1.5391 6.2383 7.1797 10.891 13.891 10.891 6.7617 0 12.43-4.7109 13.91-11.012 0.10156-0.37891 0.17188-0.76953 0.23047-1.1602h0.40234c0.67188 0 1.2891-0.26172 1.7617-0.73828 0.46875-0.46875 0.73047-1.1016 0.73047-1.7695l-0.011719-0.26953c0-1.5469-0.20703-3.0547-0.61719-4.5039zm-16.402 18.277c-6.3203 0-11.602-4.4805-12.859-10.43-0.17969-0.87109-0.28125-1.7812-0.28125-2.7109 0-7.25 5.8906-13.148 13.141-13.148s13.148 5.8984 13.148 13.148c0 0.89062-0.089844 1.7617-0.26172 2.6016-1.207 6.0117-6.5273 10.539-12.887 10.539z"/>
 <path d="m56.059 66.18h-5.9688v-5.9688c0-0.32031-0.26172-0.57813-0.57812-0.57813-0.32031 0-0.57812 0.26172-0.57812 0.57813v5.9688h-5.7383c-0.32031 0-0.57812 0.26172-0.57812 0.57812 0 0.32031 0.26172 0.57813 0.57812 0.57813h5.7383v5.7383c0 0.32031 0.26172 0.57812 0.57812 0.57812 0.32031 0 0.57812-0.26172 0.57812-0.57812v-5.7383h5.9688c0.32031 0 0.57812-0.26172 0.57812-0.57813 0.003906-0.31641-0.25781-0.57812-0.57812-0.57812z"/>
<text fill="#000000" font-family="Arbeit Regular, Helvetica, Arial-Unicode, Arial, Sans-serif" font-weight="bold" font-size="5.0" y="117.5" x="0.0">Created by konte91</text><text fill="#000000" font-family="Arbeit Regular, Helvetica, Arial-Unicode, Arial, Sans-serif" font-weight="bold" font-size="5.0" y="122.5" x="0.0">from Noun Project</text></svg>