<svg viewBox="0.1351351351351351 0.2599999999999998 99.45945945945947 99.36" version="1.1" xmlns="http://www.w3.org/2000/svg" style="max-height: 500px" width="99.45945945945947" height="99.36">
 <path fill-rule="evenodd" d="m98.617 54.828c0 3.1406-2.5469 5.6875-5.6875 5.6914h-30.516c-1.043 0.003907-1.8867 0.84766-1.8906 1.8867v30.523c-0.003907 3.1406-2.5469 5.6836-5.6914 5.6875h-9.6602c-3.1406-0.003907-5.6875-2.5469-5.6914-5.6875v-30.516c0-1.0469-0.84375-1.8906-1.8867-1.8906h-30.523c-3.1406-0.003907-5.6836-2.5508-5.6875-5.6914v-9.6602c0.003907-3.1406 2.5469-5.6875 5.6875-5.6914h30.516c1.0469 0 1.8906-0.84375 1.8906-1.8867v-30.523c0.003907-3.1406 2.5508-5.6836 5.6914-5.6875h9.6562-0.003907c3.1445 0.003907 5.6875 2.5469 5.6914 5.6875v30.516c0 1.0469 0.84766 1.8945 1.8906 1.8945h30.527c3.1406 0.003906 5.6875 2.5508 5.6875 5.6953z"/>
<text fill="#000000" font-family="Arbeit Regular, Helvetica, Arial-Unicode, Arial, Sans-serif" font-weight="bold" font-size="5.0" y="117.5" x="0.0">Created by Zahrotus sa'idah</text><text fill="#000000" font-family="Arbeit Regular, Helvetica, Arial-Unicode, Arial, Sans-serif" font-weight="bold" font-size="5.0" y="122.5" x="0.0">from Noun Project</text></svg>