<svg xml:space="preserve" viewBox="0 0 101.25 98.5" y="0px" x="0px" version="1.1" xmlns:xlink="http://www.w3.org/1999/xlink" xmlns="http://www.w3.org/2000/svg" style="max-height: 500px" width="101.25" height="98.5"><path d="M62.916,20.604c-0.767,0.68-0.762,1.507-0.496,2.217c-0.109-0.057-6.795-3.226-11.575-4.451  c-4.408-1.129-4.893-1.492-5.378-2.028c-0.401-0.443-0.522-1.156-0.271-1.765l0-0.002c0.073-0.184,0.123-0.259,0.147-0.288  c0.666,0.21,5.181,0.958,6.576,1.186c5.297,0.885,8.953,1.951,12.227,3.566l1.062,0.523C64.133,19.798,63.408,20.167,62.916,20.604z   M47.812,18.935c-0.063,0.46,0.069,1.083,0.325,1.404c0.829,1.039,2.189,1.359,4.991,2.451c6.69,2.608,13.107,7.384,13.318,7.554  c-0.518-1.06-2.007-3.948-2.271-4.336c-0.29-0.418-1.38-1.221-2.461-1.865C59.187,22.637,51.891,19.933,47.812,18.935z   M85.395,19.804C71.555,6.247,53.531,8.211,48.189,9.428c-2.938,0.669-3.71,1.416-3.478,2.469c0.208,0.942,1.374,1.149,6.248,1.878  c10.482,1.601,16.203,4.137,21.862,9.691c3.414,3.349,5.606,6.616,7.327,10.925c0.633,1.572,0.793,2.226,0.634,2.592  c-0.058,0.134-0.161,0.233-0.296,0.285c-0.191,0.072-0.37,0.066-0.535-0.016c-0.265-0.131-0.462-0.445-0.618-0.987  c-0.328-1.083-1.697-4.01-2.569-5.492c-1.271-2.149-2.595-3.827-4.724-5.984c-2.766-2.77-4.303-3.712-6.088-3.732  c-1.141-0.004-2.018,0.384-2.175,0.746c-0.144,0.309,0.416,1.357,1.726,3.593c1.734,2.95,3.166,6.403,4.644,11.196  c1.312,4.307,2.525,7.938,3.092,9.251v0c1.83,4.319,4.12,7.668,7.297,10.104c3.627,2.781,7.711,2.989,10.025,2.994  c2.303,0.005,2.559-0.331,2.953-1.909C94.186,54.342,99.353,33.478,85.395,19.804z M49.145,86.205  c-10.487-1.566-16.217-4.083-21.895-9.618c-3.425-3.337-5.628-6.597-7.364-10.9c-0.638-1.569-0.8-2.223-0.642-2.589  c0.057-0.134,0.16-0.234,0.295-0.286c0.19-0.073,0.37-0.067,0.535,0.014c0.266,0.13,0.463,0.443,0.621,0.985  c0.332,1.082,1.71,4.004,2.588,5.483c1.278,2.145,2.608,3.818,4.744,5.968c2.775,2.761,4.315,3.698,6.1,3.712  c1.141,0,2.016-0.391,2.173-0.753c0.143-0.31-0.42-1.356-1.738-3.587c-1.744-2.944-3.187-6.392-4.681-11.18  c-1.326-4.302-2.552-7.929-3.123-9.241v0c-1.844-4.313-4.145-7.654-7.331-10.08c-3.636-2.769-7.721-2.963-10.035-2.96  c-2.303,0.003-2.558,0.339-2.947,1.919c-0.663,2.692-5.76,23.573,8.244,37.2c13.885,13.511,31.902,11.487,37.24,10.252  c2.935-0.679,3.705-1.429,3.47-2.481C55.188,87.121,54.021,86.918,49.145,86.205z M34.878,80.466l1.064,0.519  c3.279,1.604,6.939,2.658,12.238,3.525c1.396,0.224,5.913,0.956,6.58,1.164c0.024-0.028,0.073-0.104,0.146-0.288l0-0.002  c0.249-0.61,0.126-1.323-0.277-1.764c-0.487-0.534-0.973-0.895-5.385-2.01c-4.785-1.209-11.481-4.355-11.59-4.412  c0.268,0.709,0.276,1.537-0.489,2.219C36.675,79.855,35.951,80.226,34.878,80.466z M46.946,77.198  c-6.699-2.585-13.131-7.34-13.343-7.509c0.522,1.058,2.021,3.942,2.286,4.329c0.291,0.417,1.384,1.216,2.467,1.856  c2.531,1.497,9.837,4.177,13.919,5.161c0.061-0.46-0.073-1.083-0.33-1.402C51.113,78.596,49.751,78.281,46.946,77.198z   M67.279,46.169c0.37,0.371,0.72,2.855,0.72,3.824c0,1.32-0.261,2.899-0.559,3.379c-0.365,0.529-0.474,0.516-3.284,0.2l-0.636-0.073  l-0.201,0.8c-0.133,0.581-0.486,1.517-0.749,2.101c-0.201,0.413-0.314,0.727-0.356,0.887c0.2,0.134,0.658,0.425,1.255,0.79  c0.612,0.355,1.369,0.867,1.514,1.062c0.593,0.931-2.01,4.1-3.744,5.28c-1.506,1.004-1.833,0.919-3.177-0.821l-0.911-1.21  l-1.014,0.524c-0.683,0.357-1.609,0.736-2.045,0.867l-0.553,0.164l0.044,0.372c0.043,0.325,0.187,1.145,0.326,1.8  c0.131,0.6,0.265,1.359,0.164,1.561c-0.037,0.108-0.169,0.481-3.215,0.712c-0.262,0.024-0.516,0.035-0.773,0.035  c-0.55,0-1.124-0.053-1.807-0.167l-0.477-0.08c-1.477-0.243-1.704-0.281-1.591-1.622l0.028-0.345  c0.042-0.744,0.128-1.623,0.173-1.981l0.051-0.358l-0.487-0.115c-0.434-0.108-1.335-0.466-2.013-0.797  c-0.472-0.231-0.844-0.395-1.046-0.475c-0.133,0.194-0.382,0.568-0.671,1.01c-1.107,1.646-1.307,1.937-2.166,1.568  c-1.702-0.713-4.823-3.787-4.823-5.025c0-0.44,0.261-0.674,2.792-2.502c-0.023-0.063-0.102-0.2-0.235-0.411  c-0.224-0.358-0.648-1.288-0.944-2.076l-0.447-1.16l-1.735,0.352c-1.068,0.215-1.555,0.313-1.905,0.077  c-0.317-0.212-0.394-0.607-0.533-1.326l-0.02-0.101c-0.342-1.672-0.193-6.072,0.483-6.632c0.241-0.199,0.677-0.208,2.216-0.048  c0.758,0.066,1.341,0.108,1.62,0.124c0.086-0.239,0.249-0.703,0.433-1.232c0.261-0.753,0.695-1.771,0.967-2.27l0.362-0.657  l-1.195-0.933c-0.671-0.519-1.484-1.206-1.539-1.537c-0.09-0.627,1.514-2.659,2.382-3.48c0.743-0.73,2.559-1.944,3.179-1.944  c0.35,0,0.646,0.319,1.932,2.432c0.062,0.098,0.129,0.206,0.191,0.307l0.026,0.043c0.066,0.107,0.124,0.203,0.166,0.267  c0.075-0.019,0.308-0.086,0.889-0.352c0.587-0.272,1.564-0.615,2.176-0.764l0.813-0.189l-0.045-0.418  c-0.053-0.33-0.121-1.097-0.176-1.712l-0.03-0.361c-0.093-1.151,0.009-1.286,1.091-1.438l0.187-0.026  c0.263-0.033,1.349-0.047,2.413-0.017c0.163,0.003,4.01,0.095,4.316,0.88c0.113,0.262-0.102,1.83-0.127,2.007  c-0.125,0.998-0.157,1.535-0.155,1.698c0.089,0.048,0.34,0.165,0.725,0.286c0.779,0.244,1.757,0.741,2.616,1.329h0  c0.199,0,1.176-1.164,1.702-1.789c0.567-0.665,0.758-0.889,1.313-0.563c1.098,0.69,2.828,2.667,3.499,3.994  c0.735,1.47,0.657,1.693-0.923,2.646c-0.671,0.384-1.217,0.712-1.386,0.82c0.014,0.051,0.064,0.216,0.272,0.649  c0.241,0.485,0.576,1.307,0.746,1.831l0.226,0.698l1.496-0.309C66.583,45.929,66.984,45.85,67.279,46.169z M45.654,52.286  c0.508,1.083,1.27,1.864,2.331,2.387c0.67,0.328,0.903,0.374,1.918,0.374c1.004,0,1.273-0.051,1.921-0.361  c1.081-0.506,1.936-1.342,2.474-2.417c0.398-0.825,0.431-0.989,0.431-2.191c0-1.113-0.049-1.401-0.349-2.054  c-0.499-1.068-1.212-1.802-2.242-2.31c-0.687-0.338-1.403-0.509-2.128-0.509c-0.84,0-1.673,0.239-2.405,0.692  c-1.469,0.908-2.355,2.553-2.368,4.399C45.222,51.267,45.27,51.49,45.654,52.286z"/><text font-family="'Helvetica Neue', Helvetica, Arial-Unicode, Arial, Sans-serif" font-weight="bold" font-size="5px" fill="#000000" y="115" x="0">Created by Laymik</text><text font-family="'Helvetica Neue', Helvetica, Arial-Unicode, Arial, Sans-serif" font-weight="bold" font-size="5px" fill="#000000" y="120" x="0">from the Noun Project</text></svg>