<svg viewBox="-5 -1.6300000000000008 111.8918918918919 102.87" version="1.1" xmlns="http://www.w3.org/2000/svg" style="max-height: 500px" width="111.8918918918919" height="102.87">
 <path fill-rule="evenodd" d="m64.152 80.805c-1.168 0-2.2305-0.76953-2.543-1.9609l-12.504-46.703c-0.375-1.418 0.45703-2.8555 1.875-3.2539 1.3945-0.375 2.8555 0.45703 3.2305 1.875l7.3789 27.598-0.003906-15.508h33.41v23.195c0 1.4609-1.1641 2.6445-2.6445 2.6445l-27.992 0.003906 1.668 6.2305 16.008-4.293c1.418-0.375 2.8555 0.48047 3.2305 1.875 0.375 1.418-0.45703 2.8789-1.875 3.2539l-18.551 4.9609c-0.23047 0.0625-0.45703 0.082032-0.6875 0.082032zm-2.5625-43.246v-23.176c0-1.4609 1.1875-2.6484 2.6484-2.6484h28.117c1.4805 0 2.6445 1.1875 2.6445 2.6484v23.176zm-18.656 50.711c-5.3125 0-9.6914-4.1484-10.047-9.3789h-7.7109c-0.35547 5.2305-4.75 9.3789-10.09 9.3789-5.543 0-10.09-4.5234-10.09-10.09 0-2.125 0.66797-4.1055 1.793-5.7305l0.003907-18.137c0-1.4609 1.1875-2.6484 2.6484-2.6484h1.6875v-20.383c0-1.4609 1.1875-2.6445 2.6445-2.6445h24.762c3.8359 0 7.043 2.4609 8.0234 6.1289 3.2305 12.047 6.4414 24.094 9.6719 36.121 0.51953 1.918 0.14453 3.8789-1.043 5.5039-0.5625 0.73047-1.3359 1.375-2.1445 1.793 0 5.5586-4.5234 10.086-10.109 10.086zm0-14.883c-2.625 0-4.793 2.1445-4.793 4.793 0 2.6445 2.168 4.793 4.793 4.793 2.668 0 4.8125-2.1445 4.8125-4.793 0.003906-2.6484-2.1445-4.793-4.8125-4.793zm-27.844 0c-2.6289 0-4.793 2.1445-4.793 4.793 0 2.6445 2.168 4.793 4.793 4.793 2.668 0 4.8164-2.1445 4.8164-4.793-0.003906-2.6484-2.1484-4.793-4.8164-4.793zm17.965-13.59 14.734 0.019531-6.332-23.676c-0.35547-1.3359-1.5039-2.2109-2.918-2.2109h-22.117v17.734h8.7305c0.8125 0 1.5625 0.35547 2.0625 0.98047zm47.875 0.3125h-5.293v-4.3359h-4.3359v-5.293h4.3359v-4.3555h5.293v4.3555h4.3555v5.293h-4.3555zm0-25.824h-5.293v-4.3359h-4.3359v-5.2969h4.3359v-4.3516h5.293v4.3555h4.3555v5.2969h-4.3555z"/>
<text fill="#000000" font-family="Arbeit Regular, Helvetica, Arial-Unicode, Arial, Sans-serif" font-weight="bold" font-size="5.0" y="117.5" x="0.0">Created by fatmawati</text><text fill="#000000" font-family="Arbeit Regular, Helvetica, Arial-Unicode, Arial, Sans-serif" font-weight="bold" font-size="5.0" y="122.5" x="0.0">from Noun Project</text></svg>