<svg viewBox="-5 -1.6300000000000008 111.0810810810811 99.09" version="1.1" xmlns="http://www.w3.org/2000/svg" style="max-height: 500px" width="111.0810810810811" height="99.09">
 <path d="m22.473 39.234c0.25 1.0234 0.65234 2 1.1992 2.9023 0.1875 0.30859 0.19141 0.69922 0.003906 1.0078l-1.2734 2.1211 1.5742 1.5742 2.1211-1.2734c0.3125-0.1875 0.69922-0.18359 1.0078 0.003906 0.90234 0.54688 1.8789 0.95313 2.9023 1.1992 0.35156 0.085938 0.62891 0.35938 0.71484 0.71094l0.60156 2.4023h2.2266l0.60156-2.4023c0.089844-0.35156 0.36328-0.625 0.71875-0.71094 1.0234-0.24609 2-0.65234 2.9023-1.1992 0.30859-0.1875 0.69922-0.1875 1.0117-0.003906l2.1211 1.2734 1.5742-1.5742-1.2734-2.125c-0.1875-0.3125-0.18359-0.69922 0.003907-1.0117 0.54687-0.90234 0.95312-1.8789 1.1992-2.9023 0.085938-0.35156 0.35938-0.62891 0.71094-0.71875l2.4023-0.60156v-2.2227l-2.4023-0.60156c-0.35547-0.078125-0.62891-0.35547-0.71484-0.70703-0.25-1.0273-0.65234-2-1.1992-2.8984-0.1875-0.30859-0.19141-0.69922-0.003906-1.0117l1.2734-2.125-1.5742-1.5742-2.1211 1.2734c-0.3125 0.1875-0.69922 0.1875-1.0117-0.003906-0.89844-0.54688-1.875-0.95312-2.9023-1.2031-0.35156-0.085937-0.62891-0.35938-0.71875-0.71094l-0.60156-2.4023h-2.2227l-0.60156 2.4023c-0.089844 0.35156-0.36328 0.625-0.71875 0.71094-1.0273 0.25-2 0.65234-2.9023 1.1992-0.30859 0.1875-0.69922 0.19141-1.0117 0.003906l-2.125-1.2734-1.5742 1.5742 1.2734 2.1211c0.1875 0.3125 0.18359 0.69922-0.003906 1.0117-0.54688 0.89844-0.95312 1.875-1.1992 2.8984-0.085938 0.35156-0.35938 0.62891-0.71094 0.71875l-2.4023 0.60156v2.2227l2.4023 0.60156c0.35938 0.09375 0.63672 0.37109 0.72266 0.72266zm4.0039-2.918 2.5586-4.4297c0.17578-0.30078 0.49609-0.48828 0.84766-0.48828h5.1172c0.34766 0 0.67188 0.1875 0.84766 0.48828l2.5586 4.4297c0.17578 0.30078 0.17578 0.67578 0 0.97656l-2.5586 4.4297c-0.17578 0.30078-0.49609 0.48828-0.84766 0.48828h-5.1172c-0.34766 0-0.67187-0.1875-0.84766-0.48828l-2.5586-4.4297c-0.17187-0.30078-0.17187-0.67188 0-0.97656z"/>
 <path d="m34.434 40.258 1.9922-3.4531-1.9922-3.4531h-3.9883l-1.9961 3.4531 1.9961 3.4531z"/>
 <path d="m15.496 66.68 10.223 19.621 8.9414-4.6602-10.215-19.617z"/>
 <path d="m85.598 52.473c-1.4688-1.4727-3.8086-1.6133-5.4414-0.33594l-1.293 1.0156c-0.15625-0.24219-0.32812-0.47266-0.53516-0.67969-0.78125-0.78125-1.8125-1.207-2.9102-1.207-0.91406 0-1.8125 0.30859-2.5312 0.875l-2.5156 1.9766c-0.19922-0.60938-0.51953-1.1758-0.98828-1.6445-1.4688-1.4688-3.8086-1.6133-5.4414-0.33203l-6.0938 4.7891h-7.7969c-0.87109 0-1.6797-0.35156-2.2734-0.99219-1.4141-1.5039-3.3984-2.3672-5.4414-2.3672-1.4336 0-2.8203 0.40625-4.0039 1.1719l-5.6758 3.6094c-0.57812 0.26953-3.2891 1.75-3.2539 5.8906h-1.5898l1.0156 1.9531h1.6133c0.27734 0 0.54297-0.11719 0.73047-0.32812 0.18359-0.20703 0.27344-0.48438 0.24219-0.76172-0.44141-3.875 1.9766-4.9492 2.0703-4.9883 0.058594-0.023438 0.11328-0.050782 0.16406-0.082032l5.7422-3.6484c0.875-0.5625 1.8906-0.86328 2.9492-0.86328 1.5078 0 2.9727 0.63672 4.0156 1.7461 0.95312 1.0234 2.3008 1.6094 3.6992 1.6094h7.6523c0.12109 0.050782 0.25 0.082032 0.38281 0.082032 0.089844 0 0.17578-0.019532 0.26172-0.042969 0.46484 0.082031 0.875 0.33203 1.1602 0.73828 0.21875 0.30078 0.33594 0.66016 0.33594 1.043 0 0.48828-0.1875 0.94531-0.53125 1.2891s-0.80078 0.53125-1.2891 0.53125h-9.75c-0.53906 0-0.97656 0.4375-0.97656 0.97656 0 0.53906 0.4375 0.97656 0.97656 0.97656h19.016c0.21875 0 0.42969-0.074218 0.60156-0.20703l13.477-10.59c0.85547-0.67188 2.0859-0.59375 2.8555 0.17969 0.40625 0.40625 0.63281 0.94922 0.63281 1.5234 0 0.66797-0.30469 1.2891-0.83203 1.6992l-17.082 13.273h-19.797c-0.125 0-0.25 0.023438-0.36719 0.070313l-13.008 5.2891 0.90625 1.7383 12.66-5.1484h19.941c0.21875 0 0.42969-0.074219 0.59766-0.20703l17.336-13.477c1.0078-0.78516 1.5859-1.9648 1.5859-3.2422 0-1.0938-0.42969-2.125-1.2031-2.9023zm-20.457 1.2031c0.85547-0.66797 2.0859-0.59375 2.8555 0.17969 0.40625 0.40625 0.63281 0.94922 0.63281 1.5234 0 0.039063-0.011718 0.074219-0.011718 0.11328l-6.8398 5.375c0.003906-0.054688 0.011718-0.10938 0.011718-0.16406 0-0.80078-0.24609-1.5625-0.70312-2.1836-0.25781-0.36328-0.57422-0.67578-0.92969-0.92188z"/>
 <path d="m63.277 37.965c2.3516 0 4.5625-0.91797 6.2266-2.5781 1.6641-1.6641 2.5781-3.875 2.5781-6.2266 0-2.3516-0.91406-4.5625-2.5781-6.2266-1.6641-1.6641-3.875-2.5781-6.2266-2.5781-2.3516 0-4.5625 0.91406-6.2266 2.5781-3.4336 3.4336-3.4336 9.0195 0 12.453 1.6641 1.6641 3.875 2.5781 6.2266 2.5781zm-4.8438-13.648c1.293-1.293 3.0156-2.0078 4.8438-2.0078 1.832 0 3.5508 0.71484 4.8438 2.0078 1.293 1.293 2.0078 3.0156 2.0078 4.8438 0 1.832-0.71094 3.5508-2.0078 4.8438-1.293 1.293-3.0156 2.0078-4.8477 2.0078-1.832 0-3.5508-0.71094-4.8438-2.0078-2.668-2.6719-2.668-7.0195 0.003906-9.6875z"/>
 <path d="m46.266 32.344 3.1914 0.79688c0.29688 1.0352 0.71094 2.0352 1.2305 2.9766l-1.6914 2.8203c-0.23047 0.38281-0.17188 0.875 0.14844 1.1914l3.1641 3.1641c0.31641 0.31641 0.80859 0.37891 1.1914 0.14844l2.8203-1.6914c0.94141 0.51953 1.9414 0.93359 2.9766 1.2344l0.79688 3.1914c0.10938 0.43359 0.5 0.73828 0.94922 0.73828h4.4727c0.44922 0 0.83984-0.30469 0.94922-0.73828l0.79688-3.1914c1.0391-0.29688 2.0352-0.71094 2.9766-1.2305l2.8203 1.6914c0.38281 0.23047 0.875 0.17188 1.1914-0.14844l3.1641-3.1641c0.31641-0.31641 0.37891-0.80859 0.14844-1.1914l-1.6914-2.8203c0.51953-0.94141 0.93359-1.9375 1.2305-2.9766l3.1914-0.79688c0.43359-0.10938 0.73828-0.5 0.73828-0.94531v-4.4727c0-0.44922-0.30469-0.83984-0.73828-0.94922l-3.1914-0.79688c-0.29687-1.0391-0.71094-2.0352-1.2344-2.9766l1.6914-2.8203c0.23047-0.38281 0.17188-0.875-0.14844-1.1914l-3.1641-3.1641c-0.31641-0.31641-0.80859-0.375-1.1914-0.14844l-2.8203 1.6914c-0.94141-0.51953-1.9375-0.93359-2.9766-1.2305l-0.79687-3.1914c-0.10938-0.43359-0.5-0.73828-0.94531-0.73828h-4.4727c-0.44922 0-0.83984 0.30469-0.94922 0.73828l-0.79688 3.1914c-1.0391 0.29688-2.0352 0.71094-2.9766 1.2305l-2.8203-1.6914c-0.38281-0.23047-0.875-0.16797-1.1914 0.14844l-3.1641 3.1641c-0.31641 0.31641-0.37891 0.80859-0.14844 1.1914l1.6914 2.8203c-0.51953 0.94141-0.93359 1.9414-1.2344 2.9805l-3.1914 0.79688c-0.43359 0.10938-0.73828 0.5-0.73828 0.94922v4.4727c0 0.4375 0.30469 0.82812 0.74219 0.9375zm1.2109-4.6602 3.0078-0.75c0.35156-0.089844 0.625-0.36328 0.71094-0.71484 0.30078-1.2461 0.79297-2.4297 1.457-3.5156 0.1875-0.30859 0.19141-0.69922 0.003906-1.0117l-1.5938-2.6602 2.0859-2.0859 2.6602 1.5938c0.3125 0.1875 0.69922 0.1875 1.0117-0.003906 1.0898-0.66406 2.2734-1.1523 3.5156-1.457 0.35156-0.085937 0.62891-0.35938 0.71484-0.71094l0.75391-3.0117h2.9492l0.75391 3.0117c0.085938 0.35156 0.36328 0.625 0.71484 0.71094 1.2461 0.30469 2.4258 0.79297 3.5156 1.457 0.30859 0.1875 0.69922 0.19141 1.0117 0.003906l2.6602-1.5938 2.0859 2.0859-1.5938 2.6602c-0.1875 0.3125-0.18359 0.69922 0.003906 1.0117 0.66406 1.0898 1.1523 2.2695 1.457 3.5156 0.085938 0.35156 0.35938 0.62891 0.71094 0.71484l3.0117 0.75391v2.9492l-3.0117 0.75391c-0.35156 0.085937-0.625 0.36328-0.71094 0.71484-0.30469 1.2461-0.79297 2.4297-1.457 3.5156-0.1875 0.30859-0.19141 0.69922-0.003906 1.0117l1.5938 2.6602-2.0859 2.0859-2.6602-1.5938c-0.30859-0.1875-0.69922-0.18359-1.0117 0.003906-1.0859 0.66406-2.2695 1.1523-3.5156 1.457-0.35156 0.085937-0.62891 0.35938-0.71484 0.71094l-0.75 3.0117h-2.9492l-0.75391-3.0117c-0.089844-0.35156-0.36328-0.625-0.71484-0.71094-1.2422-0.30078-2.4258-0.79297-3.5156-1.457-0.30859-0.1875-0.69922-0.1875-1.0117-0.003906l-2.6602 1.5938-2.0859-2.0859 1.5938-2.6602c0.1875-0.3125 0.18359-0.69922-0.003906-1.0117-0.66406-1.0898-1.1523-2.2734-1.4531-3.5156-0.085937-0.35156-0.35938-0.62891-0.71094-0.71875l-3.0117-0.75391z"/>
<text fill="#000000" font-family="Arbeit Regular, Helvetica, Arial-Unicode, Arial, Sans-serif" font-weight="bold" font-size="5.0" y="117.5" x="0.0">Created by verry poernomo</text><text fill="#000000" font-family="Arbeit Regular, Helvetica, Arial-Unicode, Arial, Sans-serif" font-weight="bold" font-size="5.0" y="122.5" x="0.0">from Noun Project</text></svg>