<svg xml:space="preserve" viewBox="0 3 99.25 95.25" y="0px" x="0px" version="1.0" xmlns:xlink="http://www.w3.org/1999/xlink" xmlns="http://www.w3.org/2000/svg" style="max-height: 500px" width="99.25" height="95.25"><path d="M74.817,63.894l-1.881-2.826l-1.68,0.437C62.321,63.821,52.92,65,43.312,65c-9.572,0-18.958-1.179-27.9-3.496l-1.681-0.437  l-1.881,2.826C10.832,65.417,10,68.164,10,70v20h6.667L20,83.333h46.667L70,90h6.667V70C76.667,68.164,75.833,65.417,74.817,63.894z   M26.667,76.667h-8.333v-5h8.333V76.667z M53.333,76.667h-20v-5h20V76.667z M68.333,76.667H60v-5h8.333V76.667z"/><path d="M44.22,36.699c-7.218-0.072-14.326,0.768-20.887,2.467L19.206,50H10v5l6.667,1.667c17.778,4.609,36.849,4.277,53.333,0  C57.614,56.667,47.204,48.164,44.22,36.699z"/><path d="M70,10c-11.048,0-20,8.952-20,20s8.952,20,20,20s20-8.952,20-20S81.048,10,70,10z M80,32.5h-7.5V40h-5v-7.5H60v-5h7.5V20h5  v7.5H80V32.5z"/><text font-family="'Helvetica Neue', Helvetica, Arial-Unicode, Arial, Sans-serif" font-weight="bold" font-size="5px" fill="#000000" y="115" x="0">Created by Danil Polshin</text><text font-family="'Helvetica Neue', Helvetica, Arial-Unicode, Arial, Sans-serif" font-weight="bold" font-size="5px" fill="currentColor" y="120" x="0">from the Noun Project</text></svg>