<svg xml:space="preserve" style="max-height: 500px" viewBox="1.7500000000000002 0.5 96.5 100.75" y="0px" x="0px" version="1.1" xmlns:xlink="http://www.w3.org/1999/xlink" xmlns="http://www.w3.org/2000/svg" width="96.5" height="100.75"><path d="M64.8837357,17.5039692v37.573143h4.4548798v-37.573143c0-4.3962097-3.5765533-7.9727602-7.9725609-7.9727602h-8.7197189  v4.4548836h8.7197189C63.3056564,13.9860926,64.8837357,15.5641689,64.8837357,17.5039692z"/><path d="M9.1105633,83.1798172V17.5039692c0-1.9398003,1.5780764-3.5178766,3.518074-3.5178766h8.7197189V9.531209h-8.7197189  c-4.3964071,0-7.9729576,3.5765505-7.9729576,7.9727602v65.6758499c0,4.396019,3.5765505,7.9725647,7.9729576,7.9725647h26.9316502  l0.0004921-4.4548798H12.6286373C10.6886396,86.6975021,9.1105633,85.1194229,9.1105633,83.1798172z"/><path d="M36.194603,69.9738083c0-2.4046478,1.9565926-4.3610458,4.3612404-4.3610458h1.7258492  c0.4938889,0,0.9747391,0.0910721,1.4224014,0.2597885l2.4125519-5.4738808  c1.2449951-3.2339859,4.142746-5.3215599,7.39254-5.3215599h9.7547379V17.5021915  c0-1.0436878-0.8496628-1.8975239-1.8975487-1.8975239h-8.7190285v0.3075943c0,0.2830982-0.0606728,0.5541439-0.1618233,0.8010883  c-0.3155937,0.7404404-1.0479088,1.258234-1.8975487,1.258234H23.4073315c-1.1328583,0-2.0593948-0.9223881-2.0593948-2.0593224  v-0.3075943h-8.7190027c-1.0479107,0-1.901598,0.8538361-1.901598,1.8975239v65.6778259  c0,1.0480347,0.8536873,1.8975296,1.901598,1.8975296h26.932045l0.00037-3.3740616  c0.0003967-1.7205124,0.2457581-4.3956146,0.7839012-6.2044373l0.0940361-0.2633438l0.3761482-0.90065h-0.2595901  C38.1511955,74.3350525,36.194603,72.3784561,36.194603,69.9738083z M35.6301117,30.8822517h20.3915634  c0.4450417,0,0.8091888,0.3640957,0.8091888,0.8091888c0,0.4490433-0.3641472,0.8091888-0.8091888,0.8091888H35.6301117  c-0.4490929,0-0.8091888-0.3601456-0.8091888-0.8091888C34.8209229,31.2463474,35.1810188,30.8822517,35.6301117,30.8822517z   M24.2448463,24.6110401c1.0398102,0,2.0391464,0.2224483,2.9737568,0.6513405  c0.4045944,0.1900501,0.5826168,0.67169,0.3924694,1.0762844c-0.186121,0.4045944-0.6675892,0.582592-1.0721836,0.3923454  c-0.72019-0.3316956-1.4929543-0.5015926-2.2940426-0.5015926c-3.0101833,0-5.4620247,2.4518642-5.4620247,5.4620228  c0,3.0141106,2.4518414,5.4659729,5.4620247,5.4659729c3.0142078,0,5.4660721-2.4518623,5.4660721-5.4659729  c0-0.1821461-0.0121498-0.3682442-0.0283241-0.5584908c-0.0445251-0.4409447,0.279171-0.8374386,0.7242146-0.8818893  c0.4490948-0.0446472,0.8415642,0.2791462,0.8860626,0.7242393c0.0242748,0.2386475,0.0364246,0.4814434,0.0364246,0.7161407  c0,3.9042969-3.18013,7.0843506-7.0844498,7.0843506c-3.9043465,0-7.0804005-3.1800537-7.0804005-7.0843506  S20.3404999,24.6110401,24.2448463,24.6110401z M24.2448463,44.7961082c1.0398102,0,2.0391464,0.2226448,2.9737568,0.6554909  c0.4045944,0.1860962,0.5826168,0.6675415,0.3924694,1.0721359c-0.186121,0.4045944-0.6675892,0.5827866-1.0721836,0.396492  c-0.72019-0.3356476-1.4929543-0.5057411-2.2940426-0.5057411c-3.0101833,0-5.4620247,2.4518661-5.4620247,5.4661713  c0,3.0101585,2.4518414,5.4620247,5.4620247,5.4620247c3.0142078,0,5.4660721-2.4518661,5.4660721-5.4620247  c0-0.1860962-0.0121498-0.3721962-0.0283241-0.5582924c-0.0445251-0.4450951,0.279171-0.8415871,0.7242146-0.8862343  c0.4490948-0.0444527,0.8415642,0.2793427,0.8860626,0.7242393c0.0242748,0.238842,0.0364246,0.4816399,0.0364246,0.7202873  c0,3.9042969-3.18013,7.0804024-7.0844498,7.0804024c-3.9043465,0-7.0804005-3.1761055-7.0804005-7.0804024  S20.3404999,44.7961082,24.2448463,44.7961082z M24.2448463,79.1461258c-3.9043465,0-7.0804005-3.1759033-7.0804005-7.0803986  c0-3.9042969,3.176054-7.0803986,7.0804005-7.0803986c1.0398102,0,2.0391464,0.2184906,2.9737568,0.651535  c0.4045944,0.1860962,0.5826168,0.6675415,0.3924694,1.0721359c-0.186121,0.4087448-0.6675892,0.5825882-1.0721836,0.396492  c-0.72019-0.3358459-1.4929543-0.5017929-2.2940426-0.5017929c-3.0101833,0-5.4620247,2.4479141-5.4620247,5.4620285  c0,3.0103531,2.4518414,5.4620209,5.4620247,5.4620209c3.0142078,0,5.4660721-2.4516678,5.4660721-5.4620209  c0-0.1860962-0.0121498-0.3722-0.0283241-0.5582962c-0.0445251-0.4448929,0.279171-0.8415833,0.7242146-0.8860397  c0.4490948-0.0444489,0.8415642,0.2791519,0.8860626,0.7242432c0.0242748,0.2388458,0.0364246,0.4814453,0.0364246,0.7200928  C31.3292961,75.9702225,28.1491661,79.1461258,24.2448463,79.1461258z M32.0292358,67.3200378  c-2.8119354,1.8570251-5.2030773,4.369545-6.9185772,7.2665024l-0.1699219,0.2830963  c-0.145649,0.2467422-0.4086456,0.4006424-0.6958904,0.4006424c0,0,0,0-0.0040512,0  c-0.2872696-0.0041504-0.5502415-0.1578445-0.6959152-0.4087448l-0.1132736-0.1981506  c-0.6999397-1.2098312-1.6790752-2.2657623-2.8402596-3.0506516c-0.3681698-0.2509003-0.4652691-0.7524948-0.2144222-1.1248856  c0.2508469-0.368042,0.7525406-0.4652405,1.1207104-0.2143478c1.0600338,0.7119904,1.9906216,1.6223297,2.7350616,2.6581116  c1.7923489-2.7592621,4.16329-5.1504745,6.9023781-6.9630508c0.3762684-0.2427979,0.8779602-0.1416473,1.1207352,0.230545  C32.5026054,66.5715027,32.4014549,67.0730972,32.0292358,67.3200378z M32.0292358,47.1347733  c-2.8119354,1.8570251-5.2030773,4.3695412-6.9185772,7.2664986l-0.1699219,0.2830963  c-0.145649,0.2469444-0.4086456,0.3966942-0.6958904,0.3966942c0,0,0,0-0.0040512,0  c-0.2872696,0-0.5502415-0.1538963-0.6959152-0.4045944l-0.1132736-0.1983452  c-0.6999397-1.2137833-1.6790752-2.26577-2.8402596-3.0506592c-0.3681698-0.2508965-0.4652691-0.7566376-0.2144222-1.1246834  c0.2508469-0.3682442,0.7525406-0.4652443,1.1207104-0.2145462c1.0600338,0.7121887,1.9906216,1.6225243,2.7350616,2.6581116  c1.7923489-2.7592621,4.16329-5.15028,6.9023781-6.9630508c0.3762684-0.2467461,0.8779602-0.141449,1.1207352,0.2307434  C32.5026054,46.3862343,32.4014549,46.8880272,32.0292358,47.1347733z M32.0292358,26.9495087  c-2.8119354,1.8570232-5.2030773,4.3695393-6.9185772,7.2664986l-0.1699219,0.2832947  c-0.145649,0.2467461-0.4086456,0.396492-0.6958904,0.396492c0,0,0,0-0.0040512,0  c-0.2872696,0-0.5502415-0.1538925-0.6959152-0.4045906l-0.1132736-0.198349  c-0.6999397-1.2137833-1.6790752-2.2697182-2.8402596-3.0506554c-0.3681698-0.2506981-0.4652691-0.7564411-0.2144222-1.1246853  c0.2508469-0.3721962,0.7525406-0.4693928,1.1207104-0.2184963c1.0600338,0.7161388,1.9906216,1.6223278,2.7350616,2.6581116  c1.7923489-2.7553101,4.16329-5.146328,6.9023781-6.9589024c0.3762684-0.2469444,0.8779602-0.1416473,1.1207352,0.230547  C32.5026054,26.2009697,32.4014549,26.7027607,32.0292358,26.9495087z M34.8209229,51.8806572  c0-0.4492416,0.360096-0.8091888,0.8091888-0.8091888h20.3915634c0.4450417,0,0.8091888,0.3599472,0.8091888,0.8091888  c0,0.4450951-0.3641472,0.8091888-0.8091888,0.8091888H35.6301117  C35.1810188,52.689846,34.8209229,52.3257523,34.8209229,51.8806572z"/><path d="M23.4073315,16.3532066h27.1765957c0.0040474,0,0.0040474,0,0.0080986,0  c0.1820717-0.0041485,0.3357964-0.1131992,0.4005432-0.2670956c0.0242767-0.0525494,0.0363998-0.1131992,0.0363998-0.1738491  V7.6058302c0-0.2467475-0.198246-0.4450932-0.4450417-0.4450932h-9.0224495V7.0637369  c0-2.5166636-2.047245-4.5637369-4.5638351-4.5637369c-2.5165672,0-4.5638123,2.0470734-4.5638123,4.5637369V7.160737h-9.0264988  c-0.2427711,0-0.4410172,0.1983457-0.4410172,0.4450932v8.3064318  C22.9663143,16.1550579,23.1645603,16.3532066,23.4073315,16.3532066z M36.9976425,5.1863642  c0.6878128,0,1.2461548,0.5543413,1.2461548,1.2422309c0,0.2749977-0.0889969,0.5258937-0.2386971,0.732142  c-0.226593,0.3115454-0.5947647,0.5138426-1.0074577,0.5138426c-0.4126701,0-0.7808647-0.2022972-1.0074387-0.5138426  c-0.1496964-0.2062483-0.2386932-0.4571443-0.2386932-0.732142C35.7515106,5.7407055,36.3098526,5.1863642,36.9976425,5.1863642z"/><path d="M93.6130905,68.2425995h-1.7258453c-0.6104507,0-1.137825,0.3822708-1.3446655,0.9296265  c-0.0836182,0.2212143-0.2618103,0.403801-0.4966049,0.431633c-0.0394363,0.0046692-0.0792236,0.0070877-0.1195755,0.0071335  c-0.3973083,0.0102997-0.7965393-0.246376-0.9649353-0.6285477L85.6281281,61.41959  c-0.0072098-0.016716-0.0144196-0.0336838-0.0204926-0.0506706c-0.8456879-2.2246056-2.78759-3.661972-4.9477158-3.661972  H67.0844803H53.509037c-2.1601257,0-4.1020241,1.4373665-4.9476891,3.661972  c-0.0060997,0.0169868-0.0133095,0.0339546-0.0205193,0.0506706l-3.3333359,7.5628548  c-0.1683922,0.3821716-0.567627,0.6388474-0.9649353,0.6285477c-0.0403519-0.0000458-0.0801353-0.0024643-0.1195717-0.0071335  c-0.2347946-0.027832-0.4129906-0.2104187-0.4966049-0.431633c-0.2068405-0.5473557-0.7342186-0.9296265-1.3446655-0.9296265  h-1.7258453c-0.9561234,0-1.7312317,0.7750854-1.7312317,1.7312317v0.0000229c0,0.9561462,0.7751083,1.7312546,1.7312317,1.7312546  h2.2453423c0.5313263,0,1.025341,0.3262177,1.1861763,0.83255c0.0018997,0.0058594,0.0037308,0.0117569,0.0055313,0.017662  c0.0967026,0.3179398,0.0667267,0.6613388-0.0512886,0.9720001l-0.6140556,1.6166229l-0.461441,1.1051025  c-0.4428444,1.4888-0.6745796,3.8615494-0.6750221,5.4547577l-0.0014801,14.1046219  c0,0.9341965,0.757206,1.6915741,1.6914711,1.6915741h2.81633c0.934269,0,1.6916733-0.7574005,1.6916733-1.6916962v-1.3985672  c0-0.5817795,0.4715881-1.0533981,1.0534172-1.0533981h17.6419563h17.6419525c0.5818329,0,1.053421,0.4716187,1.053421,1.0533981  v1.3985672c0,0.9342957,0.7574005,1.6916962,1.6916962,1.6916962h2.8163071c0.9342651,0,1.6914673-0.7573776,1.6914673-1.6915741  L91.9778671,81.703804c-0.0004654-1.5932083-0.2322006-3.9659576-0.6750412-5.4547577l-0.461441-1.1051025l-0.6140594-1.6166229  c-0.1179886-0.3106613-0.147995-0.6540604-0.0512619-0.9720001c0.0018005-0.0059052,0.0036011-0.0118027,0.0055084-0.017662  c0.1608353-0.5063324,0.6548462-0.83255,1.1861725-0.83255h2.2453461c0.9561157,0,1.7312317-0.7751083,1.7312317-1.7312546  v-0.0000229C95.3443222,69.0176849,94.5692062,68.2425995,93.6130905,68.2425995z M46.8451805,72.3343506l3.3806763-8.8933449  c0.7046814-2.0818672,2.3672867-3.4487572,4.2242126-3.4487572h12.6344109h12.634407  c1.856926,0,3.5195312,1.36689,4.2242126,3.4487572l3.3806763,8.8933449  c0.2072601,0.5451355-0.1955566,1.1289368-0.7784958,1.1289368H67.0844803H47.6236992  C47.0407372,73.4632874,46.6379204,72.8794861,46.8451805,72.3343506z M53.5697861,89.7081528h-4.2539482  c-2.2119827,0-4.0116425-1.7996597-4.0116425-4.0118637v-3.0595016c0-0.5502625,0.446106-0.9963989,0.996376-0.9963989h3.2604103  c3.3296051,0,6.0382919,2.7089386,6.0382919,6.0384674C55.5992737,88.7978668,54.6887894,89.7081528,53.5697861,89.7081528z   M75.5688629,87.0797958c0,1.4493637-1.0937729,2.6283569-2.4380875,2.6283569h-6.0462952h-6.0462952  c-1.3443184,0-2.4380608-1.1789932-2.4380608-2.6283569v-2.8108749c0-1.4493408,1.0937424-2.6285324,2.4380608-2.6285324h6.0462952  h6.0462952c1.3443146,0,2.4380875,1.1791916,2.4380875,2.6285324V87.0797958z M88.8647614,85.6962891  c0,2.212204-1.7996597,4.0118637-4.0116196,4.0118637h-4.2539673c-1.1190033,0-2.0294952-0.9102859-2.0294952-2.0292969  c0-3.3295288,2.7086945-6.0384674,6.0382996-6.0384674h3.2604065c0.5502701,0,0.996376,0.4461365,0.996376,0.9963989V85.6962891z"/><path d="M67.5147095,64.3966064l0.4824295-0.4632645l-0.5978088,0.2998886  c-2.5646667,1.2868805-4.9053078,2.9412079-6.9567261,4.9169693l-0.4776917,0.4601059l0.5934601-0.29673  C63.1044693,68.0395355,65.4447174,66.3852081,67.5147095,64.3966064z"/><path d="M66.1764603,69.5190353l0.5934601-0.29673c2.5464935-1.2746277,4.8871384-2.9289627,6.9559402-4.9169693  l0.4820404-0.4630699l-0.5974121,0.2996941c-2.5638809,1.2866821-4.904129,2.9408112-6.956337,4.9167709L66.1764603,69.5190353z"/><text font-family="'Helvetica Neue', Helvetica, Arial-Unicode, Arial, Sans-serif" font-weight="bold" font-size="5px" fill="#000000" y="115" x="0">Created by Arif Arisandi</text><text font-family="'Helvetica Neue', Helvetica, Arial-Unicode, Arial, Sans-serif" font-weight="bold" font-size="5px" fill="#000000" y="120" x="0">from the Noun Project</text></svg>