<svg y="0px" x="0px" version="1.1" viewBox="0 0 55.14511873350923 58.145" xmlns:xlink="http://www.w3.org/1999/xlink" xmlns="http://www.w3.org/2000/svg" style="max-height: 500px" width="55.14511873350923" height="58.145"><title>111 -Add Car Details- (Outline)</title><desc>Created with Sketch.</desc><g fill-rule="evenodd" fill="none" stroke-width="1" stroke="none"><g fill="#000000" transform="translate(-125.000000, -1724.000000)"><g transform="translate(125.000000, 1724.000000)"><path d="M11,21.5615 L11,25.4385 C11,25.7485 11.252,25.9995 11.562,25.9995 L13.127,25.9995 C13.162,25.8635 13.216,25.7355 13.265,25.6055 C13.289,25.5415 13.305,25.4745 13.332,25.4125 C13.428,25.1925 13.541,24.9825 13.673,24.7845 C13.703,24.7405 13.74,24.7025 13.771,24.6595 C13.88,24.5085 13.996,24.3645 14.125,24.2305 C14.184,24.1695 14.248,24.1165 14.31,24.0595 C14.425,23.9545 14.542,23.8545 14.669,23.7635 C14.743,23.7095 14.819,23.6605 14.897,23.6125 C15.026,23.5315 15.159,23.4605 15.297,23.3945 C15.38,23.3555 15.461,23.3165 15.546,23.2835 C15.699,23.2235 15.857,23.1775 16.019,23.1355 C16.097,23.1165 16.171,23.0905 16.25,23.0755 C16.494,23.0295 16.743,22.9995 17,22.9995 C17.257,22.9995 17.506,23.0295 17.75,23.0755 C17.829,23.0905 17.903,23.1165 17.981,23.1355 C18.143,23.1775 18.301,23.2235 18.454,23.2835 C18.539,23.3165 18.62,23.3555 18.703,23.3945 C18.841,23.4605 18.974,23.5315 19.103,23.6125 C19.181,23.6605 19.257,23.7095 19.331,23.7635 C19.458,23.8545 19.575,23.9545 19.69,24.0595 C19.752,24.1165 19.816,24.1695 19.875,24.2305 C20.004,24.3645 20.12,24.5085 20.229,24.6595 C20.26,24.7025 20.297,24.7405 20.327,24.7845 C20.459,24.9825 20.572,25.1925 20.668,25.4125 C20.695,25.4745 20.711,25.5415 20.735,25.6055 C20.784,25.7355 20.838,25.8635 20.873,25.9995 L29.127,25.9995 C29.162,25.8635 29.216,25.7355 29.265,25.6055 C29.289,25.5415 29.305,25.4745 29.332,25.4125 C29.428,25.1925 29.541,24.9825 29.673,24.7845 C29.703,24.7405 29.74,24.7025 29.771,24.6595 C29.88,24.5085 29.996,24.3645 30.125,24.2305 C30.184,24.1695 30.248,24.1165 30.31,24.0595 C30.425,23.9545 30.542,23.8545 30.669,23.7635 C30.743,23.7095 30.819,23.6605 30.897,23.6125 C31.026,23.5315 31.159,23.4605 31.297,23.3945 C31.38,23.3555 31.461,23.3165 31.546,23.2835 C31.699,23.2235 31.857,23.1775 32.019,23.1355 C32.097,23.1165 32.171,23.0905 32.25,23.0755 C32.494,23.0295 32.743,22.9995 33,22.9995 C33.257,22.9995 33.506,23.0295 33.75,23.0755 C33.829,23.0905 33.903,23.1165 33.981,23.1355 C34.143,23.1775 34.301,23.2235 34.454,23.2835 C34.539,23.3165 34.62,23.3555 34.703,23.3945 C34.841,23.4605 34.974,23.5315 35.103,23.6125 C35.181,23.6605 35.257,23.7095 35.331,23.7635 C35.458,23.8545 35.575,23.9545 35.69,24.0595 C35.752,24.1165 35.816,24.1695 35.875,24.2305 C36.004,24.3645 36.12,24.5085 36.229,24.6595 C36.26,24.7025 36.297,24.7405 36.327,24.7845 C36.459,24.9825 36.572,25.1925 36.668,25.4125 C36.695,25.4745 36.711,25.5415 36.735,25.6055 C36.784,25.7355 36.838,25.8635 36.873,25.9995 L38.438,25.9995 C38.748,25.9995 39,25.7485 39,25.4385 L39,21.5615 C39,21.2515 38.748,20.9995 38.438,20.9995 L36,20.9995 L14,20.9995 L11.562,20.9995 C11.252,20.9995 11,21.2515 11,21.5615"/><path d="M30.876,14.5459 C30.632,14.2039 30.234,13.9999 29.814,13.9999 L26,13.9999 L26,18.9999 L34.057,18.9999 L30.876,14.5459 Z"/><path d="M24,14 L20.187,14 C19.766,14 19.368,14.204 19.124,14.546 L15.943,19 L24,19 L24,14 Z"/><path d="M17,25 C15.897,25 15,25.897 15,27 C15,28.103 15.897,29 17,29 C18.103,29 19,28.103 19,27 C19,25.897 18.103,25 17,25"/><path d="M33,25 C31.897,25 31,25.897 31,27 C31,28.103 31.897,29 33,29 C34.103,29 35,28.103 35,27 C35,25.897 34.103,25 33,25"/><path d="M32,0 L18,0 L18,5 L18,6 L31.999,6 L32,0 Z"/><path d="M46,6 L46,30.558 C47.431,30.955 48.774,31.557 50,32.333 L50,3 C50,1.346 48.654,0 47,0 L34,0 L34,4 L44,4 C45.103,4 46,4.897 46,6"/><path d="M30.0284,54 L6.0004,54 C4.8974,54 4.0004,53.103 4.0004,52 L4.0004,6 C4.0004,4.897 4.8974,4 6.0004,4 L16.0004,4 L16.0004,0 L3.0004,0 C1.3454,0 0.0004,1.346 0.0004,3 L0.0004,55 C0.0004,56.654 1.3454,58 3.0004,58 L34.5484,58 C32.7834,56.984 31.2484,55.619 30.0284,54"/><path d="M17.4971,13.3838 C18.1161,12.5178 19.1211,11.9998 20.1861,11.9998 L29.8131,11.9998 C30.8791,11.9998 31.8841,12.5178 32.5031,13.3838 L36.5141,18.9998 L38.4381,18.9998 C39.8511,18.9998 41.0001,20.1498 41.0001,21.5618 L41.0001,25.4388 C41.0001,26.8508 39.8511,27.9998 38.4381,27.9998 L36.8581,27.9998 C36.4111,29.7208 34.8591,30.9998 33.0001,30.9998 C31.1411,30.9998 29.5891,29.7208 29.1421,27.9998 L20.8581,27.9998 C20.4111,29.7208 18.8591,30.9998 17.0001,30.9998 C15.1411,30.9998 13.5891,29.7208 13.1421,27.9998 L11.5611,27.9998 C10.1491,27.9998 9.0001,26.8508 9.0001,25.4388 L9.0001,21.5618 C9.0001,20.1498 10.1491,18.9998 11.5611,18.9998 L13.4861,18.9998 L17.4971,13.3838 Z M25.0001,37.9998 L10.0001,37.9998 C9.4471,37.9998 9.0001,37.5528 9.0001,36.9998 C9.0001,36.4468 9.4471,35.9998 10.0001,35.9998 L25.0001,35.9998 C25.5531,35.9998 26.0001,36.4468 26.0001,36.9998 C26.0001,37.5528 25.5531,37.9998 25.0001,37.9998 L25.0001,37.9998 Z M25.0001,42.9998 L10.0001,42.9998 C9.4471,42.9998 9.0001,42.5528 9.0001,41.9998 C9.0001,41.4468 9.4471,40.9998 10.0001,40.9998 L25.0001,40.9998 C25.5531,40.9998 26.0001,41.4468 26.0001,41.9998 C26.0001,42.5528 25.5531,42.9998 25.0001,42.9998 L25.0001,42.9998 Z M25.0001,47.9998 L10.0001,47.9998 C9.4471,47.9998 9.0001,47.5528 9.0001,46.9998 C9.0001,46.4468 9.4471,45.9998 10.0001,45.9998 L25.0001,45.9998 C25.5531,45.9998 26.0001,46.4468 26.0001,46.9998 C26.0001,47.5528 25.5531,47.9998 25.0001,47.9998 L25.0001,47.9998 Z M6.0001,5.9998 L6.0001,51.9998 L28.7431,51.9998 C27.6351,49.9088 27.0001,47.5278 27.0001,44.9998 C27.0001,36.7288 33.7291,29.9998 42.0001,29.9998 C42.6801,29.9998 43.3441,30.0608 44.0001,30.1498 L44.0001,5.9998 L34.0001,5.9998 C34.0001,7.1028 33.1021,7.9998 32.0001,7.9998 L18.0001,7.9998 C16.8971,7.9998 16.0001,7.1028 16.0001,5.9998 L6.0001,5.9998 Z"/><path d="M48,46 L43,46 L43,51 C43,51.553 42.552,52 42,52 C41.448,52 41,51.553 41,51 L41,46 L36,46 C35.448,46 35,45.553 35,45 C35,44.447 35.448,44 36,44 L41,44 L41,39 C41,38.447 41.448,38 42,38 C42.552,38 43,38.447 43,39 L43,44 L48,44 C48.552,44 49,44.447 49,45 C49,45.553 48.552,46 48,46 M42,32 C34.832,32 29,37.832 29,45 C29,52.168 34.832,58 42,58 C49.168,58 55,52.168 55,45 C55,37.832 49.168,32 42,32"/></g></g></g><text font-family="'Helvetica Neue', Helvetica, Arial-Unicode, Arial, Sans-serif" font-weight="bold" font-size="5px" fill="#000000" y="73" x="0">Created by Smashicons</text><text font-family="'Helvetica Neue', Helvetica, Arial-Unicode, Arial, Sans-serif" font-weight="bold" font-size="5px" fill="#000000" y="78" x="0">from the Noun Project</text></svg>