<svg xml:space="preserve" style="max-height: 500px" viewBox="0 4.75 100.49999999999999 91.5" y="0px" x="0px" version="1.1" xmlns:xlink="http://www.w3.org/1999/xlink" xmlns="http://www.w3.org/2000/svg" width="100.49999999999999" height="91.5"><path d="M96.0805283,75.8052826l-37.055481-62.3076477c-1.9071312-3.213995-5.3680573-5.1838341-9.1056633-5.1838341  c-3.7376099,0-7.1984444,1.9697466-9.1056633,5.1838341L3.9185569,75.8052826  c-1.8835053,3.2611847-1.8917675,7.2786026-0.0224507,10.5482559c1.8693218,3.2696457,5.3350806,5.3005905,9.1008263,5.3326569  h74.1109695c3.7469864-0.0685349,7.1793823-2.1139221,9.0227814-5.3774261  c1.843338-3.2636108,1.8243942-7.257431-0.0496292-10.5034866H96.0805283z M50.0530815,81.0989227  c-1.4037514,0-2.7508202-0.5577469-3.7433624-1.5502853c-0.9925385-0.9925385-1.5502777-2.3396072-1.5502777-3.7433548  c0-1.4037552,0.5577393-2.750824,1.5502777-3.7433624c0.9925423-0.9925385,2.3396111-1.5502777,3.7433624-1.5502777  s2.7508202,0.5577393,3.7433586,1.5502777s1.5502815,2.3396072,1.5502815,3.7433624  c0,1.4037476-0.5577431,2.7508163-1.5502815,3.7433548S51.4568329,81.0989227,50.0530815,81.0989227z M55.3467216,57.2775421  c0,1.8917656-1.0090904,3.6393051-2.6468201,4.5845947c-1.6377296,0.9452934-3.655941,0.9452934-5.2936401,0  c-1.6377029-0.9452896-2.6468201-2.692894-2.6468201-4.5845947V36.1029854c0-1.8917656,1.0090904-3.6393013,2.6468201-4.5845947  s3.6559372-0.9452934,5.2936401,0c1.6376991,0.9452934,2.6468201,2.6928902,2.6468201,4.5845947V57.2775421z"/><text font-family="'Helvetica Neue', Helvetica, Arial-Unicode, Arial, Sans-serif" font-weight="bold" font-size="5px" fill="#000000" y="115" x="0">Created by sylvia murphy</text><text font-family="'Helvetica Neue', Helvetica, Arial-Unicode, Arial, Sans-serif" font-weight="bold" font-size="5px" fill="#000000" y="120" x="0">from the Noun Project</text></svg>