<svg y="0px" x="0px" viewBox="2 0.96 28.16 29.92" xmlns="http://www.w3.org/2000/svg" style="max-height: 500px" width="28.16" height="29.92"><title>Artboard 44</title><g data-name="Layer 2"><path d="M28.414,9,22,2.586V8a1,1,0,0,0,1,1Z"/><path d="M20,8V2H11A2,2,0,0,0,9,4V22a2,2,0,0,0,2,2H27a2,2,0,0,0,2-2V11H23A3,3,0,0,1,20,8ZM14.5,9h3a1,1,0,0,1,0,2h-3a1,1,0,0,1,0-2Zm8,10h-8a1,1,0,0,1,0-2h8a1,1,0,0,1,0,2Zm1-5a1,1,0,0,1-1,1h-8a1,1,0,0,1,0-2h8A1,1,0,0,1,23.5,14Z"/><path d="M8,22V8H5a2.006,2.006,0,0,0-2,2V28a2.006,2.006,0,0,0,2,2H22a2.006,2.006,0,0,0,2-2V25H11A3.009,3.009,0,0,1,8,22Z"/></g><text font-family="'Helvetica Neue', Helvetica, Arial-Unicode, Arial, Sans-serif" font-weight="bold" font-size="5px" fill="#000000" y="47" x="0">Created by Anggara Putra</text><text font-family="'Helvetica Neue', Helvetica, Arial-Unicode, Arial, Sans-serif" font-weight="bold" font-size="5px" fill="#000000" y="52" x="0">from the Noun Project</text></svg>