<svg viewBox="-0.1351351351351351 19.97 101.08108108108108 59.67" version="1.1" xmlns="http://www.w3.org/2000/svg" style="max-height: 500px" width="101.08108108108108" height="59.67">
 <path d="m15.914 60.324c-0.30469-0.65234-0.20703-1.418 0.25391-1.9727l10.422-12.508c-2.3594-1.4141-5.1211-2.2344-8.0703-2.2344-8.6797 0-15.742 7.0625-15.742 15.742 0 8.6797 7.0625 15.742 15.742 15.742 7.9883 0 14.602-5.9844 15.605-13.703h-16.531c-0.71875 0-1.375-0.41797-1.6797-1.0664z"/>
 <path d="m34.172 57.684c-0.39453-3.7344-2.1016-7.0781-4.6445-9.5742l-7.9805 9.5742z"/>
 <path d="m81.48 43.609c-1.7227 0-3.3789 0.28125-4.9297 0.79688l7.1172 14.887c0.44141 0.92188 0.050781 2.0273-0.87109 2.4688-0.91797 0.4375-2.0273 0.054687-2.4688-0.87109l-7.1328-14.914c-4.4688 2.7773-7.4531 7.7344-7.4531 13.375 0 8.6797 7.0625 15.742 15.742 15.742s15.742-7.0625 15.742-15.742c-0.003906-8.6797-7.0664-15.742-15.746-15.742z"/>
 <path d="m69.012 28.609h6.3945c1.0234 0 1.8516-0.82812 1.8516-1.8516 0-1.0234-0.82812-1.8516-1.8516-1.8516h-9.2578c-1.3438 0-2.2383 1.3867-1.6875 2.6133 1.4727 3.2695 1.0195 2.3438 3.7109 7.9453h-31.074l-2.7695-3.7031 4.0039-0.003907c1.0234 0 1.8516-0.82812 1.8516-1.8516s-0.82812-1.8516-1.8516-1.8516h-12.965c-1.0234 0-1.8516 0.82812-1.8516 1.8516s0.82812 1.8516 1.8516 1.8516h4.332l4.0781 5.457-7.1914 8.6289c1.0664 0.64062 2.0508 1.4023 2.9336 2.2656l6.5391-7.8438 13.023 17.418h-14.91c0.13672 1.2852 0.11328 2.4727-0.046875 3.7031 19.98 0 18.691 0.007812 18.879-0.015625 0.47656-0.058594 0.90625-0.30078 1.1953-0.65234l16.551-19.863 2.4453 5.1172c1.043-0.64844 2.168-1.1758 3.3555-1.5703-0.33594-0.70312 1.8516 3.8789-7.5391-15.793zm-16.156 27.941-12.992-17.383h27.477z"/>
<text fill="#000000" font-family="Arbeit Regular, Helvetica, Arial-Unicode, Arial, Sans-serif" font-weight="bold" font-size="5.0" y="117.5" x="0.0">Created by Icon Market</text><text fill="#000000" font-family="Arbeit Regular, Helvetica, Arial-Unicode, Arial, Sans-serif" font-weight="bold" font-size="5.0" y="122.5" x="0.0">from Noun Project</text></svg>