<svg viewBox="1.756756756756757 1.6099999999999994 97.56756756756756 97.47" version="1.1" xmlns="http://www.w3.org/2000/svg" style="max-height: 500px" width="97.56756756756756" height="97.47">
 <path fill-rule="evenodd" d="m48.672 22.672 14.711 0.21875h-0.003906c-0.53516 2.9492-0.050781 5.9961 1.3828 8.6289-0.003907 1.207 0.59766 2.3359 1.5977 3.0117s2.2695 0.80859 3.3906 0.35938c1.1172-0.45312 1.9414-1.4336 2.1914-2.6133 0.25-1.1797-0.10156-2.4102-0.94141-3.2773-0.42969-0.43359-0.96094-0.75391-1.5508-0.92188-0.61328-1.6211-0.72266-3.3906-0.30859-5.0781l4 0.058594c2.1016 0.03125 3.8047 1.7188 3.8594 3.8203l0.37109 24.449c0.035156 1.0625-0.37891 2.0859-1.1406 2.8203l-40.75 40.711c-1.5234 1.5195-3.9883 1.5195-5.5117 0l-24.828-24.859c-1.5195-1.5234-1.5195-3.9883 0-5.5117l40.711-40.68c0.73438-0.76172 1.7578-1.1758 2.8203-1.1367zm12.68 17.859c0.15625-0.53516 0.011719-1.1094-0.37891-1.5039-0.39453-0.39062-0.96875-0.53516-1.5039-0.37891l-7.0781 2.1289-6.0703-4.2109v0.003906c-0.45312-0.32812-1.0547-0.37109-1.5508-0.10937-0.5 0.24609-0.82031 0.75-0.82812 1.3086l-0.16016 7.3906-5.8828 4.4805c-0.44922 0.32812-0.67578 0.88672-0.57813 1.4375 0.085938 0.55469 0.47266 1.0117 1 1.1914l7 2.4414 2.4414 7c0.17969 0.52734 0.63672 0.91406 1.1875 1 0.55078 0.09375 1.1094-0.12891 1.4414-0.58203l4.4805-5.8789 7.3906-0.16016c0.55469-0.007813 1.0625-0.32812 1.3086-0.82812 0.26172-0.49609 0.21875-1.0977-0.10937-1.5508l-4.2109-6.0703 2.1289-7.0781zm6.3711-8.25h-0.003906c0.37109 0.36328 0.76562 0.69922 1.1914 1 0.66406-0.20312 1.1406-0.78125 1.2109-1.4727-0.38281-0.24609-0.73828-0.53125-1.0625-0.84766-1.9414-2-2.4883-5-1.7891-8.3086v-0.003906c0.96875-3.9727 3.0508-7.5938 6-10.43 2.8359-2.9531 6.4531-5.0352 10.43-6 3.3008-0.73047 6.3711-0.21875 8.3008 1.7812s2.4883 5 1.7891 8.3008c-0.96484 3.9766-3.0469 7.5938-6 10.43-1.5664 1.5703-3.3438 2.9141-5.2773 4-1.1406 0.63281-2.3398 1.1562-3.582 1.5586v2c1.5586-0.45312 3.0586-1.082 4.4688-1.8789 2.0898-1.1836 4.0078-2.6445 5.7031-4.3398 3.2148-3.1016 5.4805-7.0547 6.5273-11.398 0.82812-3.9414 0.12109-7.5898-2.3086-10-2.4297-2.4102-6.0781-3.1406-10-2.3086v-0.003906c-4.3438 1.0469-8.3008 3.3125-11.398 6.5312-3.2148 3.0977-5.4766 7.0508-6.5234 11.391-0.82813 3.9414-0.12891 7.6016 2.3008 10zm-43.402 27.047 16.352 16.352c0.16797 0.21094 0.41797 0.33984 0.6875 0.35547 0.27344 0.011719 0.53516-0.089844 0.72656-0.28125 0.19141-0.19141 0.28906-0.45703 0.27344-0.72656-0.015625-0.26953-0.14844-0.51953-0.35938-0.6875l-16.34-16.34c-0.17188-0.19922-0.42188-0.31641-0.68359-0.32812-0.26562-0.007813-0.51953 0.089844-0.70703 0.27734s-0.28516 0.44141-0.27734 0.70703c0.007812 0.26172 0.12891 0.51172 0.32812 0.68359zm4.1719-4.1797 16.359 16.363c0.37891 0.34375 0.95703 0.34375 1.3398 0 0.34766-0.38281 0.34766-0.96875 0-1.3516l-16.352-16.352c-0.38281-0.34766-0.96875-0.34766-1.3516 0-0.34375 0.38281-0.34375 0.96094 0 1.3398zm-7.5703 6.2305c-1.1094-1.0898-2.8906-1.0898-4 0l-4.1719 4.1719c-1.0859 1.1094-1.0859 2.8867 0 4l17.672 17.719c1.1094 1.0898 2.8867 1.0898 4 0l4.1719-4.1719-0.003906 0.003906c1.0938-1.1094 1.0938-2.8906 0-4l-17.699-17.699zm16.359 19-17.699-17.699h-0.003906c-0.37891-0.34375-0.95703-0.34375-1.3398 0l-4.1719 4.1719h0.003906c-0.35156 0.37891-0.35156 0.96484 0 1.3477l17.691 17.73c0.37891 0.35156 0.96484 0.35156 1.3477 0l4.1719-4.1719v0.003907c0.34375-0.38281 0.34375-0.96094 0-1.3398zm24-33.141 1.8711-6.1992h-0.003906c0.35547-1.1992 0.027343-2.5-0.85938-3.3867-0.88672-0.88672-2.1875-1.2188-3.3906-0.86328l-6.1992 1.8711-5.3008-3.6602c-1.0273-0.71484-2.3672-0.80469-3.4844-0.23438-1.1172 0.56641-1.832 1.7031-1.8633 2.9531l-0.14844 6.4805-5.1484 3.9219h-0.003906c-0.99609 0.75781-1.4961 2.0039-1.3008 3.2461 0.19531 1.2383 1.0586 2.2695 2.2422 2.6836l6.1094 2.1484 2.1406 6.1094c0.41406 1.1836 1.4453 2.0469 2.6836 2.2422 1.2383 0.19531 2.4844-0.30469 3.2461-1.3008l3.9219-5.1484 6.4766-0.10156c1.2734-0.015625 2.4297-0.73438 3.0039-1.8711 0.57422-1.1367 0.46875-2.4961-0.27344-3.5273z"/>
<text fill="#000000" font-family="Arbeit Regular, Helvetica, Arial-Unicode, Arial, Sans-serif" font-weight="bold" font-size="5.0" y="117.5" x="0.0">Created by Radhika Studio</text><text fill="#000000" font-family="Arbeit Regular, Helvetica, Arial-Unicode, Arial, Sans-serif" font-weight="bold" font-size="5.0" y="122.5" x="0.0">from Noun Project</text></svg>