<svg viewBox="8.513513513513514 25.370000000000005 84.05405405405406 49.41" version="1.1" xmlns="http://www.w3.org/2000/svg" style="max-height: 500px" width="84.05405405405406" height="49.41">
 <path d="m75.43 47.77c2.8789 1.4688 8.9805 4.3398 13.07 5.4102v-14.008h-13.07z"/>
 <path d="m11.559 36.77h76.871c-0.46875-3.9414-3.8281-7-7.8906-7h-61.102c-4.0469 0-7.4062 3.0586-7.8789 7z"/>
 <path d="m37.5 64.07c0-3.3984-2.7695-6.1719-6.1719-6.1719-3.3984 0-6.1719 2.7695-6.1719 6.1719 0 3.3984 2.7695 6.1719 6.1719 6.1719 3.4023-0.003907 6.1719-2.7734 6.1719-6.1719z"/>
 <path d="m71.93 70.23c3.3984 0 6.1719-2.7695 6.1719-6.1719 0-3.3984-2.7695-6.1719-6.1719-6.1719-3.3984 0-6.1719 2.7695-6.1719 6.1719 0.011719 3.4102 2.7734 6.1719 6.1719 6.1719z"/>
 <path d="m74.031 48.629v-9.4609h-8.8516v8.1016h-1.3984v-8.1016h-9.3281v8.1016h-1.3984v-8.1016h-9.3281v8.1016h-1.3984v-8.1016h-9.3281v8.1016h-1.3984v-8.1016h-9.3281v8.1016h-1.3984v-8.1016l-9.375 0.003906v23.211c0 1.3203 1.0703 2.3906 2.3906 2.3906l10.008-0.003907c-0.019532-0.23047-0.039063-0.46094-0.039063-0.69922 0-4.1211 3.3398-7.4688 7.4688-7.4688s7.4688 3.3398 7.4688 7.4688c0 0.23828-0.011719 0.46875-0.039063 0.69922h25.742c-0.019531-0.23047-0.039062-0.46094-0.039062-0.69922 0-4.1211 3.3398-7.4688 7.4688-7.4688 4.1289 0 7.4688 3.3398 7.4688 7.4688 0 0.23828-0.011719 0.46875-0.039063 0.69922h6.7383c1.3203 0 2.3906-1.0703 2.3906-2.3906v-7.7617c-5.3984-1.3086-13.66-5.5703-14.09-5.7891zm-5.3008 1.2422h-51.629v-2h51.629z"/>
<text fill="#000000" font-family="Arbeit Regular, Helvetica, Arial-Unicode, Arial, Sans-serif" font-weight="bold" font-size="5.0" y="117.5" x="0.0">Created by iconlabs</text><text fill="#000000" font-family="Arbeit Regular, Helvetica, Arial-Unicode, Arial, Sans-serif" font-weight="bold" font-size="5.0" y="122.5" x="0.0">from Noun Project</text></svg>