<svg xml:space="preserve" style="max-height: 500px" viewBox="1.6 14.559999999999999 61.28 33.92" y="0px" x="0px" version="1.1" xmlns:xlink="http://www.w3.org/1999/xlink" xmlns="http://www.w3.org/2000/svg" width="61.28" height="33.92"><metadata/><switch><g><g><path d="M59.9,35.9c0-0.4-0.1-0.9-0.1-1.5c-2.3-1-4.8-1.8-5.5-1.8c0,0.1,0.1,0.3,0.3,0.6     C55.3,34.4,57.3,35.6,59.9,35.9z M9.6,30.6c-0.4,0.6-2.7,1.9-5.5,2.8c0.1-0.9,0.4-1.4,0.7-2.4C6.9,30.6,8.9,30.5,9.6,30.6z      M23.6,28.7c3.1,0.2,6.5,0.5,9.5,0.8c2.3,0.2,4,0.3,5.3,0.4c1.7,0.2,2.1,1.2,2.3,1.9c0.5,2.5,0.9,6.4-0.6,9.3l-14.7,0L23.6,28.7z      M4.1,34.6c3.1-0.9,6.9-2.7,6.7-4.2c0-0.3-0.2-0.5-0.4-0.7c-0.8-0.6-3.6-0.3-5.5,0.1c0.2-2.3,4-6,4.2-7.3c0.1-1.4,1.5-1.6,4-2.1     c2.5-0.6,10.5-3.5,22.2-0.6c3.1,0.7,8.3,5.4,9.8,7.1c1.5,1.7,5.1,0.5,8.2,1.6c2.6,0.9,5.1,2.6,6,4.5c-5.3-2.2-5.9-1.3-6.1-1     c-0.1,0.2-0.3,0.7,0,1.5c0.8,1.6,3.3,3.3,6.6,3.7c0,0.6,0,1.1,0,1.6c0.1,1.2,0.4,2.6-1.5,3c-0.6,0.1-1.8,0.1-2.9,0.1     c0.1-0.5,0.2-1,0.2-1.5c0-3.4-2.7-6.1-6.1-6.1c-3.4,0-6.1,2.7-6.1,6.1c0,0.2,0,0.5,0.1,0.7l-2.2,0c1.4-3.2,1.1-7.1,0.5-9.6     c-0.3-1.3,0.3-2.3,0.3-2.5c0.1-2.2-7.8-7.3-9.8-7.9c-1.4-0.4-3.9-0.5-5.8-0.5c-2.2,0-4.9,0.1-7,0.3c-3.7,0.4-6.6,2.3-7.2,3.5     c-0.4,0.8-0.4,1.7,0,2.4c0.3,0.5,1,1.2,2.6,1.3c0.8,0,3.8,0.2,7.5,0.5l1.8,12.5c0,0-2,0-2.5,0c-1.2,0-1-1.2-1-1.4     c-0.3-3.2-2.9-5.7-6.2-5.7c-3.3,0-5.9,2.5-6.2,5.7c0,0.2,0.2,1.3-0.9,0.9c-1.3-0.4-2.8-0.9-3.1-1.4C3.8,38.3,4.2,36.6,4.1,34.6z      M23.4,27.5l-0.2-5.7c1.1,0,2.2-0.1,3.3-0.1c2.6,0,4.4,0.2,5.4,0.5c1.9,0.6,6.4,3.7,8.2,5.6c0.5,0.5,0.2,1.1-1,1     c-1.4-0.2-3.6-0.3-6-0.5C30.2,28,26.6,27.7,23.4,27.5z M13.3,26.2c-0.3-0.4-0.1-0.9,0-1.3c0.4-0.7,2.7-2.6,6.3-2.9     c0.8-0.1,1.6-0.1,2.5-0.2l0.2,5.6c-3.7-0.3-6.6-0.5-7.4-0.5C14.3,26.8,13.6,26.7,13.3,26.2z M44.4,40.3c0,2.9,2.3,5.2,5.2,5.2     c2.9,0,5.2-2.3,5.2-5.2c0-2.9-2.3-5.2-5.2-5.2C46.7,35.1,44.4,37.5,44.4,40.3z M46.5,40.3c0-1.7,1.4-3.1,3.1-3.1     c1.7,0,3.1,1.4,3.1,3.1c0,1.7-1.4,3.1-3.1,3.1C47.9,43.4,46.5,42,46.5,40.3z M49.6,37.9c0.4,0,0.9,0.2,0.8,0.7     c-0.1,0.4-0.5,1.1-0.8,1.1c-0.3,0-0.7-0.7-0.8-1.1C48.7,38.1,49.1,37.9,49.6,37.9z M51,39c-0.3,0.3-0.7,1-0.5,1.3     c0.2,0.3,1,0.2,1.4,0.1c0.4-0.2,0.4-0.7,0.1-1C51.8,38.9,51.3,38.7,51,39z M48.2,39c0.3,0.3,0.7,1,0.5,1.3     c-0.2,0.3-1,0.2-1.4,0.1c-0.4-0.2-0.4-0.7-0.1-1C47.4,38.9,47.9,38.7,48.2,39z M48.9,42.6c0.2-0.3,0.5-1.1,0.3-1.4     c-0.2-0.2-1-0.1-1.4,0.1c-0.4,0.2-0.2,0.7,0.1,1.1C48.1,42.7,48.6,42.9,48.9,42.6z M50.3,42.6c-0.2-0.3-0.5-1.1-0.3-1.4     c0.2-0.2,1-0.1,1.4,0.1c0.4,0.2,0.2,0.7-0.1,1.1C51,42.7,50.5,42.9,50.3,42.6z M9.3,40.3c0,2.9,2.3,5.2,5.2,5.2s5.2-2.3,5.2-5.2     c0-2.9-2.3-5.2-5.2-5.2S9.3,37.5,9.3,40.3z M11.5,40.3c0-1.6,1.3-2.9,2.9-2.9s2.9,1.3,2.9,2.9c0,1.6-1.3,2.9-2.9,2.9     S11.5,41.9,11.5,40.3z M14.4,37.7c0.4,0,0.9,0.2,0.8,0.6c-0.1,0.4-0.5,1.1-0.8,1.1s-0.7-0.7-0.8-1.1C13.6,38,14,37.7,14.4,37.7z      M15.8,38.8c-0.3,0.3-0.6,1-0.5,1.3c0.2,0.3,1,0.2,1.3,0.1c0.4-0.2,0.3-0.7,0.1-1C16.6,38.8,16.1,38.5,15.8,38.8z M13.1,38.8     c0.3,0.3,0.6,1,0.5,1.3c-0.2,0.3-1,0.2-1.3,0.1c-0.4-0.2-0.3-0.7-0.1-1C12.3,38.8,12.8,38.5,13.1,38.8z M13.8,42.4     C14,42,14.2,41.2,14,41c-0.2-0.2-1-0.1-1.3,0.1c-0.3,0.2-0.2,0.7,0.1,1C13,42.5,13.5,42.7,13.8,42.4z M15.1,42.4     c-0.2-0.3-0.5-1.1-0.3-1.3c0.2-0.2,1-0.1,1.3,0.1c0.3,0.2,0.2,0.7-0.1,1C15.9,42.5,15.4,42.7,15.1,42.4z"/></g></g></switch><text font-family="'Helvetica Neue', Helvetica, Arial-Unicode, Arial, Sans-serif" font-weight="bold" font-size="5px" fill="#000000" y="79" x="0">Created by NOVILAMISASTRA</text><text font-family="'Helvetica Neue', Helvetica, Arial-Unicode, Arial, Sans-serif" font-weight="bold" font-size="5px" fill="#000000" y="84" x="0">from the Noun Project</text></svg>