<svg y="0px" x="0px" viewBox="0 62.5 501.25 376.25" xmlns="http://www.w3.org/2000/svg" style="max-height: 500px" width="501.25" height="376.25"><title>Citroen_saxo_front_filled-RAD</title><path d="M471.25631,210.69734c7.45961-1.93553,16.74055-4.34292,17.23345-15.05748.24645-5.3738-2.09182-11.04215-6.40769-15.55638a24.24677,24.24677,0,0,0-17.63018-7.655c-23.49086,0-28.34773,9.4282-29.1532,15.05146a8.95987,8.95987,0,0,1-1.47118,3.82411c-.16831-.38245-.33887-.79608-.50643-1.17327-7.58584-17.06514-34.90569-70.98954-42.52159-85.0462-8.235-15.20775-16.61432-25.772-30.76414-27.8939-12.034-1.80329-81.44863-3.43527-107.50618-3.65767l-5.14539-.02405V73.533c-26.05755.2224-95.47223,1.85438-107.50619,3.65767-14.14982,2.12187-22.52911,12.68615-30.76414,27.8939-7.61589,14.05666-34.93575,67.98106-42.52159,85.0462-.16756.37681-.33774.79007-.50567,1.17214a8.96964,8.96964,0,0,1-1.47194-3.829c-.80547-5.61725-5.66233-15.04545-29.1532-15.04545a24.24673,24.24673,0,0,0-17.63017,7.655c-4.31588,4.51423-6.65415,10.18258-6.4077,15.5624.4929,10.70854,9.77384,13.11593,17.23345,15.05146,4.05741,1.05192,10.25472,2.10685,16.25366,3.12571,4.00556.68262,8.00135,1.37576,11.31415,2.04636-4.12653,11.16913-7.862,22.44045-10.44857,31.81342-1.51476,5.479-3.88308,9.7528-6.39567,14.273-5.12736,9.23285-10.429,18.77827-8.26508,37.77894l.59508,5.24758c.6,5.26,1.18341,10.43354,1.75558,15.59283,6.29687,4.59012,20.3971,13.49575,35.9873,14.31775,19.51236,1.02337,86.38289,1.8495,105.01163,2.064v9.68029c-18.70689-.21151-85.52632-1.02863-105.51655-2.07867-14.17462-.74611-26.87129-6.92238-35.21226-12.11549-.20475,18.79255-.532,61.7567.553,73.09076,1.79728,18.59493,17.58209,18.59493,24.32038,18.59493,1.86941,0,5.45195.03907,9.834.08716,8.58366.09918,16.81268.18033,23.38267.18033,6.38365,0,11.21045-.07814,13.27222-.29454,7.84281-.82463,10.24569-10.15027,10.95236-17.20189,30.8235,1.68533,92.224,3.91352,131.33329,4.101v.012h5.14539v-.012c39.10924-.18747,100.50979-2.41566,131.33328-4.101.70629,7.05162,3.108,16.37726,10.94635,17.20189,2.06778.2164,6.89459.29454,13.28425.29454,6.57,0,14.793-.08115,23.37666-.18033,4.382-.04809,7.96453-.08716,9.83394-.08716,6.7383,0,22.5231,0,24.32038-18.59794,1.085-11.3318.75776-54.2952.553-73.08775-8.341,5.19311-21.03764,11.36938-35.21226,12.11549-19.18325,1.00759-81.47943,1.80066-103.01,2.04974v-9.68067c21.49034-.25283,83.78727-1.05267,102.505-2.03471,15.59058-.822,29.69081-9.72763,35.98767-14.31775.57217-5.16,1.15561-10.33361,1.75521-15.59283l.59508-5.24758c2.164-19.00067-3.13772-28.54609-8.26508-37.77894-2.51258-4.52025-4.88091-8.794-6.39567-14.276-2.5866-9.37148-6.322-20.64129-10.44857-31.81005,3.3128-.6706,7.30859-1.36411,11.31415-2.04673C461.0016,212.80419,467.19891,211.74926,471.25631,210.69734ZM118.84521,372.732c-.024.23443-.07213.62214-1.37651,1.076-8.17492,2.82215-30.157-4.0574-33.956-7.85934-2.2-2.2-3.71478-3.847-4.75468-5.07927,9.77985-.0541,31.33518.003,38.19971.02405C118.03974,362.51639,119.63265,366.132,118.84521,372.732Zm264.08592-11.8386c6.84048-.015,28.43188-.07514,38.22375-.02405-1.0399,1.23225-2.55466,2.88226-4.76069,5.07927-3.79292,3.80194-25.769,10.6845-33.94995,7.85934-1.30438-.45382-1.35247-.84153-1.37651-1.07295C380.27428,366.0869,381.89724,362.4653,382.93113,360.89343ZM72.99354,287.40332a12.35574,12.35574,0,0,1-4.4-9.09159,6.73244,6.73244,0,0,1,2.34428-5.4249c3.6727-3.36013,11.19242-5.15741,20.93019-5.15741a94.21661,94.21661,0,0,1,10.08641.571c13.77113,1.49072,37.01555,7.80825,44.63145,32.9371C126.48515,301.74249,86.6144,300.03236,72.99354,287.40332Zm245.28361,63.76436H184.14237V328.53337H318.27715Zm-13.95146-54.264c-14.90721,3.61259-40.94071,3.59155-51.79652,3.41723l-5.14539-.12623v.12623c-10.86182.16831-36.8773.20137-51.79652-3.41723-10.7356-2.60275-18.21324-6.14622-22.10835-8.63777,11.57112-2.33526,38.59042-4.9861,73.90487-5.03418l5.14539.012v-.012c35.044.05109,61.943,2.66286,73.86278,5.06123C322.49084,290.78148,315.02521,294.31293,304.32569,296.90366ZM282.1933,190.245c-11.53505-.09317-21.83184-.17432-29.68217-.2164v-.024h-5.10932v.024c-7.85033.04208-18.14712.12323-29.68217.2164-44.379.35765-111.46741.89563-120.07511-.20437a18.18206,18.18206,0,0,1-2.45248-.44482,73.28155,73.28155,0,0,1,3.45631-8.31918c1.29837-2.83417,2.81914-6.17326,4.46014-10.11045,7.658-18.38154,21.03839-44.81478,29.73626-60.35313,4.406-7.87437,10.68149-11.26756,21.65752-11.70937,3.73281-.15027,17.19137-.36066,33.08438-.61312,22.97993-.36366,51.06919-.80547,62.36981-1.2593,11.30062.45383,39.38988.89564,62.36982,1.2593,15.893.25246,29.35156.46285,33.08437.61312,10.976.44181,17.25148,3.835,21.65752,11.70937,8.69787,15.53835,22.07829,41.97159,29.73627,60.35313,1.641,3.93719,3.16177,7.27628,4.46014,10.11045a73.28116,73.28116,0,0,1,3.4563,8.31918,18.18183,18.18183,0,0,1-2.45247.44482C393.66071,191.14065,326.57228,190.60267,282.1933,190.245Zm144.7261,97.1583c-13.59681,12.608-53.35937,14.32714-73.59229,13.83424,7.62191-25.12885,30.86031-31.44638,44.63144-32.9371,14.56458-1.56586,26.15974.14727,31.0166,4.58637a6.73244,6.73244,0,0,1,2.34428,5.4249A12.36069,12.36069,0,0,1,426.9194,287.40332Z"/><text font-family="'Helvetica Neue', Helvetica, Arial-Unicode, Arial, Sans-serif" font-weight="bold" font-size="5px" fill="#000000" y="515" x="0">Created by Tom Fricker</text><text font-family="'Helvetica Neue', Helvetica, Arial-Unicode, Arial, Sans-serif" font-weight="bold" font-size="5px" fill="#000000" y="520" x="0">from the Noun Project</text></svg>