<svg viewBox="6.621621621621621 3.7699999999999996 87.02702702702703 93.14999999999999" version="1.1" xmlns="http://www.w3.org/2000/svg" style="max-height: 500px" width="87.02702702702703" height="93.14999999999999">
 <path d="m31.344 93.75h10.625c0.70703 0 1.2812-0.57422 1.2812-1.2812v-4.9609h-13.203v4.9609c0.007813 0.71094 0.58594 1.2852 1.2969 1.2812z"/>
 <path d="m74.43 74.891h5.9648c0.8125 0 1.4688-0.65625 1.4688-1.4648v-2.8125c0.003907-0.64844-0.41797-1.2227-1.0391-1.4062l-1.1055-0.33594v-0.003906c-0.14062-0.039063-0.28516-0.0625-0.42969-0.0625-0.28516 0-0.5625 0.082031-0.79687 0.23828l-4.8594 3.1523c-0.54687 0.35156-0.79687 1.0234-0.60937 1.6484 0.18359 0.62109 0.75781 1.0508 1.4062 1.0469z"/>
 <path d="m21.969 74.078 28.629-33.648c0.35547-0.42188 0.90625-0.62109 1.4492-0.53125 4.0586 0.67187 8.2227-0.14453 11.727-2.3008 3.5039-2.1602 6.1094-5.5078 7.3359-9.4375 1.2266-3.9258 0.99219-8.1641-0.66016-11.934l-10.387 12.211c-0.26953 0.31641-0.65234 0.51172-1.0664 0.54688l-8.0625 0.64844c-0.85547 0.0625-1.6094-0.57422-1.6836-1.4336l-0.64844-8.0625c-0.03125-0.41016 0.10156-0.82031 0.36719-1.1367l10.387-12.207c-3.9844-1.0273-8.2031-0.58203-11.883 1.2578-3.6797 1.8398-6.5703 4.9492-8.1406 8.7539-1.5664 3.8047-1.707 8.0469-0.39453 11.945 0.17578 0.51953 0.066406 1.0938-0.28906 1.5117l-28.629 33.645 0.46875 5.7969 5.6836 4.8359zm-3.7344-10.129 4.2422-4.9844v-0.003906c0.55859-0.65625 1.5469-0.73438 2.2031-0.17188 0.66016 0.55859 0.73828 1.5469 0.17578 2.2031l-4.2422 4.9844v0.003907c-0.55859 0.65625-1.5469 0.73438-2.207 0.17578-0.65625-0.5625-0.73438-1.5508-0.17188-2.207z"/>
 <path d="m83.625 92.469v-4.9609h-13.203v4.9609c0.003906 0.71094 0.58594 1.2852 1.2969 1.2812h10.625c0.70703 0 1.2812-0.57422 1.2812-1.2812z"/>
 <path d="m44.27 56.043h35.852l-3.0195-13.777-2.4297-2.0938h-9.1602c-3.8945 2.4609-8.5195 3.4961-13.09 2.9375l-26.672 31.344v6.5547l3.375 3.375h15.691 0.03125 23.988 0.03125 15.68l3.3906-3.375v-12.656l-6.6719-9.1836h-36.996c-0.86328 0-1.5625-0.69922-1.5625-1.5625s0.69922-1.5625 1.5625-1.5625zm27.656 13.531 4.8594-3.1523c1.1367-0.73828 2.543-0.9375 3.8398-0.54297l1.1055 0.33594v0.003906c1.9375 0.57812 3.2617 2.3672 3.2539 4.3906v2.8125c-0.003906 2.5352-2.0586 4.5898-4.5938 4.5938h-5.9609c-2.0273-0.007813-3.8125-1.3438-4.3906-3.2891-0.57812-1.9453 0.19141-4.0391 1.8906-5.1484zm-26.145 3.0547c0.003906-2.3125 1.8789-4.1875 4.1914-4.1914h13.738c2.3125 0.003906 4.1875 1.8789 4.1914 4.1914v1.1992c0 2.3125-1.8789 4.1875-4.1914 4.1914h-13.738c-2.3164-0.003906-4.1914-1.8789-4.1914-4.1953zm-1.9375 0.79688c0 2.5352-2.0547 4.5898-4.5898 4.5898h-5.9648c-2.5352 0-4.5898-2.0547-4.5938-4.5898 0-0.86328 0.69922-1.5625 1.5625-1.5625 0.86328 0 1.5625 0.69922 1.5625 1.5625 0 0.80859 0.66016 1.4648 1.4688 1.4648h5.9609c0.65234 0.003906 1.2266-0.42578 1.4102-1.0469 0.18359-0.625-0.0625-1.2969-0.60938-1.6484l-4.8594-3.1523c-0.72266-0.46875-0.92969-1.4375-0.46094-2.1641 0.47266-0.72266 1.4375-0.92969 2.1641-0.45703l4.8594 3.1523h-0.003906c1.3086 0.84375 2.0977 2.293 2.0938 3.8516z"/>
 <path d="m49.973 71.562h13.738c0.58984 0 1.0664 0.47656 1.0664 1.0664v1.1992c0 0.58594-0.47656 1.0664-1.0664 1.0664h-13.738c-0.58984 0-1.0703-0.48047-1.0703-1.0703v-1.1953c0-0.28125 0.11328-0.55469 0.3125-0.75391 0.20312-0.19922 0.47266-0.3125 0.75781-0.3125z"/>
 <path d="m87.523 54.895h-4.457l0.45312 2.0586 1.7734 2.4375h2.4805c0.59766 0.003906 1.1758-0.23047 1.6016-0.65625 0.56641-0.5625 0.78906-1.3828 0.58594-2.1562-0.34766-1.043-1.3398-1.7305-2.4375-1.6836z"/>
<text fill="#000000" font-family="Arbeit Regular, Helvetica, Arial-Unicode, Arial, Sans-serif" font-weight="bold" font-size="5.0" y="117.5" x="0.0">Created by Diding jamaludin</text><text fill="#000000" font-family="Arbeit Regular, Helvetica, Arial-Unicode, Arial, Sans-serif" font-weight="bold" font-size="5.0" y="122.5" x="0.0">from Noun Project</text></svg>