<svg y="0px" x="0px" viewBox="0 0 63.68 63.68000000000001" xmlns="http://www.w3.org/2000/svg" style="max-height: 500px" width="63.68" height="63.68000000000001"><g data-name="16-Car-service"><path d="M50,12a1,1,0,0,0,1-1V3a1,1,0,0,0-2,0v8A1,1,0,0,0,50,12Z"/><path d="M38,12a1,1,0,0,0,1-1V3a1,1,0,0,0-2,0v8A1,1,0,0,0,38,12Z"/><path d="M26,12a1,1,0,0,0,1-1V3a1,1,0,0,0-2,0v8A1,1,0,0,0,26,12Z"/><path d="M14,12a1,1,0,0,0,1-1V3a1,1,0,0,0-2,0v8A1,1,0,0,0,14,12Z"/><path d="M59,7H53v4a3,3,0,0,1-6,0V7H41v4a3,3,0,0,1-6,0V7H29v4a3,3,0,0,1-6,0V7H17v4a3,3,0,0,1-6,0V7H5a3,3,0,0,0-3,3v8H62V10A3,3,0,0,0,59,7Z"/><circle r="1" cy="44" cx="21"/><path d="M43,43a1,1,0,1,0,1,1A1,1,0,0,0,43,43Zm0,0a1,1,0,1,0,1,1A1,1,0,0,0,43,43ZM2,20V59a3,3,0,0,0,3,3H59a3,3,0,0,0,3-3V20ZM48,37h-.77l.18.64A5,5,0,0,1,50,42v6a3,3,0,0,1-3,3v2a3,3,0,0,1-3,3H42a3,3,0,0,1-3-3V51H25v2a3,3,0,0,1-3,3H20a3,3,0,0,1-3-3V51a3,3,0,0,1-3-3V42a5,5,0,0,1,2.59-4.36l.18-.64H16a3,3,0,0,1,0-6h2.36l1.28-4.77A3,3,0,0,1,22.54,24H41.46a3,3,0,0,1,2.9,2.23L45.64,31H48a3,3,0,0,1,0,6Zm0-4H46.17l.53,2H48a1,1,0,0,0,0-2Zm-3,6H19a3,3,0,0,0-3,3v6a1,1,0,0,0,1,1H47a1,1,0,0,0,1-1V42A3,3,0,0,0,45,39ZM21,47a3,3,0,1,1,3-3A3,3,0,0,1,21,47Zm15,0H28a1,1,0,0,1,0-2h8a1,1,0,0,1,0,2Zm0-4H28a1,1,0,0,1,0-2h8a1,1,0,0,1,0,2Zm7,4a3,3,0,1,1,3-3A3,3,0,0,1,43,47Zm2-10,.17,0L42.43,26.74a1,1,0,0,0-1-.74H22.54a1,1,0,0,0-1,.74L18.83,37,19,37ZM41,53a1,1,0,0,0,1,1h2a1,1,0,0,0,1-1V51H41Zm2-10a1,1,0,1,0,1,1A1,1,0,0,0,43,43ZM19,53a1,1,0,0,0,1,1h2a1,1,0,0,0,1-1V51H19ZM17.83,33H16a1,1,0,0,0,0,2h1.3Z"/></g><text font-family="'Helvetica Neue', Helvetica, Arial-Unicode, Arial, Sans-serif" font-weight="bold" font-size="5px" fill="#000000" y="79" x="0">Created by Nawicon</text><text font-family="'Helvetica Neue', Helvetica, Arial-Unicode, Arial, Sans-serif" font-weight="bold" font-size="5px" fill="#000000" y="84" x="0">from the Noun Project</text></svg>