<svg viewBox="-1.7567567567567566 -1.0899999999999999 102.97297297297298 102.06" version="1.1" xmlns="http://www.w3.org/2000/svg" style="max-height: 500px" width="102.97297297297298" height="102.06">
 <path fill-rule="evenodd" d="m16.215 1.1836h14.871c4.0391 0 7.707 1.6484 10.363 4.3086 2.6562 2.6562 4.3086 6.3281 4.3086 10.363v20.207c0 2.582-1.0547 4.9336-2.7578 6.6328-1.6992 1.6992-4.0508 2.7578-6.6328 2.7578h-20.156c-4.0508 0-7.7305-1.6562-10.398-4.3242-2.668-2.668-4.3242-6.3477-4.3242-10.398v-14.824c0-4.0508 1.6562-7.7305 4.3242-10.398 2.668-2.668 6.3477-4.3242 10.398-4.3242zm67.566 97.633h-14.871c-4.0391 0-7.707-1.6484-10.363-4.3086-2.6562-2.6562-4.3086-6.3281-4.3086-10.363v-20.207c0-2.582 1.0547-4.9336 2.7578-6.6328 1.6992-1.6992 4.0469-2.7578 6.6328-2.7578h20.156c4.0508 0 7.7344 1.6562 10.402 4.3242 2.668 2.668 4.3242 6.3477 4.3242 10.398v14.824c0 4.0508-1.6562 7.7305-4.3242 10.398-2.668 2.668-6.3477 4.3242-10.402 4.3242zm-14.871-4.5781h14.871c2.7891 0 5.3242-1.1445 7.1641-2.9805 1.8398-1.8398 2.9805-4.3789 2.9805-7.1641v-14.824c0-2.7852-1.1445-5.3203-2.9805-7.1641-1.8398-1.8398-4.3789-2.9805-7.1641-2.9805h-20.156c-1.3203 0-2.5234 0.54297-3.3945 1.4141-0.87109 0.87109-1.4141 2.0742-1.4141 3.3945v20.207c0 2.7734 1.1367 5.2969 2.9688 7.1289 1.8281 1.8281 4.3555 2.9688 7.1289 2.9688zm-37.824 4.5781h-14.871c-4.0508 0-7.7305-1.6562-10.398-4.3242-2.668-2.668-4.3242-6.3477-4.3242-10.398v-14.824c0-4.0508 1.6562-7.7305 4.3242-10.398 2.668-2.668 6.3477-4.3242 10.398-4.3242h20.156c2.582 0 4.9336 1.0547 6.6328 2.7578 1.6992 1.6992 2.7578 4.0469 2.7578 6.6328v20.207c0 4.0391-1.6484 7.707-4.3086 10.363-2.6562 2.6562-6.3281 4.3086-10.363 4.3086zm37.824-97.633h14.871c4.0508 0 7.7344 1.6562 10.402 4.3242 2.668 2.668 4.3242 6.3477 4.3242 10.398v14.824c0 4.0508-1.6562 7.7305-4.3242 10.398-2.668 2.668-6.3477 4.3242-10.402 4.3242h-20.156c-2.582 0-4.9336-1.0547-6.6328-2.7578-1.6992-1.6992-2.7578-4.0508-2.7578-6.6328v-20.207c0-4.0391 1.6484-7.707 4.3086-10.363 2.6562-2.6562 6.3281-4.3086 10.363-4.3086zm-37.824 4.5742h-14.871c-2.7852 0-5.3203 1.1445-7.1641 2.9805-1.8398 1.8398-2.9805 4.3789-2.9805 7.1641v14.824c0 2.7852 1.1445 5.3203 2.9805 7.1641 1.8398 1.8398 4.3789 2.9805 7.1641 2.9805h20.156c1.3203 0 2.5234-0.53906 3.3945-1.4141 0.87109-0.87109 1.4141-2.0742 1.4141-3.3945v-20.207c0-2.7734-1.1367-5.2969-2.9688-7.1289-1.8281-1.8281-4.3555-2.9688-7.1289-2.9688z"/>
<text fill="#000000" font-family="Arbeit Regular, Helvetica, Arial-Unicode, Arial, Sans-serif" font-weight="bold" font-size="5.0" y="117.5" x="0.0">Created by MCROIS</text><text fill="#000000" font-family="Arbeit Regular, Helvetica, Arial-Unicode, Arial, Sans-serif" font-weight="bold" font-size="5.0" y="122.5" x="0.0">from Noun Project</text></svg>