<svg xml:space="preserve" style="max-height: 500px" viewBox="3.5000000000000004 0 92.25 100" y="0px" x="0px" version="1.1" xmlns:xlink="http://www.w3.org/1999/xlink" xmlns="http://www.w3.org/2000/svg" width="92.25" height="100"><path d="M49.7,53.7c14.7,0,26.7-11.9,26.7-26.7c0-14.7-11.9-26.7-26.7-26.7C34.9,0.3,23,12.3,23,27S34.9,53.7,49.7,53.7z M62.3,37.6  c-1.2,4-6.4,7-12.6,7c-6.2,0-11.4-3-12.6-7H62.3z"/><path d="M94.8,81.3v8.8c0,1.3-1,2.8-2.2,3.3c-3.8,1.7-13.1,4.9-30.8,5.9c-0.2,0-0.3,0-0.5,0c-0.2,0-0.4,0-0.6,0c-0.3,0-0.6,0-0.9,0  c0,0,0,0-0.1,0c-3.1,0.1-6.5,0.2-10.1,0.2c-25.7,0-38.3-4.2-42.9-6.3c-1.2-0.5-2.2-2-2.2-3.3v-8.8c0-13.2,10-24.1,22.8-25.6  c0.4,0,1,0.1,1.3,0.4c5.9,4.3,13.1,6.8,21,6.8c7.8,0,15.1-2.6,21-6.8c0.3-0.2,0.9-0.4,1.3-0.4c0,0,0,0,0,0l0,0  C84.8,57.2,94.8,68.1,94.8,81.3z"/><text font-family="'Helvetica Neue', Helvetica, Arial-Unicode, Arial, Sans-serif" font-weight="bold" font-size="5px" fill="#000000" y="115" x="0">Created by Kriya Barot</text><text font-family="'Helvetica Neue', Helvetica, Arial-Unicode, Arial, Sans-serif" font-weight="bold" font-size="5px" fill="#000000" y="120" x="0">from the Noun Project</text></svg>