<svg viewBox="-0.1351351351351351 -1.0899999999999999 100.8108108108108 102.6" version="1.1" xmlns="http://www.w3.org/2000/svg" style="max-height: 500px" width="100.8108108108108" height="102.6">
 <path d="m75.543 2.5h-51.086c-12.129 0-21.957 9.8281-21.957 21.957v51.09c0 12.129 9.8281 21.953 21.957 21.953h51.09c12.125 0 21.957-9.8281 21.957-21.953l-0.003906-51.09c0-12.129-9.8281-21.953-21.957-21.953zm-8.3281 73.621-17.215-17.215-17.215 17.215-8.9062-8.9062 17.215-17.215-17.215-17.215 8.9062-8.9062 17.215 17.215 17.215-17.215 8.9062 8.9062-17.215 17.215 17.215 17.215z"/>
<text fill="#000000" font-family="Arbeit Regular, Helvetica, Arial-Unicode, Arial, Sans-serif" font-weight="bold" font-size="5.0" y="117.5" x="0.0">Created by Adrien Coquet</text><text fill="#000000" font-family="Arbeit Regular, Helvetica, Arial-Unicode, Arial, Sans-serif" font-weight="bold" font-size="5.0" y="122.5" x="0.0">from Noun Project</text></svg>