<svg viewBox="0.6756756756756754 19.7 98.91891891891892 60.75" version="1.1" xmlns="http://www.w3.org/2000/svg" style="max-height: 500px" width="98.91891891891892" height="60.75">
 <path d="m89.582 22.918h-79.164c-3.4375 0-6.25 2.8125-6.25 6.25v41.668c0 3.4375 2.8125 6.25 6.25 6.25h79.168c3.4375 0 6.25-2.8125 6.25-6.25l-0.003907-41.668c0-3.4375-2.8125-6.25-6.25-6.25zm2.0859 47.914c0 1.1445-0.9375 2.082-2.082 2.082l-79.168 0.003907c-1.1445 0-2.082-0.9375-2.082-2.082l-0.003907-41.668c0-1.1445 0.9375-2.082 2.082-2.082h79.168c1.1445 0 2.082 0.9375 2.082 2.082v41.668zm-27.086-8.332c0 1.1445-0.9375 2.082-2.082 2.082h-16.668c-1.1445 0-2.082-0.9375-2.082-2.082s0.9375-2.082 2.082-2.082h16.668c1.1445 0 2.082 0.9375 2.082 2.082zm-29.164 0c0 1.1445-0.9375 2.082-2.082 2.082h-12.5c-1.1445 0-2.082-0.9375-2.082-2.082s0.9375-2.082 2.082-2.082h4.168v-19.02l-3.0195 2c-0.95703 0.64453-2.25 0.375-2.8945-0.58203-0.64453-0.95703-0.375-2.25 0.58203-2.8945l6.25-4.168c0.64453-0.41797 1.457-0.45703 2.1445-0.10547 0.6875 0.35547 1.1055 1.0625 1.1055 1.832v22.918h4.168c1.1445 0 2.082 0.9375 2.082 2.082z"/>
<text fill="#000000" font-family="Arbeit Regular, Helvetica, Arial-Unicode, Arial, Sans-serif" font-weight="bold" font-size="5.0" y="117.5" x="0.0">Created by Miftakhul Rizky</text><text fill="#000000" font-family="Arbeit Regular, Helvetica, Arial-Unicode, Arial, Sans-serif" font-weight="bold" font-size="5.0" y="122.5" x="0.0">from Noun Project</text></svg>