<svg viewBox="-1.7567567567567566 2.6899999999999995 102.97297297297298 94.5" version="1.1" xmlns="http://www.w3.org/2000/svg" style="max-height: 500px" width="102.97297297297298" height="94.5">
 <path fill-rule="evenodd" d="m14.684 4.7266h70.637c3.7656 0 7.1875 1.5391 9.668 4.0156 2.4766 2.4766 4.0156 5.9023 4.0156 9.6641v63.184c0 3.7656-1.5391 7.1836-4.0156 9.6641-2.4766 2.4766-5.9023 4.0156-9.668 4.0156h-70.633c-3.7656 0-7.1875-1.5391-9.668-4.0156-2.4766-2.4766-4.0156-5.9023-4.0156-9.6641v-63.184c0-3.7656 1.5391-7.1836 4.0156-9.6641 2.4766-2.4766 5.9023-4.0156 9.668-4.0156zm79.723 23.605h-42.109v62.348h33.02c2.5 0 4.7695-1.0234 6.418-2.6719 1.6484-1.6484 2.6719-3.9219 2.6719-6.418zm-46.703 0h-42.109v53.258c0 2.4961 1.0234 4.7656 2.6719 6.418 1.6484 1.6484 3.9219 2.6719 6.418 2.6719h33.02z"/>
<text fill="#000000" font-family="Arbeit Regular, Helvetica, Arial-Unicode, Arial, Sans-serif" font-weight="bold" font-size="5.0" y="117.5" x="0.0">Created by MCROIS</text><text fill="#000000" font-family="Arbeit Regular, Helvetica, Arial-Unicode, Arial, Sans-serif" font-weight="bold" font-size="5.0" y="122.5" x="0.0">from Noun Project</text></svg>