<svg y="0px" x="0px" viewBox="0 0 92.7675 93.2325" data-name="Layer 1" xmlns="http://www.w3.org/2000/svg" style="max-height: 500px" width="92.7675" height="93.2325"><defs><style>.cls-1{fill-rule:evenodd;}</style></defs><title>a</title><path d="M65.616,42.061H87.81A3.7,3.7,0,0,0,91.5,38.37V5.191A3.7,3.7,0,0,0,87.81,1.5H65.616a3.7,3.7,0,0,0-3.691,3.691V38.37a3.7,3.7,0,0,0,3.691,3.691ZM87.81,50.939H43.643a3.7,3.7,0,0,0-3.691,3.691V87.809A3.7,3.7,0,0,0,43.643,91.5H87.81A3.7,3.7,0,0,0,91.5,87.809V54.63a3.7,3.7,0,0,0-3.691-3.691Zm-82.619,0A3.7,3.7,0,0,0,1.5,54.63V87.809A3.7,3.7,0,0,0,5.191,91.5H27.384a3.7,3.7,0,0,0,3.691-3.691V54.63a3.7,3.7,0,0,0-3.691-3.691Zm0-8.878H49.356a3.7,3.7,0,0,0,3.692-3.691V5.191A3.7,3.7,0,0,0,49.356,1.5H5.191A3.7,3.7,0,0,0,1.5,5.191V38.37A3.7,3.7,0,0,0,5.191,42.061Z" class="cls-1"/><text font-family="'Helvetica Neue', Helvetica, Arial-Unicode, Arial, Sans-serif" font-weight="bold" font-size="5px" fill="#000000" y="108" x="0">Created by sulistiyono1986</text><text font-family="'Helvetica Neue', Helvetica, Arial-Unicode, Arial, Sans-serif" font-weight="bold" font-size="5px" fill="#000000" y="113" x="0">from the Noun Project</text></svg>