<svg viewBox="8.783783783783784 1.879999999999999 81.89189189189189 96.39" version="1.1" xmlns="http://www.w3.org/2000/svg" style="max-height: 500px" width="81.89189189189189" height="96.39">
 <path fill-rule="evenodd" d="m48.07 49.488c0-1.0625 0.86328-1.9297 1.9297-1.9297s1.9297 0.86719 1.9297 1.9297v30.453c0 1.0664-0.86328 1.9297-1.9297 1.9297s-1.9297-0.86328-1.9297-1.9297zm18-0.19141v0.003906c0.046876-0.50781 0.29688-0.97656 0.69141-1.3008s0.90234-0.48047 1.4102-0.42969c1.0547 0.10156 1.832 1.043 1.7266 2.1016l-2.8984 30.449c-0.10156 1.0547-1.043 1.832-2.1016 1.7305-1.0547-0.10547-1.832-1.043-1.7266-2.1016l2.918-30.449zm-36 0.37109v0.003906c-0.10156-1.0586 0.67188-2 1.7305-2.1016 1.0586-0.10156 1.9961 0.67188 2.0977 1.7305l2.8789 30.449h0.003906c0.10156 1.0586-0.67188 1.9961-1.7305 2.1016-1.0586 0.10156-2-0.67578-2.1016-1.7305l-2.8711-30.449zm54.66-15.246h-69.461l4.0898 50.309c0.46094 5.8125 5.3203 10.289 11.152 10.27h39c5.8203 0.007812 10.668-4.4648 11.129-10.27zm-49.289-18.844v-2.6562c0.007813-4.3711 3.5508-7.9102 7.918-7.9219h13.281c4.3672 0.011719 7.9102 3.5508 7.918 7.9219v2.6602l-3.8594-0.003906v-2.6562c-0.011719-2.2383-1.8242-4.0469-4.0586-4.0508h-13.281c-2.2344 0.003906-4.0469 1.8125-4.0586 4.0508v2.6602zm-23.129 15h75.379v-5.4688c-0.011718-3.0039-2.4453-5.4375-5.4531-5.4492h-64.477c-3.0078 0.011719-5.4414 2.4453-5.4531 5.4492z"/>
<text fill="#000000" font-family="Arbeit Regular, Helvetica, Arial-Unicode, Arial, Sans-serif" font-weight="bold" font-size="5.0" y="117.5" x="0.0">Created by Vinchi Chyla</text><text fill="#000000" font-family="Arbeit Regular, Helvetica, Arial-Unicode, Arial, Sans-serif" font-weight="bold" font-size="5.0" y="122.5" x="0.0">from Noun Project</text></svg>