<svg viewBox="3.108108108108109 3.5 93.78378378378379 93.14999999999999" version="1.1" xmlns="http://www.w3.org/2000/svg" style="max-height: 500px" width="93.78378378378379" height="93.14999999999999">
 <path fill-rule="evenodd" d="m51.441 65.66c7.2422-0.94141 9.6094-8.1055 5.5-11.152-1.25-0.92969-3.0938-1.6992-5.5-2.5234zm-2.8828-31.32c-7.2422 0.94141-9.6094 8.1055-5.5 11.152 1.25 0.92969 3.0938 1.6992 5.5 2.5234zm33.008-15.906c17.434 17.434 17.434 45.699 0 63.133s-45.699 17.434-63.133 0-17.434-45.699 0-63.133c17.434-17.43 45.699-17.43 63.133 0zm-4.8438 4.8438c14.758 14.758 14.758 38.688 0 53.445-14.758 14.758-38.688 14.758-53.445 0-14.758-14.758-14.758-38.688 0-53.445 14.758-14.758 38.688-14.758 53.445 0zm-26.723-13.949c22.461 0 40.672 18.211 40.672 40.672s-18.211 40.672-40.672 40.672-40.672-18.211-40.672-40.672 18.211-40.672 40.672-40.672zm8.9258 32.074c0-3.8672-3.668-6.5664-7.4844-7.0625v14.617c5.5234 1.8203 10.367 3.6836 10.367 9.6367 0 5.4883-4.9414 9.4023-10.367 9.9609v4.4805h-2.8789v-4.4805c-5.4258-0.5625-10.367-4.4727-10.367-9.9609h2.8789c0 3.8672 3.668 6.5664 7.4883 7.0625v-14.613c-5.5234-1.8203-10.367-3.6836-10.367-9.6367 0-5.4883 4.9414-9.4023 10.367-9.9609v-4.4844h2.8789v4.4805c5.4219 0.5625 10.367 4.4727 10.367 9.9609z"/>
<text fill="#000000" font-family="Arbeit Regular, Helvetica, Arial-Unicode, Arial, Sans-serif" font-weight="bold" font-size="5.0" y="117.5" x="0.0">Created by INA</text><text fill="#000000" font-family="Arbeit Regular, Helvetica, Arial-Unicode, Arial, Sans-serif" font-weight="bold" font-size="5.0" y="122.5" x="0.0">from Noun Project</text></svg>