<svg viewBox="8.783783783783784 8.900000000000002 82.43243243243244 81.81" version="1.1" xmlns="http://www.w3.org/2000/svg" style="max-height: 500px" width="82.43243243243244" height="81.81">
 <path d="m41.25 52.551-2.2891 8.4883 8.4883-2.2891c1.2695-0.33984 2.4414-1.0195 3.3711-1.9492l32.398-32.398-7.6211-7.6211-32.398 32.398c-0.92969 0.92969-1.6094 2.1016-1.9492 3.3711z"/>
 <path d="m84.949 10.672c-0.42969-0.42969-1.0117-0.67188-1.6211-0.67188s-1.1914 0.23828-1.6211 0.67188l-3.8984 3.8984 7.6211 7.6211 3.8984-3.8984c0.42969-0.42969 0.67188-1.0117 0.67188-1.6211s-0.23828-1.1797-0.67188-1.6211z"/>
 <path d="m20.379 90h53.578c5.7188 0 10.379-4.6602 10.379-10.379v-42.531c0-0.85938-0.69922-1.5586-1.5586-1.5586s-1.5586 0.69922-1.5586 1.5586v42.531c0 4-3.2617 7.2617-7.2617 7.2617l-53.578-0.003906c-4 0-7.2617-3.2617-7.2617-7.2617l0.003906-53.578c0-4 3.2617-7.2617 7.2617-7.2617h42.531c0.85938 0 1.5586-0.69922 1.5586-1.5586s-0.69922-1.5586-1.5586-1.5586h-42.535c-5.7188 0-10.379 4.6602-10.379 10.379v53.578c0 5.7188 4.6602 10.379 10.379 10.379z"/>
<text fill="#000000" font-family="Arbeit Regular, Helvetica, Arial-Unicode, Arial, Sans-serif" font-weight="bold" font-size="5.0" y="117.5" x="0.0">Created by Kosong Tujuh</text><text fill="#000000" font-family="Arbeit Regular, Helvetica, Arial-Unicode, Arial, Sans-serif" font-weight="bold" font-size="5.0" y="122.5" x="0.0">from Noun Project</text></svg>