<svg viewBox="10.945945945945947 8.900000000000002 78.10810810810811 82.08" version="1.1" xmlns="http://www.w3.org/2000/svg" style="max-height: 500px" width="78.10810810810811" height="82.08">
 <path d="m87.859 43.59c0-48.371-75.719-44.121-75.719 10.289 0 20.93 14.781 36.121 35.16 36.121 8.0898 0 14.301-1.8984 18.07-3.4805 2.3789-0.98828 3.5117-3.7109 2.6211-6.1289-0.94922-2.5703-3.8398-3.8203-6.3711-2.7812-3.0391 1.2383-7.5195 2.5117-13.121 2.5117-15.238 0-25.488-10.809-25.488-26.891 0-40.91 54-45.5 54-8.9883 0 6.5508-1.8906 12.32-5.0586 15.43-10.328 10.141-3.6094-19.059-1.6797-26.84 0.26953-1.0781-0.26953-2.1992-1.3008-2.6406-55.402-23.77-45.531 72.16-12.281 35.137 5.0117 13.059 31.172 6.4805 31.172-21.738zm-30.43-2.7305-1.3906 7.5s-3.1992 12.82-10.91 12.82c-3.9688 0-4.8008-3.1992-4.8008-5.8906 0-9.2891 6.8086-17.141 14.879-17.141h0.03125c1.4102 0 2.4609 1.3281 2.1992 2.7188z"/>
<text fill="#000000" font-family="Arbeit Regular, Helvetica, Arial-Unicode, Arial, Sans-serif" font-weight="bold" font-size="5.0" y="117.5" x="0.0">Created by Kang panjai</text><text fill="#000000" font-family="Arbeit Regular, Helvetica, Arial-Unicode, Arial, Sans-serif" font-weight="bold" font-size="5.0" y="122.5" x="0.0">from Noun Project</text></svg>