<svg xml:space="preserve" style="max-height: 500px" viewBox="1.7500000000000002 19.25 96.25 61.5" y="0px" x="0px" version="1.1" xmlns:xlink="http://www.w3.org/1999/xlink" xmlns="http://www.w3.org/2000/svg" width="96.25" height="61.5"><style type="text/css">
	.st0{fill-rule:evenodd;clip-rule:evenodd;}
</style><g><g><path d="M96.7386551,47.9037628C84.5263519,30.1625767,65.9840698,19.7993984,49.9998245,19.7993984    S15.4734907,30.1627636,3.2591183,47.9037628C2.8652053,48.4758759,2.4999993,49.2379379,2.4999993,50    c0,0.7628136,0.365206,1.5234032,0.759119,2.0962372c12.2145596,17.741188,30.7564678,28.1043625,46.7407074,28.1043625    s34.5263367-10.3633652,46.7388306-28.1043625C97.1347961,51.5233879,97.5,50.7627983,97.5,50    C97.5,49.2379227,97.1347961,48.4758606,96.7386551,47.9037628z M49.9998245,71.8122635    c-12.0458603,0-21.8124542-9.7662201-21.8124542-21.8124542S37.9535904,28.187355,49.9998245,28.187355    s21.8124542,9.7662201,21.8124542,21.8124542S62.0460587,71.8122635,49.9998245,71.8122635z"/></g><g><path d="M58.2841148,47.671917c-3.288269,0-5.956768-2.6675606-5.956768-5.9567719    c0-2.3097954,1.3165131-4.3080139,3.2360535-5.297039c-1.7170601-0.7053833-3.5938148-1.1000328-5.5648918-1.1000328    c-8.1074753,0-14.6811829,6.5737076-14.6811829,14.6811829c0,8.1067238,6.5737076,14.6811867,14.6819382,14.6811867    c8.1089821,0,14.681179-6.5729561,14.681179-14.6811867c0-1.9718285-0.3946686-3.8486557-1.1000252-5.5656433    c-0.9873886,1.9209366-2.9857368,3.2383156-5.2962875,3.2383156L58.2841148,47.671917z"/></g></g><text font-family="'Helvetica Neue', Helvetica, Arial-Unicode, Arial, Sans-serif" font-weight="bold" font-size="5px" fill="#000000" y="115" x="0">Created by zackwillshon</text><text font-family="'Helvetica Neue', Helvetica, Arial-Unicode, Arial, Sans-serif" font-weight="bold" font-size="5px" fill="#000000" y="120" x="0">from the Noun Project</text></svg>