<svg viewBox="0.9459459459459465 9.169999999999998 98.37837837837837 81.53999999999999" version="1.1" xmlns="http://www.w3.org/2000/svg" style="max-height: 500px" width="98.37837837837837" height="81.53999999999999">
 <path d="m6.168 24.238c-0.53906 0-0.97266-0.4375-0.97266-0.97266 0-0.53906 0.4375-0.97266 0.97266-0.97266h12.348v-2.8047c0-1.6055 0.65625-3.0664 1.7109-4.1211 1.0547-1.0547 2.5156-1.7109 4.1211-1.7109h7.5586c1.6055 0 3.0664 0.65625 4.1211 1.7109 1.0547 1.0547 1.7148 2.5156 1.7148 4.1211v2.8047h56.094c0.53906 0 0.97266 0.4375 0.97266 0.97266 0 0.53906-0.4375 0.97266-0.97266 0.97266h-56.094v2.8047c0 1.5977-0.65625 3.0586-1.7148 4.1133-1.0664 1.0625-2.5234 1.7188-4.1211 1.7188h-7.5586c-1.6055 0-3.0625-0.65625-4.1211-1.7109-1.0547-1.0547-1.7109-2.5156-1.7109-4.1211v-2.8047zm34.312 42.422c-1.5117 1.3789-2.5312 3.2969-2.7461 5.4375-0.003906 0.53516-0.4375 0.96875-0.97266 0.96875h-30.848c-0.9375 0-1.7891 0.38281-2.4062 1-0.61719 0.61719-1 1.4688-1 2.4062v0.51953c0 0.9375 0.38672 1.7891 1 2.4062 0.61719 0.61719 1.4688 1 2.4062 1h30.848c0.49609 0.003906 0.92188 0.38672 0.96484 0.88672 0.19531 2.1758 1.2188 4.1211 2.7539 5.5195 1.5156 1.3828 3.5312 2.2305 5.7422 2.2305h7.5586c2.207 0 4.2266-0.84375 5.7422-2.2305 1.5117-1.3789 2.5273-3.2969 2.7422-5.4375 0.003906-0.53516 0.4375-0.96875 0.97266-0.96875h30.852c0.9375 0 1.7891-0.38281 2.4062-1 0.61719-0.61719 1-1.4688 1-2.4062v-0.51953c0-0.9375-0.38281-1.7891-1-2.4062-0.61719-0.61719-1.4688-1-2.4062-1h-30.852c-0.49609-0.003906-0.92188-0.38672-0.96484-0.88672-0.19531-2.1758-1.2227-4.125-2.7539-5.5195-1.5156-1.3828-3.5352-2.2305-5.7422-2.2305h-7.5586c-2.207 0-4.2266 0.84766-5.7422 2.2305zm40.918-6.5859c1.5117-1.3789 2.5312-3.2969 2.7461-5.4375 0.003907-0.53516 0.4375-0.96875 0.97266-0.96875h8.9766c0.9375 0 1.7891-0.38281 2.4062-1 0.61719-0.61719 1-1.4688 1-2.4062v-0.51953c0-0.9375-0.38672-1.7891-1-2.4062-0.61719-0.61719-1.4688-1-2.4062-1h-8.9766c-0.49609-0.003907-0.92188-0.38672-0.96484-0.88672-0.19531-2.1758-1.2227-4.1211-2.7539-5.5195-1.5156-1.3828-3.5352-2.2305-5.7422-2.2305h-7.5586c-2.207 0-4.2266 0.84766-5.7422 2.2305-1.5117 1.3789-2.5273 3.2969-2.7422 5.4375-0.003906 0.53516-0.4375 0.96875-0.97266 0.96875h-52.723c-0.9375 0-1.7891 0.38281-2.4062 1-0.61719 0.61719-1 1.4688-1 2.4062v0.51953c0 0.9375 0.38672 1.7891 1 2.4062 0.61719 0.61719 1.4688 1 2.4062 1h52.723c0.49609 0.003906 0.92188 0.38672 0.96484 0.88672 0.19531 2.1758 1.2227 4.125 2.7539 5.5195 1.5156 1.3828 3.5352 2.2305 5.7422 2.2305h7.5586c2.207 0 4.2266-0.84766 5.7422-2.2305zm-62.793-46.887c-1.5117 1.3789-2.5273 3.2969-2.7422 5.4375-0.003906 0.53516-0.4375 0.96875-0.97266 0.96875h-8.9766c-0.9375 0-1.7891 0.38281-2.4062 1-0.61719 0.61719-1 1.4688-1 2.4062v0.51953c0 0.9375 0.38281 1.7891 1 2.4062 0.61719 0.61719 1.4688 1 2.4062 1h8.9766c0.49609 0.003907 0.92188 0.38672 0.96484 0.88672 0.19531 2.1758 1.2227 4.125 2.7539 5.5195 1.5156 1.3828 3.5352 2.2305 5.7422 2.2305h7.5586c2.207 0 4.2266-0.84766 5.7422-2.2305 1.5117-1.3789 2.5312-3.2969 2.7461-5.4375 0.003906-0.53516 0.4375-0.96875 0.97266-0.96875h52.723c0.9375 0 1.7891-0.38281 2.4062-1 0.61719-0.61719 1-1.4688 1-2.4062v-0.51953c0-0.9375-0.38672-1.7891-1-2.4062-0.61719-0.61719-1.4688-1-2.4062-1h-52.723c-0.49609-0.003906-0.92188-0.38672-0.96484-0.88672-0.19531-2.1758-1.2227-4.1211-2.7539-5.5195-1.5156-1.3828-3.5352-2.2305-5.7422-2.2305h-7.5586c-2.207 0-4.2266 0.84375-5.7422 2.2305zm27.617 53.934h7.5586c1.6055 0 3.0625 0.65625 4.1211 1.7109 1.0547 1.0547 1.7109 2.5156 1.7109 4.1211v2.8047h34.223c0.53906 0 0.97266 0.4375 0.97266 0.97266 0 0.53906-0.4375 0.97266-0.97266 0.97266h-34.223v2.8047c0 1.6055-0.65625 3.0664-1.7109 4.1211-1.0547 1.0547-2.5156 1.7109-4.1211 1.7109h-7.5586c-1.6055 0-3.0664-0.65625-4.1211-1.7109-1.0547-1.0547-1.7109-2.5156-1.7109-4.1211v-2.8047h-34.219c-0.53906 0-0.97266-0.4375-0.97266-0.97266 0-0.53906 0.4375-0.97266 0.97266-0.97266h34.219v-2.8047c0-1.5977 0.65625-3.0586 1.7109-4.1133 1.0664-1.0625 2.5234-1.7188 4.1211-1.7188zm7.5586 1.9492h-7.5586c-1.0703 0-2.0391 0.4375-2.7422 1.1367-0.70703 0.70703-1.1406 1.6758-1.1406 2.7461v7.5586c0 1.0664 0.4375 2.0391 1.1406 2.7422s1.6758 1.1406 2.7422 1.1406h7.5586c1.0664 0 2.0391-0.4375 2.7422-1.1406 0.70312-0.70312 1.1406-1.6758 1.1406-2.7422v-7.5586c0-1.0664-0.4375-2.0391-1.1406-2.7422-0.70313-0.70313-1.6758-1.1406-2.7422-1.1406zm21.871-26.734h-7.5586c-1.0664 0-2.0391 0.4375-2.7422 1.1406-0.70312 0.70313-1.1406 1.6758-1.1406 2.7422v7.5586c0 1.0664 0.4375 2.0391 1.1406 2.7422 0.70313 0.70312 1.6758 1.1406 2.7422 1.1406h7.5586c1.0703 0 2.0391-0.4375 2.7422-1.1367 0.70703-0.70703 1.1445-1.6758 1.1445-2.7461v-7.5586c0-1.0703-0.4375-2.0391-1.1367-2.7422-0.70703-0.70703-1.6758-1.1406-2.7461-1.1406zm-7.5586-1.9492h7.5586c1.5977 0 3.0547 0.65625 4.1133 1.7109 1.0625 1.0664 1.7188 2.5234 1.7188 4.1211v2.8047h12.344c0.53906 0 0.97266 0.4375 0.97266 0.97266 0 0.53906-0.4375 0.97266-0.97266 0.97266h-12.344v2.8047c0 1.5977-0.65625 3.0547-1.7109 4.1133-1.0664 1.0625-2.5234 1.7188-4.1211 1.7188h-7.5586c-1.6055 0-3.0625-0.65625-4.1211-1.7109-1.0547-1.0547-1.7109-2.5156-1.7109-4.1211v-2.8047h-56.094c-0.53906 0-0.97266-0.4375-0.97266-0.97266 0-0.53906 0.4375-0.97266 0.97266-0.97266h56.094v-2.8047c0-1.6055 0.65625-3.0664 1.7109-4.1211 1.0547-1.0547 2.5156-1.7109 4.1211-1.7109zm-47.633-17.148v3.8047c0 1.0664 0.4375 2.0391 1.1406 2.7422 0.70313 0.70312 1.6758 1.1406 2.7422 1.1406h7.5586c1.0703 0 2.0391-0.4375 2.7422-1.1367 0.70703-0.70703 1.1445-1.6758 1.1445-2.7461v-7.5586c0-1.0664-0.4375-2.0391-1.1445-2.7422-0.70312-0.70313-1.6758-1.1406-2.7422-1.1406h-7.5586c-1.0664 0-2.0391 0.4375-2.7422 1.1406-0.70312 0.70312-1.1406 1.6758-1.1406 2.7422z"/>
<text fill="#000000" font-family="Arbeit Regular, Helvetica, Arial-Unicode, Arial, Sans-serif" font-weight="bold" font-size="5.0" y="117.5" x="0.0">Created by Kartika Sholehatin</text><text fill="#000000" font-family="Arbeit Regular, Helvetica, Arial-Unicode, Arial, Sans-serif" font-weight="bold" font-size="5.0" y="122.5" x="0.0">from Noun Project</text></svg>