<svg xml:space="preserve" viewBox="0 19.25 100.25 61.5" y="0px" x="0px" version="1.1" xmlns:xlink="http://www.w3.org/1999/xlink" xmlns="http://www.w3.org/2000/svg" style="max-height: 500px" width="100.25" height="61.5"><path d="M91.46,20.044H8.543c-4.619,0-8.372,3.745-8.372,8.369V71.59c0,4.622,3.753,8.366,8.372,8.366H91.46  c4.625,0,8.368-3.745,8.368-8.366V28.413C99.828,23.789,96.085,20.044,91.46,20.044z M30.313,30.694  c5.061,0,9.206,4.135,9.206,9.199c0,5.065-4.146,9.168-9.206,9.168c-5.064,0-9.167-4.103-9.167-9.168  C21.146,34.83,25.249,30.694,30.313,30.694z M42.355,69.272c-1.118,0-2.358-0.194-3.673-0.475c-1.558-0.281-3.271-0.596-5.022-0.596  h-6.659c-1.752,0-3.469,0.315-5.022,0.596c-3.147,0.595-5.855,0.671-7.332-0.961c-0.841-0.951-1.283-2.352-1.283-4.307  c0-7.485,6.144-13.587,13.636-13.587h6.659c7.492,0,13.592,6.102,13.592,13.587C47.251,68.277,44.583,69.272,42.355,69.272z   M84.602,63.816H56.06v-3.985h28.542V63.816z M84.602,51.975H56.06v-3.985h28.542V51.975z M84.602,40.174H56.06v-3.985h28.542  V40.174z"/><text font-family="'Helvetica Neue', Helvetica, Arial-Unicode, Arial, Sans-serif" font-weight="bold" font-size="5px" fill="#000000" y="115" x="0">Created by MUHAMAD KHOTIBUL UMAM</text><text font-family="'Helvetica Neue', Helvetica, Arial-Unicode, Arial, Sans-serif" font-weight="bold" font-size="5px" fill="#000000" y="120" x="0">from the Noun Project</text></svg>