<svg y="0px" x="0px" viewBox="11.04 3.3600000000000003 42.24 57.44" data-name="Layer 1" xmlns="http://www.w3.org/2000/svg" style="max-height: 500px" width="42.24" height="57.44"><title>left arrow_9</title><path d="M48,59.09a3,3,0,0,1-1.76-.57L15,36a4.91,4.91,0,0,1,0-8L46.24,5.48A3,3,0,0,1,51,7.91a1,1,0,0,1-.2.6L34.59,30.2a3,3,0,0,0,0,3.6L50.8,55.49a1,1,0,0,1,.2.6,3,3,0,0,1-3,3Z"/><path d="M48,6.91a.92.92,0,0,0-.57.19L16.21,29.64a2.91,2.91,0,0,0,0,4.72L47.42,56.9a1,1,0,0,0,1,.08,1,1,0,0,0,.51-.61L33,35a5,5,0,0,1,0-6L49,7.63a1,1,0,0,0-1-.72Z"/><text font-family="'Helvetica Neue', Helvetica, Arial-Unicode, Arial, Sans-serif" font-weight="bold" font-size="5px" fill="#000000" y="79" x="0">Created by Ivanda arief budiarto</text><text font-family="'Helvetica Neue', Helvetica, Arial-Unicode, Arial, Sans-serif" font-weight="bold" font-size="5px" fill="#000000" y="84" x="0">from the Noun Project</text></svg>