<svg y="0px" x="0px" viewBox="5.28 0 86.16 96.24000000000001" data-name="Layer 1" xmlns="http://www.w3.org/2000/svg" style="max-height: 500px" width="86.16" height="96.24000000000001"><path d="M88.967,85.4a1.333,1.333,0,0,1,0,1.884L81.644,94.61a1.333,1.333,0,0,1-1.884,0L37.754,52.6a6.509,6.509,0,0,1,0-9.206L79.76,1.39a1.333,1.333,0,0,1,1.884,0l7.323,7.323a1.333,1.333,0,0,1,0,1.884L51.563,48ZM22.36,48l37.4-37.4a1.333,1.333,0,0,0,0-1.884L52.44,1.39a1.333,1.333,0,0,0-1.884,0L8.55,43.4a6.509,6.509,0,0,0,0,9.206L50.556,94.61a1.333,1.333,0,0,0,1.884,0l7.323-7.323a1.333,1.333,0,0,0,0-1.884Z"/><text font-family="'Helvetica Neue', Helvetica, Arial-Unicode, Arial, Sans-serif" font-weight="bold" font-size="5px" fill="#000000" y="111" x="0">Created by Zulikhah</text><text font-family="'Helvetica Neue', Helvetica, Arial-Unicode, Arial, Sans-serif" font-weight="bold" font-size="5px" fill="#000000" y="116" x="0">from the Noun Project</text></svg>