<svg xml:space="preserve" viewBox="7.68 1.44 53.28 61.6" y="0px" x="0px" version="1.1" xmlns:xlink="http://www.w3.org/1999/xlink" xmlns="http://www.w3.org/2000/svg" style="max-height: 500px" width="53.28" height="61.6"><path d="M10,51v9c0,0.55,0.45,1,1,1h31.27c-1.109-1.52-1.84-3.31-2.13-5.22C40.05,55.24,40,54.66,40,54c0-3.05,1.19-6.02,3.27-8.22  V36.06C39.7,32.89,35.01,31,30,31C18.97,31,10,39.97,10,51z"/><path d="M42,15c0-6.617-5.383-12-12-12S18,8.383,18,15s5.383,12,12,12S42,21.617,42,15z"/><path d="M59,11.6c0-3.05-1.95-5.64-4.67-6.6v7.93h-4.66V5C46.95,5.96,45,8.55,45,11.6v0.131c0.05,2.439,1.33,4.569,3.27,5.789V48.08  c-0.42,0.26-0.81,0.57-1.16,0.92C45.811,50.26,45,52.04,45,54c0,0.34,0.02,0.67,0.08,1c0.48,3.39,3.4,6,6.92,6c3.859,0,7-3.14,7-7  c0-2.08-0.91-3.95-2.359-5.23c-0.281-0.26-0.591-0.489-0.91-0.689V17.52C57.7,16.28,59,14.09,59,11.6z M55.27,55.87L52,57.73  l-3.27-1.86v-3.74L51,50.84l1-0.57l3.27,1.86V55.87z"/><text font-family="'Helvetica Neue', Helvetica, Arial-Unicode, Arial, Sans-serif" font-weight="bold" font-size="5px" fill="#000000" y="79" x="0">Created by Mask Icon</text><text font-family="'Helvetica Neue', Helvetica, Arial-Unicode, Arial, Sans-serif" font-weight="bold" font-size="5px" fill="#000000" y="84" x="0">from the Noun Project</text></svg>