<svg y="0px" x="0px" viewBox="2.88 12.8 58.08 38.56" xmlns="http://www.w3.org/2000/svg" style="max-height: 500px" width="58.08" height="38.56"><title>Motorcycle</title><g><path d="M34.28,15.43H38V18H34.28A1.28,1.28,0,0,1,33,16.72h0A1.28,1.28,0,0,1,34.28,15.43ZM44.49,29.94a2,2,0,0,1-2,2.07h-.76l-2,6A2.84,2.84,0,0,1,37,40H28a2.85,2.85,0,0,1-2.51-1.51l-3.14.64c0,.25,0,.51,0,.76a8.69,8.69,0,1,1-2.63-6.21l2.48-2.05-.8-1.69H44.49ZM17.22,38.27l1.1-.23c-.07-.17-.15-.32-.24-.49Zm1.46,1.61-3,.62a2.1,2.1,0,1,1-2-2.71,2.14,2.14,0,0,1,.88.19l2.31-1.92a5,5,0,0,0-3.19-1.18,5,5,0,1,0,5,5ZM22,37.3l2.67-.55-1.57-3.33L21,35.17A9,9,0,0,1,22,37.3ZM59,39.89a8.68,8.68,0,1,1-12.51-7.77l-5.17-14.5H39v-2h2.93a1.14,1.14,0,0,1,1.08.76l5.37,15.07a8.39,8.39,0,0,1,1.95-.23A8.67,8.67,0,0,1,59,39.89Zm-3.66,0a5,5,0,0,0-5-5,5.35,5.35,0,0,0-.7.07l1,2.87a2.12,2.12,0,1,1-1.89.68l-1-2.88a5,5,0,1,0,7.6,4.27ZM47.13,25.14l1.61.4c.46.11.95-.12.95-.46V19.76c0-.34-.49-.57-.95-.46l-3.39.85ZM42,21.43a1.39,1.39,0,0,0-1.32-.95H37.27a6.2,6.2,0,0,0-2.4.49l-8.72,3.74H25V26a.5.5,0,0,1-1,0V24.71H22V26a.5.5,0,0,1-1,0V24.71H19V26a.5.5,0,0,1-1,0V24.71H16V26a.5.5,0,0,1-1,0V24.71H13V26a.5.5,0,0,1-1,0V24.71h-.65a2.12,2.12,0,0,0,0,4.23H44.48Z"/></g><text font-family="'Helvetica Neue', Helvetica, Arial-Unicode, Arial, Sans-serif" font-weight="bold" font-size="5px" fill="#000000" y="79" x="0">Created by Dio Sugiharto</text><text font-family="'Helvetica Neue', Helvetica, Arial-Unicode, Arial, Sans-serif" font-weight="bold" font-size="5px" fill="#000000" y="84" x="0">from the Noun Project</text></svg>