<svg viewBox="8.243243243243242 1.0700000000000003 81.89189189189189 97.74" version="1.1" xmlns="http://www.w3.org/2000/svg" style="max-height: 500px" width="81.89189189189189" height="97.74">
 <path d="m57.406 86.434c-7.4648-13.434 4.7773-29.84 19.781-26.535v-30.414c-2.7773 0.007813-13.871-0.003906-16.867 0-2.3594 0-4.2852-1.9062-4.2852-4.2656v-16.891h-36.973c-3.5156 0-6.3867 2.8711-6.3867 6.4102v69.57c0 3.5352 2.8711 6.4102 6.3867 6.4102h41.578c-1.3047-1.2891-2.4023-2.7227-3.2383-4.2852zm0.76953-34.762h-26.492c-2.8086-0.035156-2.8242-4.2344 0-4.2852h26.492c2.8164 0.039062 2.8242 4.2578 0 4.2852zm6.3242-14.191c2.8047 0.050781 2.8242 4.2461 0 4.2852h-39.137c-2.8008-0.035156-2.8281-4.2305 0-4.2852h39.137z"/>
 <path d="m75.859 25.199c-0.42969-0.53906-15.023-15.145-15.539-15.539-0.007812 3.582 0.007813 11.898 0 15.559 3.6836-0.023438 11.934-0.015625 15.539-0.023438z"/>
 <path d="m83.254 67.875c-8.4961-8.7617-23.988-2.3477-23.77 9.8594-0.15625 7.4883 6.4531 14.082 13.93 13.93 12.184 0.17578 18.637-15.305 9.8359-23.789zm-3.1094 12h-4.5859v4.5859c0 1.1992-0.96484 2.1445-2.1445 2.1445-1.1992 0-2.1445-0.94141-2.1445-2.1445v-4.5859h-4.6094c-1.1797 0-2.1445-0.96484-2.1445-2.1445 0-1.1797 0.96484-2.1445 2.1445-2.1445h4.6094v-4.6094c0-1.1797 0.94141-2.1445 2.1445-2.1445 1.1797 0 2.1445 0.96484 2.1445 2.1445v4.6094h4.5859c2.8125 0.050781 2.8203 4.2344 0 4.2852z"/>
<text fill="#000000" font-family="Arbeit Regular, Helvetica, Arial-Unicode, Arial, Sans-serif" font-weight="bold" font-size="5.0" y="117.5" x="0.0">Created by Selot Lo</text><text fill="#000000" font-family="Arbeit Regular, Helvetica, Arial-Unicode, Arial, Sans-serif" font-weight="bold" font-size="5.0" y="122.5" x="0.0">from Noun Project</text></svg>