<svg y="0px" x="0px" viewBox="0 2.4 24.18 19.26" data-name="Layer 1" xmlns="http://www.w3.org/2000/svg" style="max-height: 500px" width="24.18" height="19.26"><path d="M21.97,11.81a1.285,1.285,0,0,0-.17-.42h-.01A11.309,11.309,0,0,0,9.46,6.04l1.75,1.75A6.851,6.851,0,0,1,12,7.75,9.25,9.25,0,0,1,19.8,12a9.161,9.161,0,0,1-2.1,2.28l1.44,1.44a11.421,11.421,0,0,0,2.65-3.11h.01A1.152,1.152,0,0,0,21.97,11.81Z"/><path d="M12.46,9.04l2.5,2.5A3.014,3.014,0,0,0,12.46,9.04Z"/><path d="M18.71,17.29l-.74-.74L16.5,15.08l-1.8-1.8-1.99-1.99L10.72,9.3,9.51,8.09,7.93,6.51,6.71,5.29l-1-1A1,1,0,0,0,4.29,5.71L6.03,7.45a11.192,11.192,0,0,0-3.82,3.94H2.2a1.116,1.116,0,0,0,0,1.22h.01A11.237,11.237,0,0,0,12,18.25a11.066,11.066,0,0,0,4.07-.76l2.22,2.22a1.014,1.014,0,0,0,1.42,0,1.008,1.008,0,0,0,0-1.42ZM12,16.25A9.25,9.25,0,0,1,4.2,12,9.253,9.253,0,0,1,7.5,8.92l1.8,1.8A2.773,2.773,0,0,0,9,12a3.009,3.009,0,0,0,3,3,2.773,2.773,0,0,0,1.28-.3l1.21,1.21A9.3,9.3,0,0,1,12,16.25Z"/><text font-family="'Helvetica Neue', Helvetica, Arial-Unicode, Arial, Sans-serif" font-weight="bold" font-size="5px" fill="#000000" y="39" x="0">Created by Nira Inds</text><text font-family="'Helvetica Neue', Helvetica, Arial-Unicode, Arial, Sans-serif" font-weight="bold" font-size="5px" fill="#000000" y="44" x="0">from the Noun Project</text></svg>