<svg viewBox="23.378378378378383 8.900000000000002 52.97297297297297 82.35" version="1.1" xmlns="http://www.w3.org/2000/svg" style="max-height: 500px" width="52.97297297297297" height="82.35">
 <path d="m25 17.5v65c0 1.9883 0.78906 3.8984 2.1953 5.3047s3.3164 2.1953 5.3047 2.1953h35c1.9883 0 3.8984-0.78906 5.3047-2.1953s2.1953-3.3164 2.1953-5.3047v-65c0-1.9883-0.78906-3.8984-2.1953-5.3047s-3.3164-2.1953-5.3047-2.1953h-35c-1.9883 0-3.8984 0.78906-5.3047 2.1953s-2.1953 3.3164-2.1953 5.3047zm21.25-2.5h7.5c0.69141 0 1.25 0.55859 1.25 1.25s-0.55859 1.25-1.25 1.25h-7.5c-0.69141 0-1.25-0.55859-1.25-1.25s0.55859-1.25 1.25-1.25zm15 0c0.69141 0 1.25 0.55859 1.25 1.25s-0.55859 1.25-1.25 1.25-1.25-0.55859-1.25-1.25 0.55859-1.25 1.25-1.25zm-31.25 7.5h40v52.5h-40zm20 56.25c2.0703 0 3.75 1.6797 3.75 3.75s-1.6797 3.75-3.75 3.75-3.75-1.6797-3.75-3.75 1.6797-3.75 3.75-3.75z"/>
<text fill="#000000" font-family="Arbeit Regular, Helvetica, Arial-Unicode, Arial, Sans-serif" font-weight="bold" font-size="5.0" y="117.5" x="0.0">Created by BnB Studio</text><text fill="#000000" font-family="Arbeit Regular, Helvetica, Arial-Unicode, Arial, Sans-serif" font-weight="bold" font-size="5.0" y="122.5" x="0.0">from Noun Project</text></svg>