<svg y="0px" x="0px" viewBox="-0.1351351351351351 0.8000000000000007 101.08108108108108 95.58" data-name="Layer 1" xmlns="http://www.w3.org/2000/svg" style="max-height: 500px" width="101.08108108108108" height="95.58"><defs><style>.cls-1{fill-rule:evenodd;}</style></defs><title>a</title><path d="M65.624,67.872a1.059,1.059,0,0,1,.315-.571c.02-.019.041-.038.062-.055.095-.163.187-.328.276-.493a.958.958,0,0,1,.066-.122,19.824,19.824,0,1,0-35.031-.007,1.1,1.1,0,0,1,.07.131A19.841,19.841,0,0,0,57.6,75.117c.014-.015.028-.029.043-.043a1.059,1.059,0,0,1,.578-.278,19.966,19.966,0,0,0,7.4-6.924ZM37.061,44.828l.025-.02a17.173,17.173,0,0,1,24.248.761h0l.021.025a17.2,17.2,0,0,1,2.593,3.6,1.1,1.1,0,0,1,.081.151A17.235,17.235,0,0,1,65.5,61.464a1.116,1.116,0,0,1-.046.181,17.057,17.057,0,0,1-2.989,6.132,1.111,1.111,0,0,1-.094.123A17.267,17.267,0,0,1,60.6,69.84l0,0-.025.021A17.174,17.174,0,0,1,36.3,69.078q-.534-.572-1.007-1.176a1.066,1.066,0,0,1-.1-.126,17.062,17.062,0,0,1-2.991-6.135,1.072,1.072,0,0,1-.044-.171,17.229,17.229,0,0,1,1.466-12.126,1.045,1.045,0,0,1,.078-.148,17.137,17.137,0,0,1,3.358-4.366l0,0ZM15.988,22.41H10.076a.194.194,0,0,0-.141.056l0,0a.194.194,0,0,0-.056.141v2.075a2.286,2.286,0,0,0,2.276,2.277h2.476l1.361-4.553Zm69.385,4.553h2.476a2.288,2.288,0,0,0,2.276-2.277V22.611a.2.2,0,0,0-.06-.141v0a.194.194,0,0,0-.141-.056H84.012l1.361,4.553Zm-1.788,1.425.505,1.69H15.91l.5-1.69a1.129,1.129,0,0,0,.035-.117l1.962-6.561a1.09,1.09,0,0,0,.034-.115l2.781-9.3A6.614,6.614,0,0,1,27.667,7.5H72.333a6.614,6.614,0,0,1,6.44,4.794l2.781,9.3a1.09,1.09,0,0,0,.034.115l1.962,6.561a.928.928,0,0,0,.035.117ZM20.018,43.828a4.126,4.126,0,1,0,1.209,2.918,4.114,4.114,0,0,0-1.209-2.918ZM17.1,40.5a6.251,6.251,0,1,1-4.42,1.831A6.227,6.227,0,0,1,17.1,40.5Zm68.716,3.332a4.128,4.128,0,1,0,1.208,2.918,4.116,4.116,0,0,0-1.208-2.918ZM82.9,40.5a6.251,6.251,0,1,1-4.419,1.831A6.228,6.228,0,0,1,82.9,40.5ZM10.746,68.253v6.106A1.449,1.449,0,0,0,12.188,75.8h8.681a1.451,1.451,0,0,0,1.442-1.442V68.253Zm66.943,0v6.106A1.451,1.451,0,0,0,79.131,75.8h8.681a1.449,1.449,0,0,0,1.442-1.442V68.253Zm-43.054-5.9H63.022a14.951,14.951,0,0,1-1.975,3.772H36.612a14.947,14.947,0,0,1-1.977-3.772Zm.617-11.528H62.406a15.1,15.1,0,0,1,1.2,9.4H34.056a15.091,15.091,0,0,1,1.2-9.4Zm3.31-4.5a15.049,15.049,0,0,1,21.251.716l.021.025v0A15.193,15.193,0,0,1,61.162,48.7H36.495a15.159,15.159,0,0,1,2.043-2.353l.025-.021Zm-4.738-5a21.966,21.966,0,0,0-5.1,24.8H6.815a1.076,1.076,0,0,1-1.071-1.071V41.423A9.249,9.249,0,0,1,14.965,32.2h70.07a9.249,9.249,0,0,1,9.221,9.221V65.058a1.076,1.076,0,0,1-1.071,1.071H68.936a21.945,21.945,0,0,0-35.112-24.8ZM65.718,79.194a5.148,5.148,0,0,0,.8-.616l2.345-2.2.025-.02,0,0a5.075,5.075,0,0,0,.646-.743L81.233,88.1a2.616,2.616,0,0,1-3.821,3.575L65.718,79.194Zm2.517-5.68a3,3,0,0,1-.821,1.323l-.025.021h0l-2.321,2.176a3,3,0,0,1-1.365.73.64.64,0,0,0-.063.014,3.068,3.068,0,0,1-.733.064,3.01,3.01,0,0,1-2.1-.95l-.69-.736a22.134,22.134,0,0,0,6.752-6.32l.689.735.021.025h0a3.008,3.008,0,0,1,.787,2.137,3.058,3.058,0,0,1-.108.711c-.008.023-.015.047-.021.07ZM37.712,54.2a1.062,1.062,0,0,1,2.124,0v3.465a1.062,1.062,0,0,1-2.124,0V54.2Zm6.6,0a1.062,1.062,0,0,1,2.124,0v3.465a1.062,1.062,0,0,1-2.124,0V54.2Zm6.6,0a1.062,1.062,0,0,1,2.124,0v3.465a1.062,1.062,0,0,1-2.124,0V54.2Zm6.6,0a1.063,1.063,0,0,1,2.125,0v3.465a1.063,1.063,0,0,1-2.125,0Z" class="cls-1"/><text fill="#000000" font-family="Arbeit Regular, Helvetica, Arial-Unicode, Arial, Sans-serif" font-weight="bold" font-size="5.0" y="117.5" x="0.0">Created by Trend Icons</text><text fill="#000000" font-family="Arbeit Regular, Helvetica, Arial-Unicode, Arial, Sans-serif" font-weight="bold" font-size="5.0" y="122.5" x="0.0">from Noun Project</text></svg>