<svg viewBox="14.18918918918919 15.379999999999999 71.62162162162163 70.47" version="1.1" xmlns="http://www.w3.org/2000/svg" style="max-height: 500px" width="71.62162162162163" height="70.47">
 <path fill-rule="evenodd" d="m23.664 25.391 2.5352-4.8906c0.80859-1.5547 2.4102-2.5312 4.1641-2.5312h39.273c1.7539 0 3.3555 0.97656 4.1641 2.5312l2.5352 4.8906zm-1.6211 3.125h55.914l3.8477 7.4219h-63.609zm-4.8555 10.547h65.625v39.844c0 2.5898-2.0977 4.6875-4.6875 4.6875h-56.25c-2.5898 0-4.6875-2.0977-4.6875-4.6875zm8.5938 25c0-1.7266 1.3984-3.125 3.125-3.125h25.781c1.7266 0 3.125 1.3984 3.125 3.125v8.5938c0 1.7266-1.3984 3.125-3.125 3.125h-25.781c-1.7266 0-3.125-1.3984-3.125-3.125zm28.906 0h-25.781v8.5938h25.781z"/>
<text fill="#000000" font-family="Arbeit Regular, Helvetica, Arial-Unicode, Arial, Sans-serif" font-weight="bold" font-size="5.0" y="117.5" x="0.0">Created by Marz Gallery</text><text fill="#000000" font-family="Arbeit Regular, Helvetica, Arial-Unicode, Arial, Sans-serif" font-weight="bold" font-size="5.0" y="122.5" x="0.0">from Noun Project</text></svg>