<svg xml:space="preserve" style="max-height: 500px" viewBox="4.64 11.36 54.88 41.92" y="0px" x="0px" version="1.1" xmlns:xlink="http://www.w3.org/1999/xlink" xmlns="http://www.w3.org/2000/svg" width="54.88" height="41.92"><g><path fill="none" d="M15.5,42.3c-1.4,0-2.5,1.1-2.5,2.5c0,1.4,1.1,2.5,2.5,2.5s2.5-1.1,2.5-2.5C18,43.5,16.9,42.3,15.5,42.3   z" style=""/><path fill="none" d="M49.7,42.3c-1.4,0-2.5,1.1-2.5,2.5c0,1.4,1.1,2.5,2.5,2.5s2.5-1.1,2.5-2.5   C52.2,43.5,51.1,42.3,49.7,42.3z" style=""/><path d="M30.1,40.5h4.7l1.7-3.3c2.2-4.4,6.7-7.2,11.6-7.2h6.3v-3.3l-8.6-4.5h-5.5v5.6c0,0.6-0.4,1-1,1h-7.3v0.7c0,0.5-0.5,1-1,1   h-5.5L30.1,40.5z"/><path d="M30.1,28.3c0-1.1-0.9-2-2-2H16.8c-1.6,0-2.9-1-3.3-2.5h-2.4v4.7h19V28.3z"/><path d="M49.7,36.3c0.6,0,1.2,0.1,1.7,0.2l0.3-1.5h-3.6c-3,0-5.8,1.7-7.1,4.4l-1,2l1.6,0.9C42.7,38.8,45.9,36.3,49.7,36.3z"/><path d="M10.3,33.5c-0.2,1-0.5,2.9,0.4,4.3c1.4-0.9,3-1.5,4.8-1.5c3.4,0,6.4,2,7.7,5l1.4-0.8l-3.2-7H10.3z"/><path d="M48.1,33h8v-1h-8c-4.2,0-8,2.3-9.8,6.1l-1.9,3.9c-0.2,0.3-0.5,0.6-0.9,0.6h-6c-0.4,0-0.8-0.2-0.9-0.6l-5.1-11.4H7.8v1H22   c0.4,0,0.8,0.2,0.9,0.6l3.7,8.2c0,0,0,0,0.1,0c0.1,0.1,0.1,0.2,0.1,0.3l1.3,2.8h8.6l1.1-2.1l1.4-2.9C40.9,35.1,44.3,33,48.1,33z"/><path d="M15.5,38.3c-3.6,0-6.5,2.9-6.5,6.5c0,3.6,2.9,6.5,6.5,6.5c3.6,0,6.5-2.9,6.5-6.5C22,41.2,19.1,38.3,15.5,38.3z M15.5,47.3   c-1.4,0-2.5-1.1-2.5-2.5c0-1.4,1.1-2.5,2.5-2.5s2.5,1.1,2.5,2.5C18,46.2,16.9,47.3,15.5,47.3z"/><path d="M49.7,38.3c-3.6,0-6.5,2.9-6.5,6.5c0,3.6,2.9,6.5,6.5,6.5c3.6,0,6.5-2.9,6.5-6.5C56.2,41.2,53.3,38.3,49.7,38.3z    M49.7,47.3c-1.4,0-2.5-1.1-2.5-2.5c0-1.4,1.1-2.5,2.5-2.5s2.5,1.1,2.5,2.5C52.2,46.2,51.1,47.3,49.7,47.3z"/><path d="M45.1,20.2l-2.5-3.7h-1c-0.7-1.3-2.1-2.1-3.6-2.1h-1.4c0,0,0,0,0,0v-0.2c0-0.4-0.3-0.7-0.7-0.7h-2.6   c-1.1,0-1.9,0.9-1.9,1.9c0,1.1,0.9,1.9,1.9,1.9h2.6c0.4,0,0.7-0.3,0.7-0.7v-0.2c0,0,0,0,0,0H38c1,0,1.9,0.7,2.1,1.6l0.2,0.7v1.5   H45.1z"/></g><text font-family="'Helvetica Neue', Helvetica, Arial-Unicode, Arial, Sans-serif" font-weight="bold" font-size="5px" fill="#000000" y="79" x="0">Created by Andre Buand</text><text font-family="'Helvetica Neue', Helvetica, Arial-Unicode, Arial, Sans-serif" font-weight="bold" font-size="5px" fill="#000000" y="84" x="0">from the Noun Project</text></svg>