<svg viewBox="3.9189189189189193 3.7699999999999996 92.43243243243242 92.61000000000001" version="1.1" xmlns="http://www.w3.org/2000/svg" style="max-height: 500px" width="92.43243243243242" height="92.61000000000001">
 <path fill-rule="evenodd" d="m75 46.875h9.375c5.1797 0 9.375 4.1953 9.375 9.375v23.039c0 7.9844-6.4766 14.461-14.461 14.461h-2.3281c-0.82813 0-1.6367-0.070312-2.4258-0.20312 0.30078-0.91797 0.46484-1.9023 0.46484-2.9219zm-6.25 43.75c0 1.7266-1.3984 3.125-3.125 3.125h-50c-5.1797 0-9.375-4.1953-9.375-9.375v-68.75c0-2.4844 0.98828-4.8711 2.7461-6.6289 1.7578-1.7578 4.1406-2.7461 6.6289-2.7461h43.75c2.4883 0 4.8711 0.98828 6.6289 2.7461 1.7578 1.7578 2.7461 4.1445 2.7461 6.6289zm-29.078-46.875c1.082 0 2.1211 0.42969 2.8828 1.1953 0.76562 0.76563 1.1953 1.8008 1.1953 2.8828v1.2188c0 2.25-1.8242 4.0781-4.0781 4.0781h-11.547c-1.7266 0-3.125 1.3984-3.125 3.125s1.3984 3.125 3.125 3.125h6.25v3.125c0 1.7266 1.3984 3.125 3.125 3.125s3.125-1.3984 3.125-3.125v-3.168c5.2578-0.48047 9.375-4.9023 9.375-10.285v-1.2188c0-2.7383-1.0898-5.3672-3.0234-7.3047-1.9375-1.9375-4.5664-3.0234-7.3047-3.0234h-2.1445-0.050782-2.0156c-2.3242 0-4.2109-1.8867-4.2109-4.2109v-0.95312c0-2.3242 1.8867-4.2109 4.2109-4.2109h11.414c1.7266 0 3.125-1.3984 3.125-3.125s-1.3984-3.125-3.125-3.125h-6.25v-3.125c0-1.7266-1.3984-3.125-3.125-3.125s-3.125 1.3984-3.125 3.125v3.1797c-5.2695 0.54297-9.375 4.9961-9.375 10.406v0.95312c0 5.7773 4.6836 10.461 10.461 10.461zm-2.1719 34.375h15.625c1.7266 0 3.125-1.3984 3.125-3.125s-1.3984-3.125-3.125-3.125h-15.625c-1.7266 0-3.125 1.3984-3.125 3.125s1.3984 3.125 3.125 3.125zm-15.625 0h3.125c1.7266 0 3.125-1.3984 3.125-3.125s-1.3984-3.125-3.125-3.125h-3.125c-1.7266 0-3.125 1.3984-3.125 3.125s1.3984 3.125 3.125 3.125z"/>
<text fill="#000000" font-family="Arbeit Regular, Helvetica, Arial-Unicode, Arial, Sans-serif" font-weight="bold" font-size="5.0" y="117.5" x="0.0">Created by Yudhi Restu Pebriyanto</text><text fill="#000000" font-family="Arbeit Regular, Helvetica, Arial-Unicode, Arial, Sans-serif" font-weight="bold" font-size="5.0" y="122.5" x="0.0">from Noun Project</text></svg>