<svg y="0px" x="0px" viewBox="20.32 3.6799999999999997 41.12 56.8" data-name="Layer 1" xmlns="http://www.w3.org/2000/svg" style="max-height: 500px" width="41.12" height="56.8"><title>right arrow_9</title><path d="M25,59.09a3,3,0,0,1-3-3,1,1,0,0,1,.2-.6L38.41,33.8a3,3,0,0,0,0-3.6L22.2,8.51a1,1,0,0,1-.2-.6,3,3,0,0,1,4.76-2.43L58,28a4.91,4.91,0,0,1,0,8L26.76,58.52A3,3,0,0,1,25,59.09Z"/><path d="M24,56.37a1,1,0,0,0,.51.61,1,1,0,0,0,1-.08L56.79,34.36a2.91,2.91,0,0,0,0-4.72L25.58,7.1a1,1,0,0,0-1-.08,1,1,0,0,0-.51.61L40,29a5,5,0,0,1,0,6Z"/><text font-family="'Helvetica Neue', Helvetica, Arial-Unicode, Arial, Sans-serif" font-weight="bold" font-size="5px" fill="#000000" y="79" x="0">Created by Ivanda arief budiarto</text><text font-family="'Helvetica Neue', Helvetica, Arial-Unicode, Arial, Sans-serif" font-weight="bold" font-size="5px" fill="#000000" y="84" x="0">from the Noun Project</text></svg>