<svg viewBox="14.18918918918919 6.199999999999999 71.89189189189189 87.48" version="1.1" xmlns="http://www.w3.org/2000/svg" style="max-height: 500px" width="71.89189189189189" height="87.48">
 <path d="m70.832 8.332h-41.664c-6.8945 0-12.5 5.6055-12.5 12.5v58.332c0 6.8945 5.6055 12.5 12.5 12.5h41.668c6.8945 0 12.5-5.6055 12.5-12.5v-58.332c-0.003907-6.8906-5.6094-12.5-12.504-12.5zm-50 29.168h58.332v25h-58.332zm8.3359-25h41.668c4.6016 0 8.332 3.7305 8.332 8.332v12.5h-58.336v-12.5c0-4.6016 3.7305-8.332 8.3359-8.332zm41.664 75h-41.664c-4.6016 0-8.332-3.7305-8.332-8.332v-12.5h58.332v12.5c0 4.6016-3.7305 8.332-8.3359 8.332z"/>
<text fill="#000000" font-family="Arbeit Regular, Helvetica, Arial-Unicode, Arial, Sans-serif" font-weight="bold" font-size="5.0" y="117.5" x="0.0">Created by Khoir</text><text fill="#000000" font-family="Arbeit Regular, Helvetica, Arial-Unicode, Arial, Sans-serif" font-weight="bold" font-size="5.0" y="122.5" x="0.0">from Noun Project</text></svg>