<svg viewBox="-0.1351351351351351 3.5 99.45945945945947 92.61000000000001" version="1.1" xmlns="http://www.w3.org/2000/svg" style="max-height: 500px" width="99.45945945945947" height="92.61000000000001">
 <path d="m96.754 36.699-2.5938-7.9844c-0.46484-1.5234-2.2422-2.4258-3.7344-1.8906l-3.2656 1.0625c-1-1.6719-2.1562-3.2656-3.4531-4.75l2.0156-2.7812c0.96875-1.2734 0.64844-3.2266-0.65625-4.1406l-6.7812-4.9219c-1.2695-0.96875-3.2266-0.64844-4.1406 0.65625l-2.0156 2.7656c-1.7812-0.76562-3.6562-1.375-5.5781-1.8125v-3.4219c0-1.6406-1.3281-2.9688-2.9688-2.9688h-8.375c-1.6406 0-2.9688 1.3281-2.9688 2.9688v3.4219c-1.9219 0.4375-3.7969 1.0469-5.5781 1.8125l-2.0156-2.7656c-0.96875-1.3281-2.8281-1.625-4.1406-0.65625l-6.7812 4.9219c-1.3281 0.96875-1.625 2.8125-0.65625 4.1406l2.0156 2.7812c-0.45312 0.51562-0.875 1.0312-1.2969 1.5781 3.8125 1.0781 7.3594 2.9844 10.328 5.6094 12.574-13.801 36.117-4.7891 36.094 14.094 0 10.828-8.3125 19.75-18.875 20.719l9.5156 9.5156c0.4375-0.15625 0.85938-0.32812 1.2812-0.51562l2.0156 2.7656c0.96875 1.3281 2.8125 1.625 4.1406 0.65625l6.7812-4.9219c1.3281-0.96875 1.625-2.8125 0.65625-4.1406l-2.0156-2.7812c1.2969-1.4844 2.4531-3.0781 3.4531-4.75l3.2656 1.0625c1.5039 0.53516 3.2656-0.36719 3.7344-1.8906 0 0 2.5938-7.9844 2.5938-7.9844 0.49219-1.5156-0.33984-3.2148-1.9062-3.7344l-3.2656-1.0625c0.1875-2.0156 0.1875-3.8359 0-5.8594l3.2656-1.0625c1.5469-0.51562 2.4062-2.1875 1.9062-3.7344z"/>
 <path d="m48.938 57.152c5.4688-17.41-10.785-34.352-28.426-29.531-0.53906 0.14453-0.96094 0.5625-1.1055 1.1055-0.14453 0.53906 0.007812 1.1172 0.40625 1.5117l12.812 12.812-1.8945 11.363-11.363 1.8945-12.812-12.812c-0.39844-0.39453-0.97266-0.55078-1.5117-0.40625-0.53906 0.14453-0.96094 0.56641-1.1055 1.1055-4.8203 17.641 12.133 33.895 29.535 28.426l19.609 19.609c3.8438 3.1328 8.8789-0.20703 12.152-3.3164 3.1406-3.1094 6.418-8.7305 3.3164-12.152l-19.609-19.609z"/>
 <path d="m57.27 61.059c10.156 1.3516 19.391-6.8008 19.312-17.047 0.019531-15.855-19.848-23.121-30.109-11.344 5.6875 6.4219 7.8906 15.172 5.9531 23.547z"/>
<text fill="#000000" font-family="Arbeit Regular, Helvetica, Arial-Unicode, Arial, Sans-serif" font-weight="bold" font-size="5.0" y="117.5" x="0.0">Created by LUTFI GANI AL ACHMAD</text><text fill="#000000" font-family="Arbeit Regular, Helvetica, Arial-Unicode, Arial, Sans-serif" font-weight="bold" font-size="5.0" y="122.5" x="0.0">from Noun Project</text></svg>