<svg y="0px" x="0px" viewBox="0 0 90.44999999999999 90" data-name="Layer 1" xmlns="http://www.w3.org/2000/svg" style="max-height: 500px" width="90.44999999999999" height="90"><path fill-rule="evenodd" style="" d="M82.8,34.107H76.832A32.651,32.651,0,0,0,75.209,30.2l4.219-4.214a5.963,5.963,0,0,0,0-8.418l-6.994-6.994a5.963,5.963,0,0,0-8.413.005L59.8,14.791a33.464,33.464,0,0,0-3.909-1.618V7.21a5.956,5.956,0,0,0-5.948-5.952h-9.89A5.959,5.959,0,0,0,34.107,7.21v5.963A33.464,33.464,0,0,0,30.2,14.791l-4.219-4.219a5.963,5.963,0,0,0-8.413.005l-6.994,6.989a5.961,5.961,0,0,0,0,8.418L14.791,30.2a33.857,33.857,0,0,0-1.623,3.909H7.21A5.957,5.957,0,0,0,1.258,40.06v9.885A5.96,5.96,0,0,0,7.21,55.9l5.958-.005a33.567,33.567,0,0,0,1.623,3.914l-4.219,4.214a5.969,5.969,0,0,0,0,8.413l6.994,6.994a5.957,5.957,0,0,0,8.413,0L30.2,75.209a32.651,32.651,0,0,0,3.909,1.623V82.79a5.956,5.956,0,0,0,5.948,5.952h9.89A5.955,5.955,0,0,0,55.893,82.8V76.832A32.651,32.651,0,0,0,59.8,75.209l4.219,4.219a5.957,5.957,0,0,0,8.413,0l6.994-6.994a5.957,5.957,0,0,0,0-8.413L75.209,59.8a32.58,32.58,0,0,0,1.623-3.9l5.963-.005a5.952,5.952,0,0,0,5.947-5.948V40.06A5.956,5.956,0,0,0,82.8,34.107ZM45,26.309A18.694,18.694,0,1,0,63.7,45,18.715,18.715,0,0,0,45,26.309Zm0,5.88A12.814,12.814,0,1,0,57.816,45,12.829,12.829,0,0,0,45,32.189Z"/><text font-family="'Helvetica Neue', Helvetica, Arial-Unicode, Arial, Sans-serif" font-weight="bold" font-size="5px" fill="#000000" y="105" x="0">Created by Andi wiyanto</text><text font-family="'Helvetica Neue', Helvetica, Arial-Unicode, Arial, Sans-serif" font-weight="bold" font-size="5px" fill="#000000" y="110" x="0">from the Noun Project</text></svg>