<svg viewBox="2.2972972972972965 5.93 95.67567567567568 88.02000000000001" version="1.1" xmlns="http://www.w3.org/2000/svg" style="max-height: 500px" width="95.67567567567568" height="88.02000000000001">
 <path fill-rule="evenodd" d="m77.621 18.414c-0.21094-0.21094-0.50391-0.34375-0.82812-0.34375s-0.61719 0.13281-0.82812 0.34375c-0.21094 0.21094-0.34375 0.50391-0.34375 0.82813 0 0.32422 0.13281 0.61719 0.34375 0.82812 0.21094 0.21094 0.50391 0.34375 0.82812 0.34375s0.61719-0.13281 0.82812-0.34375c0.21094-0.21094 0.34375-0.50391 0.34375-0.82812 0-0.32422-0.13281-0.61719-0.34375-0.82813zm-0.82812-2.8711c1.0234 0 1.9453 0.41406 2.6172 1.0859s1.0859 1.5938 1.0859 2.6172c0 1.0234-0.41406 1.9453-1.0859 2.6172s-1.5938 1.0859-2.6172 1.0859c-1.0234 0-1.9453-0.41406-2.6172-1.0859s-1.0859-1.5938-1.0859-2.6172c0-1.0234 0.41406-1.9453 1.0859-2.6172s1.5938-1.0859 2.6172-1.0859zm9.6367 11.684c-0.21094-0.21094-0.50391-0.34375-0.82813-0.34375-0.32422 0-0.61719 0.13281-0.82812 0.34375-0.21094 0.21094-0.34375 0.50391-0.34375 0.82813 0 0.32422 0.13281 0.61719 0.34375 0.82812 0.21094 0.21094 0.50391 0.34375 0.82812 0.34375 0.32422 0 0.61719-0.13281 0.82813-0.34375 0.21094-0.21094 0.34375-0.50391 0.34375-0.82812 0-0.32422-0.13281-0.61719-0.34375-0.82813zm-0.82813-2.8711c1.0234 0 1.9453 0.41406 2.6172 1.0859s1.0859 1.5938 1.0859 2.6172c0 1.0234-0.41406 1.9453-1.0859 2.6172s-1.5938 1.0859-2.6172 1.0859c-1.0234 0-1.9453-0.41406-2.6172-1.0859s-1.0859-1.5938-1.0859-2.6172c0-1.0234 0.41406-1.9453 1.0859-2.6172s1.5938-1.0859 2.6172-1.0859zm-7.1836 6.4922c-0.34766 0.60156-1.1172 0.8125-1.7188 0.46484-0.60156-0.34766-0.8125-1.1172-0.46484-1.7188l7.7422-13.41c0.34766-0.60156 1.1172-0.8125 1.7188-0.46484 0.60156 0.34766 0.8125 1.1172 0.46484 1.7188zm-9.9258 45.469c0 0.69922-0.56641 1.2656-1.2656 1.2656-0.69922 0-1.2656-0.56641-1.2656-1.2656 0-0.77734-0.46484-1.2734-1.0586-1.4922-0.26953-0.097657-0.56641-0.14844-0.87109-0.14844s-0.60156 0.050781-0.87109 0.14844c-0.59375 0.21875-1.0586 0.71484-1.0586 1.4922 0 1.2148 1.0938 1.4531 2.1875 1.6914 2.0977 0.45703 4.1953 0.91406 4.1953 4.1797 0 2.0156-1.1914 3.3008-2.7188 3.8633-0.15625 0.058594-0.31641 0.10547-0.47656 0.14844v0.70703c0 0.69922-0.56641 1.2656-1.2656 1.2656-0.69922 0-1.2656-0.56641-1.2656-1.2656v-0.70703c-0.16016-0.039063-0.32031-0.089844-0.47656-0.14844-1.5234-0.5625-2.7188-1.8516-2.7188-3.8633 0-0.69922 0.56641-1.2656 1.2656-1.2656s1.2656 0.56641 1.2656 1.2656c0 0.77734 0.46484 1.2734 1.0586 1.4922 0.26953 0.097656 0.56641 0.14844 0.87109 0.14844 0.30469 0 0.60156-0.050781 0.87109-0.14844 0.59375-0.21875 1.0586-0.71484 1.0586-1.4922 0-1.2305-1.1016-1.4688-2.1992-1.7109-2.0938-0.45703-4.1836-0.91406-4.1836-4.1641 0-2.0156 1.1914-3.3008 2.7188-3.8633 0.15625-0.058594 0.31641-0.10547 0.47656-0.14844v-0.70703c0-0.69922 0.56641-1.2656 1.2656-1.2656s1.2656 0.56641 1.2656 1.2656v0.70703c0.16016 0.039063 0.32031 0.089844 0.47656 0.14844 1.5234 0.5625 2.7188 1.8516 2.7188 3.8633zm22.465-62.426c2.4961 2.4961 4.043 5.9492 4.043 9.7617s-1.5469 7.2617-4.043 9.7617c-2.4961 2.4961-5.9492 4.043-9.7617 4.043s-7.2617-1.5469-9.7617-4.043c-2.4961-2.4961-4.043-5.9492-4.043-9.7617s1.5469-7.2617 4.043-9.7617c2.4961-2.4961 5.9492-4.043 9.7617-4.043s7.2617 1.5469 9.7617 4.043zm-73.625 21.969v11.809l2.2031-0.70703c0.46484-0.17188 1.0078-0.0625 1.3672 0.32422l2.4297 2.6016v-10.562l-6.0039-3.4648zm32.777-20.055 3.625 2.0938v-0.003907l2.3867 1.375-31.23 18.031-6.0078-3.4688 31.23-18.031zm-33.754 16.574 31.23-18.031-10.094-5.8281-16.242 9.3789c-0.023438 0.011718-0.046875 0.027343-0.070312 0.039062l-14.918 8.6133 10.098 5.8281zm9.5078 8.4023 10.359 5.9805v36.062l-14.914-8.6094c-0.019532-0.015625-0.042969-0.027344-0.066406-0.039063l-16.242-9.3789v-36.059l9.8008 5.6602v15h0.003907c0 0.12891 0.019531 0.25781 0.0625 0.38672 0.21484 0.66406 0.92187 1.0273 1.5859 0.81641l3.1484-1.0117 4.0195 4.2969c0.23047 0.28125 0.58594 0.46484 0.98047 0.46484 0.69922 0 1.2656-0.56641 1.2656-1.2656v-12.301zm32.777-20.051-31.23 18.031 10.078 5.8203 28.07-16.207c-0.39062-1.2891-0.62109-2.6445-0.67969-4.043zm-50.973 41.941 8.4375 4.8711c0.60156 0.34766 1.375 0.14453 1.7266-0.46094 0.34766-0.60156 0.14453-1.375-0.46094-1.7266l-8.4375-4.8711c-0.60156-0.34766-1.375-0.14453-1.7266 0.46094-0.34766 0.60156-0.14453 1.375 0.46094 1.7266zm0.078125-5.2461 8.4375 4.8711c0.60156 0.34766 1.3711 0.14062 1.7188-0.46484 0.34766-0.60156 0.14062-1.3711-0.46484-1.7188l-8.4375-4.8711c-0.60156-0.34766-1.3711-0.14063-1.7188 0.46484-0.34766 0.60156-0.14062 1.3711 0.46484 1.7188zm67.758 5.9453-9.4297-9.4297c-0.55859-0.55859-1.3008-0.83984-2.0352-0.83984-0.73828 0-1.4766 0.28125-2.0352 0.83984l-9.4297 9.4297v28.109h22.934v-28.109zm-7.6406-11.219 2.1133 2.1133v-18.75c-0.10937-0.10547-0.21875-0.21094-0.32812-0.32031-1.2852-1.2852-2.3594-2.7891-3.1602-4.4453l-27.734 16.012v36.062l11.285-6.5156v-13.465c0-0.35156 0.14453-0.67188 0.37891-0.90234l9.793-9.793c1.0547-1.0547 2.4414-1.582 3.8242-1.582 1.3867 0 2.7734 0.52734 3.8242 1.582zm-3.1211 9.5625c0.17969 0.17969 0.29297 0.43359 0.29297 0.71094 0 0.27734-0.11328 0.52734-0.29297 0.71094-0.17969 0.17969-0.43359 0.29297-0.71094 0.29297s-0.52734-0.11328-0.71094-0.29297c-0.17969-0.17969-0.29297-0.43359-0.29297-0.71094 0-0.27734 0.11328-0.52734 0.29297-0.71094 0.17969-0.17969 0.43359-0.29297 0.71094-0.29297s0.52734 0.11328 0.71094 0.29297zm-0.70703-2.8242c0.97656 0 1.8594 0.39453 2.4961 1.0352 0.64062 0.64062 1.0352 1.5234 1.0352 2.4961 0 0.97656-0.39453 1.8594-1.0352 2.4961-0.64062 0.64062-1.5234 1.0352-2.4961 1.0352-0.97656 0-1.8594-0.39453-2.4961-1.0352-0.64062-0.64062-1.0352-1.5234-1.0352-2.4961 0-0.97656 0.39453-1.8594 1.0352-2.4961 0.64063-0.64062 1.5234-1.0352 2.4961-1.0352z"/>
<text fill="#000000" font-family="Arbeit Regular, Helvetica, Arial-Unicode, Arial, Sans-serif" font-weight="bold" font-size="5.0" y="117.5" x="0.0">Created by Good Wife</text><text fill="#000000" font-family="Arbeit Regular, Helvetica, Arial-Unicode, Arial, Sans-serif" font-weight="bold" font-size="5.0" y="122.5" x="0.0">from Noun Project</text></svg>