<svg viewBox="3.108108108108109 3.7699999999999996 94.5945945945946 92.61000000000001" version="1.1" xmlns="http://www.w3.org/2000/svg" style="max-height: 500px" width="94.5945945945946" height="92.61000000000001">
 <path fill-rule="evenodd" d="m27.102 44.578 6.5781 3.8086-21.059 12.152-6.6211-3.8008zm23.828-39.129 5.6602 3.2617-21.059 12.16-6.5898-3.8008 20.129-11.621c0.57422-0.33984 1.2852-0.33984 1.8594 0zm7.5 4.3281-21.059 12.164 5.1211 2.9492 21.059-12.152-5.1211-3zm7 4-21.102 12.223 5.6719 3.2305 21.059-12.16-5.668-3.2695zm6.5703 4.8945-21.07 12.148v24.32l21.07-12.141zm-22.93 36.469v-24.32l-5.6484-3.2617v5.4414c0 0.63281-0.33984 1.2188-0.89062 1.5352-0.54688 0.31641-1.2227 0.3125-1.7695-0.003906l-4.8984-2.8281-0.003906-0.003906c-0.78125-0.44141-1.2578-1.2734-1.25-2.168v-7l-6.6094-3.8594v24.328zm-12.621-31.609 5.1211 3v6.3281l-4.7891-2.7617v0.003906c-0.21484-0.11719-0.33984-0.33984-0.33203-0.58203zm36.449 21 6.5898 3.8086-21.059 12.199-6.5781-3.8008 21.047-12.16zm8.4414 4.8711 5.1094 3-21 12.148-5.1211-3 21.012-12.102zm7 4 5.6602 3.3359-21.102 12.16-5.6602-3.2695 21.062-12.16zm6.5781 4.8711-21 12.148 0.003906 24.387 20.078-11.617c0.57812-0.32812 0.93359-0.94531 0.92188-1.6133v-23.238zm-22.918 36.535v-24.32l-5.6602-3.2617v5.3945c0.003906 0.63281-0.33203 1.2188-0.87891 1.5352-0.55078 0.31641-1.2266 0.3125-1.7695-0.007812l-4.8984-2.8281h-0.003907c-0.78516-0.4375-1.2695-1.2695-1.2578-2.1719v-7l-6.5781-3.8008-0.003906 24.301zm-12.641-31.598v5.9414-0.003906c-0.007813 0.24219 0.11719 0.46875 0.33203 0.58203l4.7812 2.7617-0.003906-6.332zm-23.828-13.762-21.062 12.16 5.1211 3 21.059-12.199-5.1211-3zm7 4-21.102 12.18 5.6719 3.2695 21-12.16-5.6602-3.2695zm6.5781 4.8711-21.109 12.168v24.32l21.07-12.16v-24.309zm-22.938 36.488v-24.32l-5.6602-3.2617v5.3945c-0.003907 0.62891-0.33984 1.2109-0.88672 1.5273-0.54688 0.3125-1.2188 0.31641-1.7656 0l-4.8594-2.8281c-0.78516-0.44141-1.2656-1.2734-1.2617-2.1719v-7l-6.5781-3.8008v23.23c-0.027344 0.64844 0.29297 1.2656 0.83984 1.6133zm-12.621-31.598 5.1094 2.9492v6.3281l-4.7812-2.7617v0.003907c-0.21094-0.11328-0.33984-0.33984-0.32812-0.58203z"/>
<text fill="#000000" font-family="Arbeit Regular, Helvetica, Arial-Unicode, Arial, Sans-serif" font-weight="bold" font-size="5.0" y="117.5" x="0.0">Created by Articon</text><text fill="#000000" font-family="Arbeit Regular, Helvetica, Arial-Unicode, Arial, Sans-serif" font-weight="bold" font-size="5.0" y="122.5" x="0.0">from Noun Project</text></svg>