<svg viewBox="3.648648648648649 2.6899999999999995 93.51351351351352 95.03999999999999" version="1.1" xmlns="http://www.w3.org/2000/svg" style="max-height: 500px" width="93.51351351351352" height="95.03999999999999">
 <path d="m65.734 19.922h-11.047c-1.6562 0-3.1719 0.60938-4.3281 1.625-1.6875-0.0625-3.375-0.09375-5.0469-0.09375-6.0312 0-12.125 0.42188-18.109 1.2344-1.2188 0.15625-2.3281 0.65625-3.2344 1.3906 1.2344-10.688 10.344-19 21.344-19 9.5312 0 17.641 6.2344 20.422 14.844zm-44.25 9.3438c0-0.25 0.015625-0.5 0.046875-0.73438-3.9375 0.17188-7.0781 3.4219-7.0781 7.4062 0 3.9688 3.1406 7.2188 7.0625 7.4062-0.015625-0.375-0.03125-0.76562-0.03125-1.1562zm6.0312-4.2656c-1.7344 0.25-3.1094 1.5469-3.5312 3.2031 6.9531 4.9375 15.609 7.0938 24.062 6.4844v-8.125c0-0.96875 0.21875-1.8906 0.59375-2.7188-7.0469-0.1875-14.109 0.20312-21.125 1.1562zm20.531 28.125v-16.078c-0.90625 0.0625-1.8281 0.09375-2.7344 0.09375-7.5625 0-15.125-2.0938-21.484-6.2344v11.281c0 11.844 9.6406 21.484 21.484 21.484 0.9375 0 1.8594-0.0625 2.7656-0.1875 0.17188-2.0312 1.2656-3.7969 2.8594-4.8906-1.75-1.2031-2.8906-3.2031-2.8906-5.4688zm-20.984 7.4062 6.1094 10.188c0.32812 0.54688 0.875 0.89062 1.5 0.9375s1.2344-0.17188 1.6406-0.65625l4.7188-5.375c-4.5-0.8125-8.5625-2.8906-11.797-5.8594-0.73438 0.21875-1.4531 0.48438-2.1719 0.76562zm20.984 30.094v-23.219l-1.2656-1.4375c-0.48438 0.03125-0.96875 0.046875-1.4688 0.046875s-0.98438-0.015625-1.4688-0.046875l-5.7656 6.5781c-0.82812 0.95312-1.9844 1.4688-3.2188 1.4688-0.125 0-0.26562 0-0.39062-0.015625-1.3906-0.125-2.5938-0.89062-3.3125-2.0781l-6.2344-10.422c-10.812 5.2656-18.281 16.328-18.281 29.125v3.125c0 0.64062 0.53125 1.1719 1.1719 1.1719h41.844c-1-1.1562-1.6094-2.6562-1.6094-4.2969zm19.141-16.797h9.375c0.21484 0 0.39062-0.17578 0.39062-0.39062v-13.672h-10.156v13.672c0 0.21484 0.17578 0.39062 0.39062 0.39062zm21.875-14.062h-9.7656v13.672c0 1.5078-1.2266 2.7344-2.7344 2.7344h-9.375c-1.5078 0-2.7344-1.2266-2.7344-2.7344v-13.672h-9.7656c-2.3711 0-4.2969 1.9258-4.2969 4.2969v26.562c0 2.3711 1.9258 4.2969 4.2969 4.2969h34.375c2.3711 0 4.2969-1.9258 4.2969-4.2969v-26.562c0-2.3711-1.9258-4.2969-4.2969-4.2969zm-21.875-23.438h9.375c0.21484 0 0.39062-0.17578 0.39062-0.39062v-13.672h-10.156v13.672c0 0.21484 0.17578 0.39062 0.39062 0.39062zm21.875-14.062h-9.7656v13.672c0 1.5078-1.2266 2.7344-2.7344 2.7344h-9.375c-1.5078 0-2.7344-1.2266-2.7344-2.7344v-13.672h-9.7656c-2.3711 0-4.2969 1.9258-4.2969 4.2969v26.562c0 2.3711 1.9258 4.2969 4.2969 4.2969h34.375c2.3711 0 4.2969-1.9258 4.2969-4.2969v-26.562c0-2.3711-1.9258-4.2969-4.2969-4.2969z"/>
<text fill="#000000" font-family="Arbeit Regular, Helvetica, Arial-Unicode, Arial, Sans-serif" font-weight="bold" font-size="5.0" y="117.5" x="0.0">Created by Arkinasi</text><text fill="#000000" font-family="Arbeit Regular, Helvetica, Arial-Unicode, Arial, Sans-serif" font-weight="bold" font-size="5.0" y="122.5" x="0.0">from Noun Project</text></svg>