<svg xml:space="preserve" viewBox="2 25.25 96.25 48.25" y="0px" x="0px" version="1.1" xmlns:xlink="http://www.w3.org/1999/xlink" xmlns="http://www.w3.org/2000/svg" style="max-height: 500px" width="96.25" height="48.25"><path d="M94.475,54.682l-1.522-0.563l-0.275-5.047L91.2,48.353v-0.207l-0.034-0.183c-0.928-2.427-17.82-3.519-23.445-3.815  l-6.732-11.313l-0.104-0.065c-5.413-3.426-40.452-1.909-46.674-1.487l-0.174,0.047l-0.176,0.16  c-0.119,0.115-0.715,0.777-1.294,3.794l-1.174,6.117c-0.468-0.619-1.203-1.025-2.037-1.025H7.562C6.149,40.375,5,41.524,5,42.937  v11.056c0,1.413,1.149,2.563,2.562,2.563h1.08C8.625,56.58,8.6,56.598,8.584,56.623c-0.455,0.771-0.184,1.814,0.829,3.184  l0.129,0.176l5.223,0.678l0.147-0.37c1.595-4.013,4.05-8.345,5.233-8.345h0.184h8.101h0.184c1.198,0,4.415,5.193,6.707,10.003  l0.137,0.298l0.325-0.005l32.597,0.036h0.32l0.151-0.351c2.028-4.8,4.955-9.981,6.145-9.981h8.266  c2.109,0.107,4.918,5.966,6.193,9.636l0.09,0.259l0.266,0.068c0,0,0.324,0.086,0.479,0.119c0.621,0.144,1.184,0.214,1.684,0.214  c0.781,0,1.413-0.173,1.889-0.517c0.695-0.506,0.777-1.182,0.785-1.271L95,54.893L94.475,54.682z M29.037,43.161  c0,0.566-0.533,1.024-1.19,1.024h-12.83c-0.656,0-1.189-0.458-1.189-1.024l1.469-7.717c0-0.566,0.533-1.025,1.189-1.025h12.547  c0.656,0,1.189,0.459,1.189,1.025L29.037,43.161z M35.089,49.763h-3.715v-0.716h3.715V49.763z M45.56,43.161  c0,0.566-0.459,1.024-1.024,1.024H33.487c-0.565,0-1.024-0.458-1.024-1.024v-7.717c0-0.566,0.459-1.025,1.024-1.025h11.048  c0.565,0,1.024,0.459,1.024,1.025L45.56,43.161L45.56,43.161z M52.092,49.763h-3.715v-0.716h3.715V49.763z M63.65,44.186H49.402  c-0.566,0-1.025-0.458-1.025-1.024v-7.717c0-0.566,0.459-1.025,1.025-1.025h8.612c0.566,0,1.586,0.368,2.082,1.025l4.579,7.717  C64.676,43.728,64.217,44.186,63.65,44.186z"/><path d="M24.512,53.021c-4.52,0-8.197,3.678-8.197,8.197c0,4.521,3.676,8.197,8.197,8.197c4.519,0,8.197-3.677,8.197-8.197  C32.709,56.7,29.032,53.021,24.512,53.021z M24.512,67.219c-3.309,0-6-2.69-6-6c0-3.309,2.692-6,6-6c3.309,0,6,2.692,6,6  C30.512,64.528,27.819,67.219,24.512,67.219z"/><path d="M79.373,53.021c-4.52,0-8.197,3.678-8.197,8.197c0,4.521,3.676,8.197,8.197,8.197c4.52,0,8.197-3.677,8.197-8.197  C87.57,56.7,83.893,53.021,79.373,53.021z M79.373,67.219c-3.31,0-6-2.691-6-6c0-3.308,2.692-6,6-6s6,2.692,6,6  C85.373,64.527,82.681,67.219,79.373,67.219z"/><text font-family="'Helvetica Neue', Helvetica, Arial-Unicode, Arial, Sans-serif" font-weight="bold" font-size="5px" fill="#000000" y="115" x="0">Created by TMD</text><text font-family="'Helvetica Neue', Helvetica, Arial-Unicode, Arial, Sans-serif" font-weight="bold" font-size="5px" fill="#000000" y="120" x="0">from the Noun Project</text></svg>