<svg y="0px" x="0px" viewBox="12.25 10.25 75.75 78.25" data-name="Layer 1" xmlns="http://www.w3.org/2000/svg" style="max-height: 500px" width="75.75" height="78.25"><title>Artboard 36</title><path d="M67,37a8,8,0,0,0-5.66,2.34L53,47.66,44.48,22.73A7,7,0,0,0,37.86,18H36.14a7,7,0,0,0-6.62,4.73l-11.3,33a4,4,0,1,0,7.57,2.59L29,49H45l1.7,5-5.34,5.34A14.9,14.9,0,0,0,37,69.9V74a8,8,0,0,0,8,8h4.1a14.9,14.9,0,0,0,10.61-4.39l20-19.95A8,8,0,0,0,82,52C82,43.17,75.83,37,67,37ZM31.71,41l5.14-15h.29l5.14,15ZM54.05,72a7,7,0,0,1-4.95,2H45V69.9a7,7,0,0,1,2-4.95L67,45c4.42,0,7,2.58,7,7Z"/><text font-family="'Helvetica Neue', Helvetica, Arial-Unicode, Arial, Sans-serif" font-weight="bold" font-size="5px" fill="#000000" y="115" x="0">Created by Gregor Cresnar</text><text font-family="'Helvetica Neue', Helvetica, Arial-Unicode, Arial, Sans-serif" font-weight="bold" font-size="5px" fill="#000000" y="120" x="0">from the Noun Project</text></svg>