<svg y="0px" x="0px" viewBox="6.75 7 86.5 86.25" data-name="Layer 1" xmlns="http://www.w3.org/2000/svg" style="max-height: 500px" width="86.5" height="86.25"><title>Media Player</title><path d="M92,50A42,42,0,1,1,50,8,42.08,42.08,0,0,1,92,50ZM12,50A38,38,0,1,0,50,12,38.07,38.07,0,0,0,12,50Z"/><path d="M68.57,55a3.5,3.5,0,0,1-6.1,2.34L50,43.42,37.6,57.31a3.5,3.5,0,0,1-5.22-4.67l15-16.8A3.54,3.54,0,0,1,50,34.67a3.5,3.5,0,0,1,2.6,1.17l15.08,16.8A3.47,3.47,0,0,1,68.57,55Z"/><text font-family="'Helvetica Neue', Helvetica, Arial-Unicode, Arial, Sans-serif" font-weight="bold" font-size="5px" fill="#000000" y="115" x="0">Created by Rizky Mapat Waluya</text><text font-family="'Helvetica Neue', Helvetica, Arial-Unicode, Arial, Sans-serif" font-weight="bold" font-size="5px" fill="#000000" y="120" x="0">from the Noun Project</text></svg>