<svg xml:space="preserve" viewBox="2 24.75 96.75 49.75" y="0px" x="0px" version="1.1" xmlns:xlink="http://www.w3.org/1999/xlink" xmlns="http://www.w3.org/2000/svg" style="max-height: 500px" width="96.75" height="49.75"><g><path d="M15.454524,61.4737778c-2.8638182,0-5.1941633,2.3303452-5.1941633,5.1947479   c0,2.8638229,2.3303452,5.1941681,5.1941633,5.1941681s5.1941633-2.3303452,5.1941633-5.1941681   C20.6486874,63.8041229,18.3183422,61.4737778,15.454524,61.4737778z"/><path d="M31.6081295,61.4737778c-2.8644066,0-5.1947517,2.3303452-5.1947517,5.1947479   c0,2.8638229,2.3303452,5.1941681,5.1947517,5.1941681c2.8638172,0,5.1941624-2.3303452,5.1941624-5.1941681   C36.8022919,63.8041229,34.4719467,61.4737778,31.6081295,61.4737778z"/><path d="M85.07724,61.4737778c-2.8638153,0-5.1941605,2.3303452-5.1941605,5.1947479   c0,2.8638229,2.3303452,5.1941681,5.1941605,5.1941681c2.8638229,0,5.1941681-2.3303452,5.1941681-5.1941681   C90.2714081,63.8041229,87.9410629,61.4737778,85.07724,61.4737778z"/><path d="M94.6144791,55.9520035h-1.2228088c-0.1658707,0-0.2982101-0.131752-0.3011475-0.2976189l-0.0599976-6.8816299   c0-1.1622314-0.9457779-2.108017-2.1080093-2.108017h-14.936676c-0.7022781,0-1.3210373-0.4958305-1.4710236-1.179287   l-1.1998749-5.4517822l-1.8992081-7.7350769c-0.1958618-0.7087479-0.7734528-1.166935-1.4710236-1.166935H58.6776505   l-1.7768745-2.1850662c-0.4011345-0.4946537-0.9975395-0.7781525-1.6357079-0.7781525H44.830864   c-0.8305016,0-1.5057259,0.6752224-1.5057259,1.505724v1.4574947h-0.0017624v26.0366898h-1.6851196V37.1463203h-1.0004845   v-2.0568428c0-0.8305016-0.6752243-1.5057259-1.505722-1.5057259h-3.1090889c-0.3329048,0-0.6022911,0.2693863-0.6022911,0.6022911   s0.2693863,0.6022911,0.6022911,0.6022911h3.1090889c0.165863,0,0.3011436,0.1352806,0.3011436,0.3011436v2.0568428h-1.0010719   v20.0220261H6.9454136c-0.8305016,0-1.5057249,0.6752243-1.5057249,1.5057259v7.4686279   c0,0.8305054,0.6752234,1.5057297,1.5057249,1.5057297h2.2380009l-0.0358782-0.3334961   c-0.0229387-0.2123337-0.0341139-0.430542-0.0341139-0.6481705c0-3.4937515,2.8449965-6.3363953,6.3422775-6.3363953   c3.4937534,0,6.3358078,2.8426437,6.3358078,6.3363953c0,0.2176285-0.0111752,0.4358368-0.0341129,0.6481705l-0.0358791,0.3334961   h3.6155033l-0.0358772-0.3334961c-0.0229397-0.2123337-0.0341148-0.430542-0.0341148-0.6481705   c0-3.4937515,2.8449974-6.3363953,6.3416901-6.3363953c3.4937534,0,6.3363972,2.8426437,6.3363972,6.3363953   c0,0.2176285-0.0117645,0.4358368-0.0347023,0.6481705l-0.035881,0.3334961h40.9339561l-0.035881-0.3334961   c-0.022934-0.2123337-0.0346985-0.430542-0.0346985-0.6481705c0-3.4937515,2.8449936-6.3363953,6.3422775-6.3363953   c3.4937515,0,6.3363953,2.8426437,6.3363953,6.3363953c0,0.2176285-0.0117645,0.4358368-0.0347061,0.6481705l-0.0358734,0.3334961   h2.5879669c0.8304977,0,1.505722-0.6752243,1.505722-1.5057297v-9.36549   C95.4396896,56.3219643,95.069725,55.9520035,94.6144791,55.9520035z M73.2643585,60.5297585   c0,0.3323174-0.2699661,0.6022911-0.6022873,0.6022911H51.0866814c-0.3323212,0-0.6022911-0.2699738-0.6022911-0.6022911   V33.6196327c0-0.3323174,0.2699699-0.6022911,0.6022911-0.6022911h17.4828758c0.263504,0,0.5005341,0.1764526,0.5769958,0.4281921   l4.0919266,13.6103401c0.0170593,0.0570526,0.0258789,0.1158714,0.0258789,0.174099V60.5297585z M85.8501053,49.4591522H92.3806   l0.0029373,0.6022911h-6.533432V49.4591522z M85.8501053,50.6819649h6.5381393l0.0058823,0.5840569h-6.5440216V50.6819649z    M85.8501053,53.6934166v-0.6022911h6.5499039l0.0058823,0.6022911H85.8501053z M85.8501053,52.4706001v-0.5840569h6.5499039   l0.0058823,0.5840569H85.8501053z"/><path d="M68.5848465,34.2248611c-0.0594025-0.1999779-0.2464447-0.339962-0.4558334-0.339962h-16.390049   c-0.2623253,0-0.4758339,0.2135048-0.4758339,0.4758301v25.4279289c0,0.2623253,0.2135086,0.4758339,0.4758339,0.4758339H72.010376   c0.2623215,0,0.4758301-0.2135086,0.4758301-0.4758339V47.430542c0-0.1558685-0.0229416-0.3093796-0.0676422-0.4558372   L68.5848465,34.2248611z M70.6793365,46.5635719c-0.0541153,0.0682297-0.1346893,0.107048-0.2211533,0.107048H54.129303   c-0.4758339,0-0.8628502-0.3870201-0.8628502-0.8628502V35.982914c0-0.4758339,0.3870163-0.8628502,0.8628502-0.8628502h12.6557388   c0.4011307,0,0.7463913,0.2723236,0.8434372,0.6769867l3.1032028,10.5271339   C70.7516785,46.4082947,70.7328644,46.4953423,70.6793365,46.5635719z"/></g><text font-family="'Helvetica Neue', Helvetica, Arial-Unicode, Arial, Sans-serif" font-weight="bold" font-size="5px" fill="#000000" y="115" x="0">Created by Dong Gyu Yang</text><text font-family="'Helvetica Neue', Helvetica, Arial-Unicode, Arial, Sans-serif" font-weight="bold" font-size="5px" fill="#000000" y="120" x="0">from the Noun Project</text></svg>