<svg xml:space="preserve" viewBox="4.5 23.25 91 52.75" y="0px" x="0px" version="1.1" xmlns:xlink="http://www.w3.org/1999/xlink" xmlns="http://www.w3.org/2000/svg" style="max-height: 500px" width="91" height="52.75"><g><path d="M17.972,57.116c-1.967,0-3.562,1.595-3.562,3.562c0,1.967,1.595,3.562,3.562,3.562c1.967,0,3.562-1.595,3.562-3.562   C21.534,58.71,19.94,57.116,17.972,57.116z M17.972,62.102c-0.787,0-1.425-0.638-1.425-1.425s0.638-1.425,1.425-1.425   c0.787,0,1.425,0.638,1.425,1.425S18.759,62.102,17.972,62.102z"/><path d="M76.843,40.688c-2.197,0-4.286,0.458-6.181,1.28c-0.415-0.256-0.735-0.369-0.735-0.369l-0.33-0.641   c1.161-0.238,2.46-0.524,3.59-0.827c0.514-0.139,0.788-0.698,0.582-1.19l-0.053-0.127c-0.116-0.275-0.299-0.518-0.533-0.705   l-0.424-0.338l-1.945-1.553c-0.316-0.253-0.727-0.351-1.122-0.268c-0.775,0.161-1.596,0.335-2.411,0.508l-0.581-1.129l-0.958-1.862   l-0.221,0.055c0.22-0.538,0.326-1.132,0.279-1.75c-0.162-2.124-2.014-3.714-4.138-3.553c-2.124,0.162-3.714,2.014-3.553,4.138   c0.134,1.762,1.433,3.153,3.085,3.485l1.156,1.683c-0.748,0.165-1.212,0.27-1.217,0.275l-4.55,7.572l-3.439,5.725l-3.465-0.144   c1.18-0.286,1.961-1.495,1.649-2.737l-0.628-2.505c-0.16-0.638-0.591-1.174-1.179-1.467l-9.139-4.561l-8.85-4.417   c-0.313-0.155-0.658-0.236-1.007-0.236H28.44c-1.168,0-2.142,0.89-2.245,2.054c-0.267,3.008-0.255,8.602,2.909,11.826l-0.329,0.436   l-1.978,2.617l-1.244,1.645c-1.893-2.028-4.588-3.298-7.581-3.298c-5.726,0-10.368,4.642-10.368,10.369s4.642,10.369,10.368,10.369   c5.478,0,9.961-4.249,10.34-9.631c2.934-0.103,6.738-0.233,10.573-0.359c7.433-0.246,14.982-0.478,16.542-0.464   c0.027,0,0.055-0.002,0.082-0.007c0.122-0.02,0.233-0.087,0.306-0.189l2.027-3.622l2.76-4.935l2.314-4.136l1.598-2.858l0.338-0.604   l0.948-1.694l0.654,0.952c0,0-0.083,0.444,0.035,1.141c-3.19,2.848-5.199,6.99-5.199,11.602c0,8.59,6.963,15.553,15.553,15.553   c8.59,0,15.553-6.963,15.553-15.553C92.396,47.651,85.433,40.688,76.843,40.688z M17.972,65.11c-2.448,0-4.432-1.984-4.432-4.432   s1.984-4.432,4.432-4.432c2.448,0,4.432,1.984,4.432,4.432S20.42,65.11,17.972,65.11z M73.352,54.469   c1.014,1.281,1.93,2.428,2.55,3.202c0.264,0.329,0.639,0.519,1.033,0.555c0.046,0.005,0.093,0.007,0.139,0.007   c0.265,0,0.533-0.07,0.774-0.216c0.665-0.401,0.914-1.242,0.576-1.939c-0.44-0.906-1.096-2.253-1.826-3.742   c0.082-0.005,0.163-0.012,0.246-0.012c2.164,0,3.918,1.754,3.918,3.918c0,2.164-1.754,3.918-3.918,3.918   c-2.164,0-3.918-1.754-3.918-3.918C72.925,55.603,73.081,55.002,73.352,54.469z M76.843,65.382c-5.049,0-9.142-4.092-9.142-9.142   c0-1.98,0.63-3.815,1.701-5.312c0.185-0.259,0.384-0.508,0.595-0.746c0.238,0.309,0.482,0.624,0.73,0.943   c-1.159,1.385-1.858,3.168-1.858,5.115c0,4.404,3.57,7.974,7.974,7.974s7.974-3.57,7.974-7.974s-3.57-7.974-7.974-7.974   c-0.732,0-1.439,0.101-2.112,0.285c-0.18-0.362-0.357-0.717-0.531-1.063c0.837-0.253,1.724-0.389,2.643-0.389   c5.049,0,9.142,4.094,9.142,9.142C85.985,61.29,81.892,65.382,76.843,65.382z"/></g><text font-family="'Helvetica Neue', Helvetica, Arial-Unicode, Arial, Sans-serif" font-weight="bold" font-size="5px" fill="#000000" y="115" x="0">Created by Daniela Baptista</text><text font-family="'Helvetica Neue', Helvetica, Arial-Unicode, Arial, Sans-serif" font-weight="bold" font-size="5px" fill="#000000" y="120" x="0">from the Noun Project</text></svg>