<svg viewBox="5.27027027027027 22.4 90.27027027027027 54.81" version="1.1" xmlns="http://www.w3.org/2000/svg" style="max-height: 500px" width="90.27027027027027" height="54.81">
 <path d="m88.121 60.391h1.7812c-0.14844-2.0508-0.46094-4.1016-0.91016-6.1094h-0.85938z"/>
 <path d="m10 54.281v8.9688c0 0.42969 0.35938 0.78906 0.80078 0.78906h5.1992c0.69922-4.5 4.5898-7.9609 9.3008-7.9609 4.6914 0 8.5898 3.4609 9.2891 7.9609h25.91v-9.8516c-0.12109 0.050781-0.23828 0.078125-0.37891 0.078125l-50.121 0.003906zm45.891 7.0586h-18.359c-0.64844 0-1.1797-0.53125-1.1797-1.1914 0-0.64844 0.53125-1.1797 1.1797-1.1797h18.359c0.64844 0 1.1797 0.53125 1.1797 1.1797-0.011718 0.66016-0.53906 1.1914-1.1797 1.1914z"/>
 <path d="m59.711 27.461h-48.91c-0.44141 0-0.80078 0.37109-0.80078 0.82812v23.641h50.121c0.14062 0 0.26172 0.03125 0.37891 0.070312v-23.719c0-0.45312-0.35938-0.82031-0.78906-0.82031z"/>
 <path d="m89.988 62.75h-1.8594c-1.3008 0-2.3594-1.0586-2.3594-2.3594v-6.1016c0-1.3008 1.0586-2.3594 2.3594-2.3594h0.26172c-1.3984-4.8281-3.6484-9.3984-6.6914-13.43l-3.0703-4.0703c-0.14844-0.19922-0.37891-0.30859-0.64062-0.30859h-15.137v29.91h2.5586c0.69922-4.5 4.6016-7.9609 9.2891-7.9609 4.6992 0 8.6016 3.4609 9.3008 7.9609h5.2109c0.42969 0 0.78906-0.35938 0.78906-0.78125 0-0.16016-0.011719-0.32812-0.011719-0.5zm-20.207-9.1484h-2.2305c-0.64844 0-1.1797-0.53125-1.1797-1.1797 0-0.66016 0.53125-1.1914 1.1797-1.1914h2.2305c0.64844 0 1.1797 0.53125 1.1797 1.1914-0.011719 0.64844-0.53906 1.1797-1.1797 1.1797zm-1.3906-8.0703v-6.2617h6.4219l4.5195 6.2617z"/>
 <path d="m25.301 58.43c-3.8984 0-7.0586 3.1719-7.0586 7.0586 0 3.8906 3.1719 7.0508 7.0586 7.0508 3.8906 0 7.0508-3.1719 7.0508-7.0508 0-3.8984-3.1719-7.0586-7.0508-7.0586zm0 8.2305c-0.66016 0-1.1797-0.53125-1.1797-1.1797 0-0.64844 0.51953-1.1797 1.1797-1.1797 0.64844 0 1.1797 0.53125 1.1797 1.1797-0.011719 0.66016-0.53906 1.1797-1.1797 1.1797z"/>
 <path d="m74.699 58.43c-3.8906 0-7.0508 3.1719-7.0508 7.0586 0 3.8906 3.1719 7.0508 7.0508 7.0508 3.8984 0 7.0586-3.1719 7.0586-7.0508 0.003907-3.8984-3.1562-7.0586-7.0586-7.0586zm0 8.2305c-0.64844 0-1.1797-0.53125-1.1797-1.1797 0-0.64844 0.53125-1.1797 1.1797-1.1797 0.66016 0 1.1797 0.53125 1.1797 1.1797 0 0.66016-0.51953 1.1797-1.1797 1.1797z"/>
<text fill="#000000" font-family="Arbeit Regular, Helvetica, Arial-Unicode, Arial, Sans-serif" font-weight="bold" font-size="5.0" y="117.5" x="0.0">Created by Mu'as</text><text fill="#000000" font-family="Arbeit Regular, Helvetica, Arial-Unicode, Arial, Sans-serif" font-weight="bold" font-size="5.0" y="122.5" x="0.0">from Noun Project</text></svg>