<svg xml:space="preserve" style="max-height: 500px" viewBox="0.75 8 98.75 84.25" y="0px" x="0px" version="1.1" xmlns:xlink="http://www.w3.org/1999/xlink" xmlns="http://www.w3.org/2000/svg" width="98.75" height="84.25"><switch><g><g><path d="M85.8,22H71.1l-4.5-9c-1-2-3.1-3.3-5.4-3.3H38.8c-2.3,0-4.4,1.3-5.4,3.3l-4.5,9H14.2C7.7,22,2.5,27.2,2.5,33.6v45.2     c0,6.4,5.2,11.7,11.7,11.7h71.7c6.4,0,11.7-5.2,11.7-11.7V33.6C97.5,27.2,92.3,22,85.8,22z M50,76.5c-11.8,0-21.4-9.6-21.4-21.4     S38.2,33.7,50,33.7s21.4,9.6,21.4,21.4S61.8,76.5,50,76.5z"/><path d="M52.5,42.4c-1.4-1.3-3.7-1.3-5.1,0L40.4,49c-1.5,1.4-1.6,3.8-0.2,5.3c1.4,1.5,3.8,1.6,5.3,0.2l0.8-0.8v11     c0,2.1,1.7,3.7,3.7,3.7c2.1,0,3.7-1.7,3.7-3.7v-11l0.8,0.8c0.7,0.7,1.6,1,2.5,1c1,0,2-0.4,2.7-1.2c1.4-1.5,1.3-3.9-0.2-5.3     L52.5,42.4z"/></g></g></switch><text font-family="'Helvetica Neue', Helvetica, Arial-Unicode, Arial, Sans-serif" font-weight="bold" font-size="5px" fill="#000000" y="115" x="0">Created by Alice Design</text><text font-family="'Helvetica Neue', Helvetica, Arial-Unicode, Arial, Sans-serif" font-weight="bold" font-size="5px" fill="#000000" y="120" x="0">from the Noun Project</text></svg>