<svg y="0px" x="0px" viewBox="0 20.16 96 55.2" xmlns="http://www.w3.org/2000/svg" style="max-height: 500px" width="96" height="55.2"><title>Pickup</title><g><path d="M11.21,54.37a12.1,12.1,0,0,1,17,2.89H45.59v-30a1.57,1.57,0,0,1,1.57-1.57h9A2.94,2.94,0,0,1,58.61,27c8.39,12.6,6.66,10,8.86,13.29v12.1c0,1.9-1.18,2-2.64,4.88h3.48a12.08,12.08,0,0,1,16.8-3c.16,0-.51,0,9.46,0l-.76-5.34-8.62-2.79a2.77,2.77,0,0,1-1.83-3.35l.63-2.4-13.1-2.12L61.47,24.09A5.38,5.38,0,0,0,57,21.69H32.54a4.13,4.13,0,0,0-4.14,4.13V44a2.47,2.47,0,0,1-2.47,2.47H.89v7.8C10.85,54.22,10.41,54.17,11.21,54.37Zm22.18-27a1.64,1.64,0,0,1,1.52-1.72h4.44a1.49,1.49,0,0,1,1.38,1.57V38.71a1.48,1.48,0,0,1-1.38,1.57H34.78a1.48,1.48,0,0,1-1.39-1.57Z"/><path d="M95.06,57.66l-.2-1.44H87.34a12,12,0,0,1,3,7.88A5.71,5.71,0,0,0,95.06,57.66Z"/><path d="M.89,56.22v1.62a6.34,6.34,0,0,0,5.28,6.25,12.11,12.11,0,0,1,3-7.87Z"/><path d="M30.4,64.19H66.12a12.1,12.1,0,0,1,1-4.93H29.35A12.1,12.1,0,0,1,30.4,64.19Z"/><rect height="10.61" width="3.34" y="27.67" x="35.39"/><path d="M18.28,54.08A10.12,10.12,0,1,0,28.4,64.19,10.11,10.11,0,0,0,18.28,54.08Zm0,14a3.89,3.89,0,1,1,3.89-3.89A3.89,3.89,0,0,1,18.28,68.08Z"/><path d="M78.23,54.08A10.12,10.12,0,1,0,88.35,64.19,10.11,10.11,0,0,0,78.23,54.08Zm0,14a3.89,3.89,0,1,1,3.89-3.89A3.89,3.89,0,0,1,78.23,68.08Z"/><path d="M47.59,57.26h15a17.55,17.55,0,0,1,2.63-4.14c.35-.44.25.09.25-11-.71.2.47.14-17.88.14Zm3.23-12.53h2.06a1,1,0,0,1,0,2H50.82a1,1,0,0,1,0-2Z"/><path d="M65,40.2,57,28.1a1,1,0,0,0-.79-.43H47.59V40.28C65.67,40.28,64.63,40.32,65,40.2Z"/><path d="M26.4,44V40.28H4.25A3.36,3.36,0,0,0,.89,43.64v.78h25A.47.47,0,0,0,26.4,44Z"/><path d="M85.8,44.19l7.7,2.49A6.57,6.57,0,0,0,88,41L86,40.66l-.68,2.59A.79.79,0,0,0,85.8,44.19Z"/></g><text font-family="'Helvetica Neue', Helvetica, Arial-Unicode, Arial, Sans-serif" font-weight="bold" font-size="5px" fill="#000000" y="111" x="0">Created by tezar tantular</text><text font-family="'Helvetica Neue', Helvetica, Arial-Unicode, Arial, Sans-serif" font-weight="bold" font-size="5px" fill="#000000" y="116" x="0">from the Noun Project</text></svg>