<svg xml:space="preserve" style="max-height: 500px" viewBox="78.08 24.32 354.56 463.36" y="0px" x="0px" version="1.1" xmlns:xlink="http://www.w3.org/1999/xlink" xmlns="http://www.w3.org/2000/svg" width="354.56" height="463.36"><title>a2</title><g><g><path d="M378.6,250.9l-25.7-11.7c-1.4-0.6-2.6-1.7-3.5-3L327.2,201c-3.6-5.7-9.8-9.1-16.5-9h-79.5c-6.1,0-11.8,2.8-15.5,7.5    l-28.5,37.3c-1.1,1.4-2.6,2.4-4.3,2.9l-47.7,13c-5.5,1.5-9.3,6.5-9.3,12.1v17.4c0,7,5.7,12.7,12.7,12.7h1.4    c3.1-19.5,21.4-32.9,40.9-29.8c15.3,2.4,27.4,14.4,29.8,29.8h87c3.1-19.5,21.4-32.9,40.9-29.8c15.3,2.4,27.4,14.4,29.8,29.8h4.8    c7-0.1,12.6-5.7,12.7-12.7v-19.9C386,257.5,383.1,253,378.6,250.9z"/></g><g><path d="M175.4,280.6c-10.9,0-19.8,8.9-19.8,19.8c0,10.9,8.9,19.8,19.8,19.8c10.9,0,19.8-8.9,19.8-19.8l0,0    C195.2,289.5,186.3,280.7,175.4,280.6z"/></g><g><path d="M333.2,280.6c-10.9,0-19.8,8.9-19.8,19.8s8.9,19.8,19.8,19.8s19.8-8.9,19.8-19.8v0C352.9,289.5,344.1,280.7,333.2,280.6z"/></g><g><path d="M394.9,101H346v26.3c0,4.3-3.6,7.7-7.9,7.7c-0.1,0-0.1,0-0.2,0H173.5c-4,0.1-7.4-3.1-7.5-7.1c0-0.2,0-0.4,0-0.5V101h-48.9    c-12.9,0-23.1,10.9-23.1,23.7v330.4c0,12.6,10.2,22.8,22.7,22.9c0.1,0,0.3,0,0.4,0h277.7c12.6,0.2,23-9.9,23.1-22.5    c0-0.1,0-0.3,0-0.4V124.7C418,111.9,407.7,101,394.9,101z M361.4,430H150.6c-4.4,0-8-3.6-8-8s3.6-8,8-8h210.9c4.4,0,8,3.6,8,8    S365.9,430,361.4,430z M142.6,380c0-4.4,3.6-8,8-8h116.9c4.4,0,8,3.6,8,8s-3.6,8-8,8H150.6C146.1,388,142.6,384.4,142.6,380z     M402,282.3c0,15.8-12.8,28.7-28.7,28.7h-5.9c-5.7,18.9-25.7,29.6-44.7,23.9c-11.4-3.5-20.4-12.4-23.9-23.9h-89.2    c-5.7,18.9-25.7,29.6-44.7,23.9c-11.4-3.5-20.4-12.4-23.9-23.9h-2.5c-15.8-0.1-28.6-12.9-28.7-28.7v-17.4    c0-12.9,8.7-24.2,21.1-27.6l45.1-12.3l26.8-35.2c6.7-8.7,17.2-13.9,28.2-13.9h79.5c12.2-0.1,23.6,6.2,30.1,16.5l20.9,33.2    l23.5,10.7c10.2,4.7,16.8,14.8,16.8,26V282.3z"/></g><g><path d="M330,77.7c0-7.1-5.8-12.8-12.9-12.7c0,0,0,0,0,0h-23c-3.8,0-7.1-2.7-7.8-6.4c-3.1-14.6-15.9-25-30.8-25    c-14.9,0-27.3,10.1-30.8,25.2c-0.8,3.6-4.1,6.2-7.8,6.2h-22.4c-6.8,0-12.4,5.5-12.4,12.3c0,0.1,0,0.3,0,0.4V119h148V77.7z"/></g></g><text font-family="'Helvetica Neue', Helvetica, Arial-Unicode, Arial, Sans-serif" font-weight="bold" font-size="5px" fill="#000000" y="527" x="0">Created by Paisley</text><text font-family="'Helvetica Neue', Helvetica, Arial-Unicode, Arial, Sans-serif" font-weight="bold" font-size="5px" fill="#000000" y="532" x="0">from the Noun Project</text></svg>